{"glyphs":{"0":{"ha":867,"x_min":0,"x_max":0,"o":"m 468 -14 b 821 485 658 -14 821 153 b 469 988 821 821 660 988 b 115 485 279 988 115 819 b 468 -14 115 153 278 -14 z m 517 21 b 228 485 383 21 261 175 b 221 604 224 528 221 568 b 419 954 221 839 304 954 b 708 485 554 954 676 799 b 715 363 713 442 715 400 b 517 21 715 135 632 21 z "},"1":{"ha":469,"x_min":0,"x_max":0,"o":"m 111 0 l 386 0 l 386 7 b 296 178 296 28 296 72 l 296 986 l 97 847 l 97 833 b 125 835 107 833 117 835 b 201 743 204 835 201 804 l 201 178 b 111 7 201 72 201 28 z "},"2":{"ha":775,"x_min":0,"x_max":0,"o":"m 97 0 l 671 0 l 740 194 l 728 194 b 571 100 701 140 678 100 l 246 100 b 644 474 307 161 528 307 b 726 714 701 556 726 639 b 433 986 726 865 619 986 b 132 807 319 986 217 940 l 156 799 b 396 950 226 917 324 950 b 615 703 508 950 617 878 b 97 0 613 388 188 100 z "},"3":{"ha":756,"x_min":0,"x_max":0,"o":"m 369 -14 b 719 304 583 -14 719 143 b 504 571 719 417 653 526 b 636 768 594 619 636 694 b 375 986 636 878 540 986 b 113 807 263 986 172 925 l 136 799 b 360 958 186 908 276 958 b 543 769 479 958 543 863 b 347 535 543 676 479 575 b 615 294 518 531 615 446 b 371 18 615 160 528 18 b 250 51 317 18 279 26 b 175 171 208 86 206 140 b 128 193 160 186 143 193 b 82 144 103 193 82 172 b 106 90 82 128 89 110 b 369 -14 158 31 242 -14 z "},"4":{"ha":763,"x_min":0,"x_max":0,"o":"m 432 0 l 707 0 l 707 7 b 617 178 617 28 617 72 l 617 278 l 678 278 l 678 310 l 617 310 l 617 986 l 564 986 l 83 278 l 522 278 l 522 178 b 432 7 522 72 522 28 z m 146 310 l 522 864 l 522 310 z "},"5":{"ha":817,"x_min":0,"x_max":0,"o":"m 422 -14 b 761 322 604 -10 761 114 b 399 642 761 521 593 642 b 181 589 328 642 251 625 l 181 886 l 668 886 l 724 1042 l 718 1042 b 622 972 689 986 658 972 l 139 972 l 139 506 b 382 592 218 564 303 592 b 656 297 532 592 656 488 b 407 18 656 163 567 25 b 286 51 353 18 315 26 b 211 171 244 86 242 140 b 164 193 196 186 179 193 b 118 144 139 193 118 172 b 142 90 118 128 125 110 b 422 -14 197 28 285 -18 z "},"6":{"ha":790,"x_min":0,"x_max":0,"o":"m 438 -14 b 742 329 633 -14 742 175 b 454 639 742 524 600 639 b 219 508 367 639 278 597 b 564 971 256 750 400 957 l 564 989 b 104 396 385 976 104 768 b 438 -14 104 200 203 -14 z m 438 7 b 211 408 296 7 207 174 b 213 439 211 418 211 429 b 429 610 263 554 347 610 b 640 325 538 610 640 511 b 438 7 640 135 554 7 z "},"7":{"ha":763,"x_min":0,"x_max":0,"o":"m 281 0 l 408 0 b 707 972 453 324 551 649 l 160 972 l 117 792 l 124 792 b 236 886 154 872 196 886 l 635 886 b 281 0 463 590 343 296 z "},"8":{"ha":779,"x_min":0,"x_max":0,"o":"m 413 -14 b 747 232 578 -14 747 68 b 485 538 747 351 607 449 b 688 788 611 610 688 679 b 438 988 688 919 564 988 b 163 753 303 988 163 910 b 351 510 163 663 251 583 b 101 206 199 418 101 332 b 413 -14 101 60 254 -14 z m 468 550 b 240 790 357 629 240 694 b 431 963 240 904 336 963 b 618 785 525 963 618 906 b 468 550 618 685 554 607 z m 421 13 b 176 213 299 13 176 75 b 372 493 176 338 267 438 l 435 447 b 668 192 549 361 668 286 b 421 13 668 76 544 13 z "},"9":{"ha":790,"x_min":0,"x_max":0,"o":"m 282 -14 b 742 579 461 -1 742 207 b 408 986 742 775 643 986 b 104 646 213 986 104 800 b 392 336 104 451 246 336 b 626 467 479 336 568 378 b 282 7 590 225 446 21 z m 417 365 b 206 650 308 365 206 464 b 408 965 206 840 292 965 b 635 567 550 965 639 801 b 633 536 635 557 635 546 b 417 365 583 421 499 365 z "},"A":{"ha":1090,"x_min":0,"x_max":0,"o":"m 56 0 l 286 0 l 286 7 b 210 72 235 17 210 33 b 232 161 210 94 218 124 l 294 328 l 719 328 l 776 178 b 804 74 793 135 804 101 b 732 7 804 39 785 17 l 732 0 l 1035 0 l 1035 7 b 885 178 953 28 922 78 l 582 972 l 393 972 l 393 965 b 468 904 446 956 468 939 b 461 867 468 894 465 882 l 197 161 b 56 7 161 63 133 26 z m 304 356 l 504 890 l 708 357 l 306 357 z "},"Á":{"ha":1090,"x_min":0,"x_max":0,"o":"m 421 1053 l 433 1053 l 621 1172 b 651 1217 643 1186 651 1201 b 610 1256 651 1238 633 1256 b 560 1228 593 1256 575 1247 z m 56 0 l 286 0 l 286 7 b 210 72 235 17 210 33 b 232 161 210 94 218 124 l 294 328 l 719 328 l 776 178 b 804 74 793 135 804 101 b 732 7 804 39 785 17 l 732 0 l 1035 0 l 1035 7 b 885 178 953 28 922 78 l 582 972 l 393 972 l 393 965 b 468 904 446 956 468 939 b 461 867 468 894 465 882 l 197 161 b 56 7 161 63 133 26 z m 304 356 l 504 890 l 708 357 l 306 357 z "},"Ă":{"ha":1090,"x_min":0,"x_max":0,"o":"m 513 1056 b 717 1243 613 1056 713 1118 l 704 1243 b 513 1125 699 1163 606 1125 b 321 1243 419 1125 326 1163 l 308 1243 b 513 1056 313 1118 413 1056 z m 56 0 l 286 0 l 286 7 b 210 72 235 17 210 33 b 232 161 210 94 218 124 l 294 328 l 719 328 l 776 178 b 804 74 793 135 804 101 b 732 7 804 39 785 17 l 732 0 l 1035 0 l 1035 7 b 885 178 953 28 922 78 l 582 972 l 393 972 l 393 965 b 468 904 446 956 468 939 b 461 867 468 894 465 882 l 197 161 b 56 7 161 63 133 26 z m 304 356 l 504 890 l 708 357 l 306 357 z "},"Â":{"ha":1090,"x_min":0,"x_max":0,"o":"m 321 1056 l 333 1056 l 510 1168 l 685 1056 l 697 1056 l 558 1231 b 518 1257 546 1247 531 1256 b 510 1258 515 1258 513 1258 b 500 1257 506 1258 503 1258 b 460 1231 488 1256 472 1247 z m 56 0 l 286 0 l 286 7 b 210 72 235 17 210 33 b 232 161 210 94 218 124 l 294 328 l 719 328 l 776 178 b 804 74 793 135 804 101 b 732 7 804 39 785 17 l 732 0 l 1035 0 l 1035 7 b 885 178 953 28 922 78 l 582 972 l 393 972 l 393 965 b 468 904 446 956 468 939 b 461 867 468 894 465 882 l 197 161 b 56 7 161 63 133 26 z m 304 356 l 504 890 l 708 357 l 306 357 z "},"Ä":{"ha":1090,"x_min":0,"x_max":0,"o":"m 406 1057 b 474 1125 444 1057 474 1086 b 403 1193 474 1164 443 1193 b 338 1125 365 1193 338 1161 b 406 1057 338 1086 367 1057 z m 636 1057 b 704 1125 674 1057 704 1086 b 636 1192 704 1163 674 1192 b 568 1125 597 1192 568 1163 b 636 1057 568 1086 597 1057 z m 56 0 l 286 0 l 286 7 b 210 72 235 17 210 33 b 232 161 210 94 218 124 l 294 328 l 719 328 l 776 178 b 804 74 793 135 804 101 b 732 7 804 39 785 17 l 732 0 l 1035 0 l 1035 7 b 885 178 953 28 922 78 l 582 972 l 393 972 l 393 965 b 468 904 446 956 468 939 b 461 867 468 894 465 882 l 197 161 b 56 7 161 63 133 26 z m 304 356 l 504 890 l 708 357 l 306 357 z "},"À":{"ha":1090,"x_min":0,"x_max":0,"o":"m 582 1057 l 594 1057 l 456 1232 b 406 1260 440 1251 422 1260 b 364 1221 383 1260 364 1243 b 394 1176 364 1207 372 1190 z m 56 0 l 286 0 l 286 7 b 210 72 235 17 210 33 b 232 161 210 94 218 124 l 294 328 l 719 328 l 776 178 b 804 74 793 135 804 101 b 732 7 804 39 785 17 l 732 0 l 1035 0 l 1035 7 b 885 178 953 28 922 78 l 582 972 l 393 972 l 393 965 b 468 904 446 956 468 939 b 461 867 468 894 465 882 l 197 161 b 56 7 161 63 133 26 z m 304 356 l 504 890 l 708 357 l 306 357 z "},"Ā":{"ha":1090,"x_min":0,"x_max":0,"o":"m 315 1056 l 724 1056 l 724 1103 l 315 1103 z m 56 0 l 286 0 l 286 7 b 210 72 235 17 210 33 b 232 161 210 94 218 124 l 294 328 l 719 328 l 776 178 b 804 74 793 135 804 101 b 732 7 804 39 785 17 l 732 0 l 1035 0 l 1035 7 b 885 178 953 28 922 78 l 582 972 l 393 972 l 393 965 b 468 904 446 956 468 939 b 461 867 468 894 465 882 l 197 161 b 56 7 161 63 133 26 z m 304 356 l 504 890 l 708 357 l 306 357 z "},"Ą":{"ha":1090,"x_min":0,"x_max":0,"o":"m 1035 0 l 1035 7 b 885 178 953 28 922 78 l 582 972 l 393 972 l 393 965 b 468 904 446 956 468 939 b 461 867 468 894 465 882 l 197 161 b 56 7 161 63 133 26 l 56 0 l 286 0 l 286 7 b 210 72 235 17 210 33 b 232 161 210 94 218 124 l 294 328 l 719 328 l 776 178 b 804 74 793 135 804 101 b 732 7 804 39 785 17 l 732 0 l 872 0 b 774 -185 801 -76 774 -139 b 868 -269 774 -239 814 -269 b 1019 -199 914 -269 969 -247 l 1017 -181 b 914 -232 976 -217 940 -232 b 843 -139 868 -232 843 -192 b 897 0 843 -96 860 -44 z m 306 357 l 304 356 l 504 890 l 708 357 z "},"Å":{"ha":1090,"x_min":0,"x_max":0,"o":"m 521 1054 b 653 1186 593 1054 653 1114 b 521 1318 653 1258 593 1318 b 389 1186 449 1318 389 1258 b 521 1054 389 1114 449 1054 z m 521 1090 b 426 1186 469 1090 426 1133 b 524 1282 426 1238 471 1282 b 615 1186 574 1282 615 1236 b 521 1090 615 1133 572 1090 z m 56 0 l 286 0 l 286 7 b 210 72 235 17 210 33 b 232 161 210 94 218 124 l 294 328 l 719 328 l 776 178 b 804 74 793 135 804 101 b 732 7 804 39 785 17 l 732 0 l 1035 0 l 1035 7 b 885 178 953 28 922 78 l 582 972 l 393 972 l 393 965 b 468 904 446 956 468 939 b 461 867 468 894 465 882 l 197 161 b 56 7 161 63 133 26 z m 304 356 l 504 890 l 708 357 l 306 357 z "},"Ã":{"ha":1090,"x_min":0,"x_max":0,"o":"m 338 1051 l 349 1051 b 407 1118 350 1101 374 1118 b 663 1054 475 1118 586 1054 b 746 1165 711 1054 746 1081 l 738 1165 b 683 1114 735 1126 714 1114 b 428 1172 617 1114 506 1172 b 338 1051 375 1172 336 1144 z m 56 0 l 286 0 l 286 7 b 210 72 235 17 210 33 b 232 161 210 94 218 124 l 294 328 l 719 328 l 776 178 b 804 74 793 135 804 101 b 732 7 804 39 785 17 l 732 0 l 1035 0 l 1035 7 b 885 178 953 28 922 78 l 582 972 l 393 972 l 393 965 b 468 904 446 956 468 939 b 461 867 468 894 465 882 l 197 161 b 56 7 161 63 133 26 z m 304 356 l 504 890 l 708 357 l 306 357 z "},"Æ":{"ha":1517,"x_min":0,"x_max":0,"o":"m 1365 -14 l 1382 -14 l 1447 190 l 1439 190 b 1196 29 1397 108 1332 29 l 954 29 b 844 178 865 29 844 72 l 844 483 l 1074 483 b 1213 372 1117 483 1189 478 l 1219 372 l 1219 626 l 1213 626 b 1074 514 1189 519 1117 514 l 844 514 l 844 794 b 954 943 844 900 865 943 l 1154 943 b 1383 783 1290 943 1342 865 l 1392 783 l 1342 986 l 1325 986 b 1181 972 1290 972 1285 972 l 631 972 l 631 965 b 693 943 656 961 676 956 l 694 943 l 700 939 l 228 161 b 56 7 172 71 133 26 l 56 0 l 286 0 l 286 7 b 222 61 242 15 222 32 b 263 161 222 86 236 118 l 364 328 l 744 328 l 744 178 b 643 7 744 72 733 28 l 643 0 l 1222 0 b 1365 -14 1326 0 1331 0 z m 382 357 l 721 914 b 744 792 736 889 744 850 l 744 357 z "},"B":{"ha":996,"x_min":0,"x_max":0,"o":"m 111 0 l 546 0 b 940 271 763 0 940 83 b 647 515 940 411 833 496 b 869 743 793 557 869 644 b 511 972 869 890 751 972 l 111 972 l 111 965 b 213 794 201 944 213 900 l 213 178 b 111 7 213 72 201 28 z m 313 524 l 313 794 b 422 943 313 900 333 943 l 511 943 b 764 744 700 943 764 867 b 504 524 764 628 703 524 z m 415 28 b 313 178 332 31 313 75 l 313 494 l 531 494 b 832 267 726 494 832 425 b 549 29 832 115 732 31 z "},"C":{"ha":1051,"x_min":0,"x_max":0,"o":"m 625 -14 b 982 110 792 -14 903 39 l 971 126 b 639 17 885 49 772 17 b 196 482 417 18 219 213 b 194 529 194 497 194 514 b 656 956 194 764 351 971 b 831 868 740 951 796 914 b 911 771 860 831 875 779 b 928 769 917 769 924 769 b 975 817 961 769 975 793 b 649 986 975 903 819 986 b 97 485 315 986 97 765 b 625 -14 97 193 311 -14 z "},"Ć":{"ha":1051,"x_min":0,"x_max":0,"o":"m 544 1054 l 557 1054 l 744 1174 b 775 1218 767 1188 775 1203 b 733 1257 775 1239 757 1257 b 683 1229 717 1257 699 1249 z m 625 -14 b 982 110 792 -14 903 39 l 971 126 b 639 17 885 49 772 17 b 196 482 417 18 219 213 b 194 529 194 497 194 514 b 656 956 194 764 351 971 b 831 868 740 951 796 914 b 911 771 860 831 875 779 b 928 769 917 769 924 769 b 975 817 961 769 975 793 b 649 986 975 903 819 986 b 97 485 315 986 97 765 b 625 -14 97 193 311 -14 z "},"Č":{"ha":1051,"x_min":0,"x_max":0,"o":"m 631 1057 b 639 1058 633 1057 636 1057 b 679 1085 651 1060 667 1068 l 818 1260 l 806 1260 l 631 1147 l 454 1260 l 442 1260 l 581 1085 b 621 1058 593 1068 608 1060 b 631 1057 624 1057 626 1057 z m 625 -14 b 982 110 792 -14 903 39 l 971 126 b 639 17 885 49 772 17 b 196 482 417 18 219 213 b 194 529 194 497 194 514 b 656 956 194 764 351 971 b 831 868 740 951 796 914 b 911 771 860 831 875 779 b 928 769 917 769 924 769 b 975 817 961 769 975 793 b 649 986 975 903 819 986 b 97 485 315 986 97 765 b 625 -14 97 193 311 -14 z "},"Ç":{"ha":1051,"x_min":0,"x_max":0,"o":"m 632 -69 b 611 -71 625 -69 618 -69 l 640 -14 b 982 110 799 -11 906 42 l 971 126 b 639 17 885 49 772 17 b 196 482 417 18 219 213 b 194 529 194 497 194 514 b 656 956 194 764 351 971 b 831 868 740 951 796 914 b 911 771 860 831 875 779 b 928 769 917 769 924 769 b 975 817 961 769 975 793 b 649 986 975 903 819 986 b 97 485 315 986 97 765 b 618 -14 97 196 308 -11 l 533 -96 b 571 -90 547 -92 560 -90 b 650 -175 625 -90 650 -132 b 582 -257 650 -215 628 -254 b 478 -228 557 -258 521 -258 l 472 -233 b 601 -283 506 -267 554 -283 b 743 -167 675 -283 743 -244 b 632 -69 743 -129 703 -69 z "},"Ċ":{"ha":1051,"x_min":0,"x_max":0,"o":"m 613 1053 b 681 1121 651 1053 681 1082 b 610 1189 681 1160 650 1189 b 544 1121 572 1189 544 1157 b 613 1053 544 1082 574 1053 z m 625 -14 b 982 110 792 -14 903 39 l 971 126 b 639 17 885 49 772 17 b 196 482 417 18 219 213 b 194 529 194 497 194 514 b 656 956 194 764 351 971 b 831 868 740 951 796 914 b 911 771 860 831 875 779 b 928 769 917 769 924 769 b 975 817 961 769 975 793 b 649 986 975 903 819 986 b 97 485 315 986 97 765 b 625 -14 97 193 311 -14 z "},"D":{"ha":1083,"x_min":0,"x_max":0,"o":"m 111 0 l 475 0 b 1014 510 810 0 1014 186 b 474 972 1014 804 800 972 l 111 972 l 111 965 b 213 794 201 944 213 900 l 213 178 b 111 7 213 72 201 28 z m 406 29 b 313 178 331 35 313 79 l 313 794 b 422 943 313 900 333 943 l 474 943 b 908 507 733 943 908 804 b 475 29 908 185 744 26 z "},"Ð":{"ha":1083,"x_min":0,"x_max":0,"o":"m 111 0 l 475 0 b 1014 510 810 0 1014 186 b 474 972 1014 804 800 972 l 111 972 l 111 965 b 213 794 201 944 213 900 l 213 508 l 97 508 l 97 476 l 213 476 l 213 178 b 111 7 213 72 201 28 z m 406 29 b 313 178 331 35 313 79 l 313 476 l 499 476 l 499 508 l 313 508 l 313 794 b 422 943 313 900 333 943 l 474 943 b 908 507 733 943 908 804 b 475 29 908 185 744 26 z "},"Ď":{"ha":1083,"x_min":0,"x_max":0,"o":"m 478 1057 b 486 1058 481 1057 483 1057 b 526 1085 499 1060 514 1068 l 665 1260 l 653 1260 l 478 1147 l 301 1260 l 289 1260 l 428 1085 b 468 1058 440 1068 456 1060 b 478 1057 471 1057 474 1057 z m 111 0 l 475 0 b 1014 510 810 0 1014 186 b 474 972 1014 804 800 972 l 111 972 l 111 965 b 213 794 201 944 213 900 l 213 178 b 111 7 213 72 201 28 z m 406 29 b 313 178 331 35 313 79 l 313 794 b 422 943 313 900 333 943 l 474 943 b 908 507 733 943 908 804 b 475 29 908 185 744 26 z "},"Đ":{"ha":1083,"x_min":0,"x_max":0,"o":"m 111 0 l 475 0 b 1014 510 810 0 1014 186 b 474 972 1014 804 800 972 l 111 972 l 111 965 b 213 794 201 944 213 900 l 213 508 l 97 508 l 97 476 l 213 476 l 213 178 b 111 7 213 72 201 28 z m 406 29 b 313 178 331 35 313 79 l 313 476 l 499 476 l 499 508 l 313 508 l 313 794 b 422 943 313 900 333 943 l 474 943 b 908 507 733 943 908 804 b 475 29 908 185 744 26 z "},"E":{"ha":985,"x_min":0,"x_max":0,"o":"m 833 -14 l 850 -14 l 915 190 l 907 190 b 664 29 865 108 800 29 l 422 29 b 313 178 333 29 313 72 l 313 483 l 542 483 b 681 372 585 483 657 478 l 688 372 l 688 626 l 681 626 b 542 514 657 519 585 514 l 313 514 l 313 794 b 422 943 313 900 333 943 l 622 943 b 851 783 758 943 810 865 l 860 783 l 810 986 l 793 986 b 649 972 758 972 753 972 l 111 972 l 111 965 b 213 794 201 944 213 900 l 213 178 b 111 7 213 72 201 28 l 111 0 l 690 0 b 833 -14 794 0 799 0 z "},"É":{"ha":985,"x_min":0,"x_max":0,"o":"m 436 1056 l 449 1056 l 636 1175 b 667 1219 658 1189 667 1204 b 625 1258 667 1240 649 1258 b 575 1231 608 1258 590 1250 z m 833 -14 l 850 -14 l 915 190 l 907 190 b 664 29 865 108 800 29 l 422 29 b 313 178 333 29 313 72 l 313 483 l 542 483 b 681 372 585 483 657 478 l 688 372 l 688 626 l 681 626 b 542 514 657 519 585 514 l 313 514 l 313 794 b 422 943 313 900 333 943 l 622 943 b 851 783 758 943 810 865 l 860 783 l 810 986 l 793 986 b 649 972 758 972 753 972 l 111 972 l 111 965 b 213 794 201 944 213 900 l 213 178 b 111 7 213 72 201 28 l 111 0 l 690 0 b 833 -14 794 0 799 0 z "},"Ě":{"ha":985,"x_min":0,"x_max":0,"o":"m 513 1056 b 521 1057 515 1056 518 1056 b 561 1083 533 1058 549 1067 l 700 1258 l 688 1258 l 513 1146 l 336 1258 l 324 1258 l 463 1083 b 503 1057 475 1067 490 1058 b 513 1056 506 1056 508 1056 z m 833 -14 l 850 -14 l 915 190 l 907 190 b 664 29 865 108 800 29 l 422 29 b 313 178 333 29 313 72 l 313 483 l 542 483 b 681 372 585 483 657 478 l 688 372 l 688 626 l 681 626 b 542 514 657 519 585 514 l 313 514 l 313 794 b 422 943 313 900 333 943 l 622 943 b 851 783 758 943 810 865 l 860 783 l 810 986 l 793 986 b 649 972 758 972 753 972 l 111 972 l 111 965 b 213 794 201 944 213 900 l 213 178 b 111 7 213 72 201 28 l 111 0 l 690 0 b 833 -14 794 0 799 0 z "},"Ê":{"ha":985,"x_min":0,"x_max":0,"o":"m 336 1056 l 349 1056 l 525 1168 l 700 1056 l 713 1056 l 574 1231 b 533 1257 561 1247 546 1256 b 525 1258 531 1258 528 1258 b 515 1257 521 1258 518 1258 b 475 1231 503 1256 488 1247 z m 833 -14 l 850 -14 l 915 190 l 907 190 b 664 29 865 108 800 29 l 422 29 b 313 178 333 29 313 72 l 313 483 l 542 483 b 681 372 585 483 657 478 l 688 372 l 688 626 l 681 626 b 542 514 657 519 585 514 l 313 514 l 313 794 b 422 943 313 900 333 943 l 622 943 b 851 783 758 943 810 865 l 860 783 l 810 986 l 793 986 b 649 972 758 972 753 972 l 111 972 l 111 965 b 213 794 201 944 213 900 l 213 178 b 111 7 213 72 201 28 l 111 0 l 690 0 b 833 -14 794 0 799 0 z "},"Ë":{"ha":985,"x_min":0,"x_max":0,"o":"m 425 1058 b 493 1126 464 1058 493 1088 b 422 1194 493 1165 463 1194 b 357 1126 385 1194 357 1163 b 425 1058 357 1088 386 1058 z m 656 1058 b 724 1126 693 1058 724 1088 b 656 1193 724 1164 693 1193 b 588 1126 617 1193 588 1164 b 656 1058 588 1088 617 1058 z m 833 -14 l 850 -14 l 915 190 l 907 190 b 664 29 865 108 800 29 l 422 29 b 313 178 333 29 313 72 l 313 483 l 542 483 b 681 372 585 483 657 478 l 688 372 l 688 626 l 681 626 b 542 514 657 519 585 514 l 313 514 l 313 794 b 422 943 313 900 333 943 l 622 943 b 851 783 758 943 810 865 l 860 783 l 810 986 l 793 986 b 649 972 758 972 753 972 l 111 972 l 111 965 b 213 794 201 944 213 900 l 213 178 b 111 7 213 72 201 28 l 111 0 l 690 0 b 833 -14 794 0 799 0 z "},"Ė":{"ha":985,"x_min":0,"x_max":0,"o":"m 525 1056 b 593 1124 564 1056 593 1085 b 522 1192 593 1163 563 1192 b 457 1124 485 1192 457 1160 b 525 1056 457 1085 486 1056 z m 833 -14 l 850 -14 l 915 190 l 907 190 b 664 29 865 108 800 29 l 422 29 b 313 178 333 29 313 72 l 313 483 l 542 483 b 681 372 585 483 657 478 l 688 372 l 688 626 l 681 626 b 542 514 657 519 585 514 l 313 514 l 313 794 b 422 943 313 900 333 943 l 622 943 b 851 783 758 943 810 865 l 860 783 l 810 986 l 793 986 b 649 972 758 972 753 972 l 111 972 l 111 965 b 213 794 201 944 213 900 l 213 178 b 111 7 213 72 201 28 l 111 0 l 690 0 b 833 -14 794 0 799 0 z "},"È":{"ha":985,"x_min":0,"x_max":0,"o":"m 621 1056 l 633 1056 l 494 1231 b 444 1258 479 1250 461 1258 b 403 1219 422 1258 403 1242 b 433 1175 403 1206 411 1189 z m 833 -14 l 850 -14 l 915 190 l 907 190 b 664 29 865 108 800 29 l 422 29 b 313 178 333 29 313 72 l 313 483 l 542 483 b 681 372 585 483 657 478 l 688 372 l 688 626 l 681 626 b 542 514 657 519 585 514 l 313 514 l 313 794 b 422 943 313 900 333 943 l 622 943 b 851 783 758 943 810 865 l 860 783 l 810 986 l 793 986 b 649 972 758 972 753 972 l 111 972 l 111 965 b 213 794 201 944 213 900 l 213 178 b 111 7 213 72 201 28 l 111 0 l 690 0 b 833 -14 794 0 799 0 z "},"Ē":{"ha":985,"x_min":0,"x_max":0,"o":"m 317 1056 l 725 1056 l 725 1103 l 317 1103 z m 833 -14 l 850 -14 l 915 190 l 907 190 b 664 29 865 108 800 29 l 422 29 b 313 178 333 29 313 72 l 313 483 l 542 483 b 681 372 585 483 657 478 l 688 372 l 688 626 l 681 626 b 542 514 657 519 585 514 l 313 514 l 313 794 b 422 943 313 900 333 943 l 622 943 b 851 783 758 943 810 865 l 860 783 l 810 986 l 793 986 b 649 972 758 972 753 972 l 111 972 l 111 965 b 213 794 201 944 213 900 l 213 178 b 111 7 213 72 201 28 l 111 0 l 690 0 b 833 -14 794 0 799 0 z "},"Ę":{"ha":985,"x_min":0,"x_max":0,"o":"m 907 190 b 664 29 865 108 800 29 l 422 29 b 313 178 333 29 313 72 l 313 483 l 542 483 b 681 372 585 483 657 478 l 688 372 l 688 626 l 681 626 b 542 514 657 519 585 514 l 313 514 l 313 794 b 422 943 313 900 333 943 l 622 943 b 851 783 758 943 810 865 l 860 783 l 810 986 l 793 986 b 649 972 758 972 753 972 l 111 972 l 111 965 b 213 794 201 944 213 900 l 213 178 b 111 7 213 72 201 28 l 111 0 l 549 0 b 453 -181 481 -75 453 -136 b 547 -265 453 -235 493 -265 b 699 -194 593 -265 649 -243 l 696 -176 b 593 -228 656 -212 619 -228 b 522 -135 547 -228 522 -187 b 572 0 522 -93 538 -43 l 690 0 b 833 -14 794 0 799 0 l 850 -14 l 915 190 z "},"F":{"ha":929,"x_min":0,"x_max":0,"o":"m 111 0 l 414 0 l 414 7 b 313 178 324 28 313 72 l 313 483 l 542 483 b 681 372 585 483 657 478 l 688 372 l 688 626 l 681 626 b 542 514 657 519 585 514 l 313 514 l 313 794 b 422 943 313 900 333 943 l 636 943 b 865 783 772 943 824 865 l 874 783 l 824 986 l 807 986 b 663 972 772 972 767 972 l 111 972 l 111 965 b 213 794 201 944 213 900 l 213 178 b 111 7 213 72 201 28 z "},"G":{"ha":1161,"x_min":0,"x_max":0,"o":"m 625 -14 b 990 222 851 -14 981 103 l 990 263 b 1092 433 990 368 1001 413 l 1092 440 l 796 440 l 796 433 b 897 263 886 413 897 368 l 897 204 b 639 17 896 92 800 17 b 196 482 417 18 219 213 b 194 529 194 497 194 514 b 656 956 194 764 351 971 b 831 868 740 951 796 914 b 911 771 860 831 875 779 b 928 769 917 769 924 769 b 975 817 961 769 975 793 b 649 986 975 903 819 986 b 97 485 315 986 97 765 b 625 -14 97 193 311 -14 z "},"Ğ":{"ha":1161,"x_min":0,"x_max":0,"o":"m 618 1054 b 822 1242 718 1054 818 1117 l 810 1242 b 618 1124 804 1161 711 1124 b 426 1242 525 1124 432 1161 l 414 1242 b 618 1054 418 1117 518 1054 z m 625 -14 b 990 222 851 -14 981 103 l 990 263 b 1092 433 990 368 1001 413 l 1092 440 l 796 440 l 796 433 b 897 263 886 413 897 368 l 897 204 b 639 17 896 92 800 17 b 196 482 417 18 219 213 b 194 529 194 497 194 514 b 656 956 194 764 351 971 b 831 868 740 951 796 914 b 911 771 860 831 875 779 b 928 769 917 769 924 769 b 975 817 961 769 975 793 b 649 986 975 903 819 986 b 97 485 315 986 97 765 b 625 -14 97 193 311 -14 z "},"Ģ":{"ha":1161,"x_min":0,"x_max":0,"o":"m 625 -14 b 990 222 851 -14 981 103 l 990 263 b 1092 433 990 368 1001 413 l 1092 440 l 796 440 l 796 433 b 897 263 886 413 897 368 l 897 204 b 639 17 896 92 800 17 b 196 482 417 18 219 213 b 194 529 194 497 194 514 b 656 956 194 764 351 971 b 831 868 740 951 796 914 b 911 771 860 831 875 779 b 928 769 917 769 924 769 b 975 817 961 769 975 793 b 649 986 975 903 819 986 b 97 485 315 986 97 765 b 625 -14 97 193 311 -14 z m 604 -365 l 608 -365 b 690 -190 644 -328 690 -247 b 682 -156 690 -176 688 -165 b 622 -115 672 -132 649 -115 b 556 -182 583 -115 556 -146 b 604 -246 556 -212 575 -237 b 629 -292 621 -253 629 -271 b 604 -365 629 -314 621 -340 z "},"Ġ":{"ha":1161,"x_min":0,"x_max":0,"o":"m 638 1056 b 706 1124 676 1056 706 1085 b 635 1192 706 1163 675 1192 b 569 1124 597 1192 569 1160 b 638 1056 569 1085 599 1056 z m 625 -14 b 990 222 851 -14 981 103 l 990 263 b 1092 433 990 368 1001 413 l 1092 440 l 796 440 l 796 433 b 897 263 886 413 897 368 l 897 204 b 639 17 896 92 800 17 b 196 482 417 18 219 213 b 194 529 194 497 194 514 b 656 956 194 764 351 971 b 831 868 740 951 796 914 b 911 771 860 831 875 779 b 928 769 917 769 924 769 b 975 817 961 769 975 793 b 649 986 975 903 819 986 b 97 485 315 986 97 765 b 625 -14 97 193 311 -14 z "},"H":{"ha":1125,"x_min":0,"x_max":0,"o":"m 111 0 l 414 0 l 414 7 b 313 178 324 28 313 72 l 313 483 l 813 483 l 813 178 b 711 7 813 72 801 28 l 711 0 l 1014 0 l 1014 7 b 913 178 924 28 913 72 l 913 794 b 1014 965 913 900 924 944 l 1014 972 l 711 972 l 711 965 b 813 794 801 944 813 900 l 813 514 l 313 514 l 313 794 b 414 965 313 900 324 944 l 414 972 l 111 972 l 111 965 b 213 794 201 944 213 900 l 213 178 b 111 7 213 72 201 28 z "},"Ħ":{"ha":1125,"x_min":0,"x_max":0,"o":"m 111 0 l 414 0 l 414 7 b 313 178 324 28 313 72 l 313 483 l 813 483 l 813 178 b 711 7 813 72 801 28 l 711 0 l 1014 0 l 1014 7 b 913 178 924 28 913 72 l 913 794 b 1014 965 913 900 924 944 l 1014 972 l 711 972 l 711 965 b 813 794 801 944 813 900 l 813 639 l 313 639 l 313 794 b 414 965 313 900 324 944 l 414 972 l 111 972 l 111 965 b 213 794 201 944 213 900 l 213 178 b 111 7 213 72 201 28 z m 313 514 l 313 608 l 813 608 l 813 514 z "},"I":{"ha":525,"x_min":0,"x_max":0,"o":"m 111 0 l 414 0 l 414 7 b 313 178 324 28 313 72 l 313 794 b 414 965 313 900 324 944 l 414 972 l 111 972 l 111 965 b 213 794 201 944 213 900 l 213 178 b 111 7 213 72 201 28 z "},"Í":{"ha":525,"x_min":0,"x_max":0,"o":"m 147 1054 l 160 1054 l 347 1174 b 378 1218 369 1188 378 1203 b 336 1257 378 1239 360 1257 b 286 1229 319 1257 301 1249 z m 111 0 l 414 0 l 414 7 b 313 178 324 28 313 72 l 313 794 b 414 965 313 900 324 944 l 414 972 l 111 972 l 111 965 b 213 794 201 944 213 900 l 213 178 b 111 7 213 72 201 28 z "},"Î":{"ha":525,"x_min":0,"x_max":0,"o":"m 75 1056 l 88 1056 l 264 1168 l 439 1056 l 451 1056 l 313 1231 b 272 1257 300 1247 285 1256 b 264 1258 269 1258 267 1258 b 254 1257 260 1258 257 1258 b 214 1231 242 1256 226 1247 z m 111 0 l 414 0 l 414 7 b 313 178 324 28 313 72 l 313 794 b 414 965 313 900 324 944 l 414 972 l 111 972 l 111 965 b 213 794 201 944 213 900 l 213 178 b 111 7 213 72 201 28 z "},"Ï":{"ha":525,"x_min":0,"x_max":0,"o":"m 147 1056 b 215 1124 186 1056 215 1085 b 144 1192 215 1163 185 1192 b 79 1124 107 1192 79 1160 b 147 1056 79 1085 108 1056 z m 378 1056 b 446 1124 415 1056 446 1085 b 378 1190 446 1161 415 1190 b 310 1124 339 1190 310 1161 b 378 1056 310 1085 339 1056 z m 111 0 l 414 0 l 414 7 b 313 178 324 28 313 72 l 313 794 b 414 965 313 900 324 944 l 414 972 l 111 972 l 111 965 b 213 794 201 944 213 900 l 213 178 b 111 7 213 72 201 28 z "},"İ":{"ha":525,"x_min":0,"x_max":0,"o":"m 264 1043 b 332 1111 303 1043 332 1072 b 261 1179 332 1150 301 1179 b 196 1111 224 1179 196 1147 b 264 1043 196 1072 225 1043 z m 111 0 l 414 0 l 414 7 b 313 178 324 28 313 72 l 313 794 b 414 965 313 900 324 944 l 414 972 l 111 972 l 111 965 b 213 794 201 944 213 900 l 213 178 b 111 7 213 72 201 28 z "},"Ì":{"ha":525,"x_min":0,"x_max":0,"o":"m 381 1056 l 393 1056 l 254 1231 b 204 1258 239 1250 221 1258 b 163 1219 182 1258 163 1242 b 193 1175 163 1206 171 1189 z m 111 0 l 414 0 l 414 7 b 313 178 324 28 313 72 l 313 794 b 414 965 313 900 324 944 l 414 972 l 111 972 l 111 965 b 213 794 201 944 213 900 l 213 178 b 111 7 213 72 201 28 z "},"Ī":{"ha":525,"x_min":0,"x_max":0,"o":"m 58 1057 l 467 1057 l 467 1104 l 58 1104 z m 111 0 l 414 0 l 414 7 b 313 178 324 28 313 72 l 313 794 b 414 965 313 900 324 944 l 414 972 l 111 972 l 111 965 b 213 794 201 944 213 900 l 213 178 b 111 7 213 72 201 28 z "},"Į":{"ha":525,"x_min":0,"x_max":0,"o":"m 414 965 l 414 972 l 111 972 l 111 965 b 213 794 201 944 213 900 l 213 178 b 111 7 213 72 201 28 l 111 0 l 264 0 b 158 -192 188 -79 158 -144 b 253 -276 158 -246 199 -276 b 404 -206 299 -276 354 -254 l 401 -187 b 299 -239 361 -224 325 -239 b 228 -146 253 -239 228 -199 b 286 -1 228 -101 246 -47 l 285 0 l 414 0 l 414 7 b 313 178 324 28 313 72 l 313 794 b 414 965 313 900 324 944 z "},"J":{"ha":651,"x_min":0,"x_max":0,"o":"m 238 -15 b 467 218 383 -15 467 63 l 467 794 b 568 965 467 900 478 944 l 568 972 l 265 972 l 265 965 b 367 794 356 944 367 900 l 367 211 b 228 6 367 78 343 6 b 100 131 160 6 113 51 b 53 182 94 167 72 182 b 14 133 26 182 14 160 b 28 85 14 117 19 100 b 238 -15 63 21 150 -15 z "},"K":{"ha":1057,"x_min":0,"x_max":0,"o":"m 878 -1 b 988 0 907 -1 942 0 l 988 7 b 767 156 926 18 883 29 l 400 551 l 713 824 b 969 965 824 921 875 951 l 969 972 l 721 972 l 721 965 b 767 936 749 957 767 951 b 683 842 767 921 743 893 l 313 521 l 313 794 b 414 965 313 900 324 944 l 414 972 l 111 972 l 111 965 b 213 794 201 944 213 900 l 213 178 b 111 7 213 72 201 28 l 111 0 l 414 0 l 414 7 b 313 178 324 28 313 72 l 313 499 l 681 101 b 878 -1 767 10 778 -1 z "},"Ķ":{"ha":1057,"x_min":0,"x_max":0,"o":"m 878 -1 b 988 0 907 -1 942 0 l 988 7 b 767 156 926 18 883 29 l 400 551 l 713 824 b 969 965 824 921 875 951 l 969 972 l 721 972 l 721 965 b 767 936 749 957 767 951 b 683 842 767 921 743 893 l 313 521 l 313 794 b 414 965 313 900 324 944 l 414 972 l 111 972 l 111 965 b 213 794 201 944 213 900 l 213 178 b 111 7 213 72 201 28 l 111 0 l 414 0 l 414 7 b 313 178 324 28 313 72 l 313 499 l 681 101 b 878 -1 767 10 778 -1 z m 535 -331 l 539 -331 b 621 -156 575 -293 621 -212 b 613 -121 621 -142 618 -131 b 553 -81 603 -97 579 -81 b 486 -147 514 -81 486 -111 b 535 -211 486 -178 506 -203 b 560 -257 551 -218 560 -236 b 535 -331 560 -279 551 -306 z "},"L":{"ha":957,"x_min":0,"x_max":0,"o":"m 819 -14 l 836 -14 l 901 190 l 893 190 b 650 29 851 108 786 29 l 422 29 b 313 178 333 29 313 72 l 313 794 b 414 965 313 900 324 944 l 414 972 l 111 972 l 111 965 b 213 794 201 944 213 900 l 213 178 b 111 7 213 72 201 28 l 111 0 l 676 0 b 819 -14 781 0 785 0 z "},"Ĺ":{"ha":957,"x_min":0,"x_max":0,"o":"m 150 1057 l 163 1057 l 350 1176 b 381 1221 372 1190 381 1206 b 339 1260 381 1242 363 1260 b 289 1232 322 1260 304 1251 z m 819 -14 l 836 -14 l 901 190 l 893 190 b 650 29 851 108 786 29 l 422 29 b 313 178 333 29 313 72 l 313 794 b 414 965 313 900 324 944 l 414 972 l 111 972 l 111 965 b 213 794 201 944 213 900 l 213 178 b 111 7 213 72 201 28 l 111 0 l 676 0 b 819 -14 781 0 785 0 z "},"Ľ":{"ha":957,"x_min":0,"x_max":0,"o":"m 819 -14 l 836 -14 l 901 190 l 893 190 b 650 29 851 108 786 29 l 422 29 b 313 178 333 29 313 72 l 313 794 b 414 965 313 900 324 944 l 414 972 l 111 972 l 111 965 b 213 794 201 944 213 900 l 213 178 b 111 7 213 72 201 28 l 111 0 l 676 0 b 819 -14 781 0 785 0 z m 510 721 l 514 721 b 596 896 550 758 596 839 b 588 931 596 910 593 921 b 528 971 578 954 554 971 b 461 904 489 971 461 940 b 510 840 461 874 481 849 b 535 794 526 833 535 815 b 510 721 535 772 526 746 z "},"Ļ":{"ha":957,"x_min":0,"x_max":0,"o":"m 819 -14 l 836 -14 l 901 190 l 893 190 b 650 29 851 108 786 29 l 422 29 b 313 178 333 29 313 72 l 313 794 b 414 965 313 900 324 944 l 414 972 l 111 972 l 111 965 b 213 794 201 944 213 900 l 213 178 b 111 7 213 72 201 28 l 111 0 l 676 0 b 819 -14 781 0 785 0 z m 513 -331 l 517 -331 b 599 -156 553 -293 599 -212 b 590 -121 599 -142 596 -131 b 531 -81 581 -97 557 -81 b 464 -147 492 -81 464 -111 b 513 -211 464 -178 483 -203 b 538 -257 529 -218 538 -236 b 513 -331 538 -279 529 -306 z "},"Ł":{"ha":957,"x_min":0,"x_max":0,"o":"m 893 190 b 650 29 851 108 786 29 l 422 29 b 313 178 333 29 313 72 l 313 517 l 457 693 l 417 693 l 313 565 l 313 794 b 414 965 313 900 324 944 l 414 972 l 111 972 l 111 965 b 213 794 201 944 213 900 l 213 442 l 71 268 l 110 268 l 213 394 l 213 178 b 111 7 213 72 201 28 l 111 0 l 676 0 b 819 -14 781 0 785 0 l 836 -14 l 901 190 z "},"M":{"ha":1394,"x_min":0,"x_max":0,"o":"m 111 0 l 344 0 l 344 7 b 243 161 265 24 243 58 l 243 849 l 658 0 l 689 0 l 1082 892 l 1082 178 b 981 7 1082 72 1071 28 l 981 0 l 1283 0 l 1283 7 b 1182 178 1193 28 1182 72 l 1182 794 b 1283 965 1182 900 1193 944 l 1283 972 l 1082 972 l 708 122 l 293 972 l 111 972 l 111 965 b 213 811 188 949 213 914 l 213 161 b 111 7 213 58 188 24 z "},"N":{"ha":1135,"x_min":0,"x_max":0,"o":"m 111 0 l 344 0 l 344 7 b 243 161 265 24 243 58 l 243 886 l 906 0 l 936 0 l 936 811 b 1038 965 936 914 958 949 l 1038 972 l 804 972 l 804 965 b 906 811 881 949 906 914 l 906 167 l 304 972 l 111 972 l 111 965 b 213 811 188 949 213 914 l 213 161 b 111 7 213 58 188 24 z "},"Ń":{"ha":1135,"x_min":0,"x_max":0,"o":"m 519 1057 l 532 1057 l 719 1176 b 750 1221 742 1190 750 1206 b 708 1260 750 1242 732 1260 b 658 1232 692 1260 674 1251 z m 111 0 l 344 0 l 344 7 b 243 161 265 24 243 58 l 243 886 l 906 0 l 936 0 l 936 811 b 1038 965 936 914 958 949 l 1038 972 l 804 972 l 804 965 b 906 811 881 949 906 914 l 906 167 l 304 972 l 111 972 l 111 965 b 213 811 188 949 213 914 l 213 161 b 111 7 213 58 188 24 z "},"Ň":{"ha":1135,"x_min":0,"x_max":0,"o":"m 554 1057 b 563 1058 557 1057 560 1057 b 603 1085 575 1060 590 1068 l 742 1260 l 729 1260 l 554 1147 l 378 1260 l 365 1260 l 504 1085 b 544 1058 517 1068 532 1060 b 554 1057 547 1057 550 1057 z m 111 0 l 344 0 l 344 7 b 243 161 265 24 243 58 l 243 886 l 906 0 l 936 0 l 936 811 b 1038 965 936 914 958 949 l 1038 972 l 804 972 l 804 965 b 906 811 881 949 906 914 l 906 167 l 304 972 l 111 972 l 111 965 b 213 811 188 949 213 914 l 213 161 b 111 7 213 58 188 24 z "},"Ņ":{"ha":1135,"x_min":0,"x_max":0,"o":"m 111 0 l 344 0 l 344 7 b 243 161 265 24 243 58 l 243 886 l 906 0 l 936 0 l 936 811 b 1038 965 936 914 958 949 l 1038 972 l 804 972 l 804 965 b 906 811 881 949 906 914 l 906 167 l 304 972 l 111 972 l 111 965 b 213 811 188 949 213 914 l 213 161 b 111 7 213 58 188 24 z m 538 -337 l 542 -337 b 624 -162 578 -300 624 -219 b 615 -128 624 -149 621 -137 b 556 -87 606 -104 582 -87 b 489 -154 517 -87 489 -118 b 538 -218 489 -185 508 -210 b 563 -264 554 -225 563 -243 b 538 -337 563 -286 554 -312 z "},"Ŋ":{"ha":1135,"x_min":0,"x_max":0,"o":"m 739 -292 b 936 -79 875 -292 936 -208 l 936 811 b 1038 965 936 914 958 949 l 1038 972 l 804 972 l 804 965 b 906 811 881 949 906 914 l 906 167 l 304 972 l 111 972 l 111 965 b 213 811 188 949 213 914 l 213 161 b 111 7 213 58 188 24 l 111 0 l 344 0 l 344 7 b 243 161 265 24 243 58 l 243 886 l 906 0 l 906 -90 b 739 -286 906 -181 864 -286 z "},"Ñ":{"ha":1135,"x_min":0,"x_max":0,"o":"m 375 1057 l 386 1057 b 444 1124 388 1107 411 1124 b 700 1060 513 1124 624 1060 b 783 1171 749 1060 783 1086 l 775 1171 b 721 1119 772 1132 751 1119 b 465 1178 654 1119 543 1178 b 375 1057 413 1178 374 1150 z m 111 0 l 344 0 l 344 7 b 243 161 265 24 243 58 l 243 886 l 906 0 l 936 0 l 936 811 b 1038 965 936 914 958 949 l 1038 972 l 804 972 l 804 965 b 906 811 881 949 906 914 l 906 167 l 304 972 l 111 972 l 111 965 b 213 811 188 949 213 914 l 213 161 b 111 7 213 58 188 24 z "},"O":{"ha":1272,"x_min":0,"x_max":0,"o":"m 635 -14 b 1175 485 907 -14 1175 163 b 636 986 1175 807 908 986 b 97 485 365 986 97 807 b 635 -14 97 161 365 -14 z m 671 19 b 200 482 453 19 224 169 b 197 536 199 500 197 518 b 601 953 197 814 392 953 b 1072 490 819 953 1049 803 b 1075 436 1074 472 1075 454 b 671 19 1075 158 881 19 z "},"Ó":{"ha":1272,"x_min":0,"x_max":0,"o":"m 517 1056 l 529 1056 l 717 1175 b 747 1219 739 1189 747 1204 b 706 1258 747 1240 729 1258 b 656 1231 689 1258 671 1250 z m 635 -14 b 1175 485 907 -14 1175 163 b 636 986 1175 807 908 986 b 97 485 365 986 97 807 b 635 -14 97 161 365 -14 z m 671 19 b 200 482 453 19 224 169 b 197 536 199 500 197 518 b 601 953 197 814 392 953 b 1072 490 819 953 1049 803 b 1075 436 1074 472 1075 454 b 671 19 1075 158 881 19 z "},"Ô":{"ha":1272,"x_min":0,"x_max":0,"o":"m 429 1054 l 442 1054 l 618 1167 l 793 1054 l 806 1054 l 667 1229 b 626 1256 654 1246 639 1254 b 618 1257 624 1257 621 1257 b 608 1256 614 1257 611 1257 b 568 1229 596 1254 581 1246 z m 635 -14 b 1175 485 907 -14 1175 163 b 636 986 1175 807 908 986 b 97 485 365 986 97 807 b 635 -14 97 161 365 -14 z m 671 19 b 200 482 453 19 224 169 b 197 536 199 500 197 518 b 601 953 197 814 392 953 b 1072 490 819 953 1049 803 b 1075 436 1074 472 1075 454 b 671 19 1075 158 881 19 z "},"Ö":{"ha":1272,"x_min":0,"x_max":0,"o":"m 497 1057 b 565 1125 536 1057 565 1086 b 494 1193 565 1164 535 1193 b 429 1125 457 1193 429 1161 b 497 1057 429 1086 458 1057 z m 728 1057 b 796 1125 765 1057 796 1086 b 728 1192 796 1163 765 1192 b 660 1125 689 1192 660 1163 b 728 1057 660 1086 689 1057 z m 635 -14 b 1175 485 907 -14 1175 163 b 636 986 1175 807 908 986 b 97 485 365 986 97 807 b 635 -14 97 161 365 -14 z m 671 19 b 200 482 453 19 224 169 b 197 536 199 500 197 518 b 601 953 197 814 392 953 b 1072 490 819 953 1049 803 b 1075 436 1074 472 1075 454 b 671 19 1075 158 881 19 z "},"Ò":{"ha":1272,"x_min":0,"x_max":0,"o":"m 658 1056 l 671 1056 l 532 1231 b 482 1258 517 1250 499 1258 b 440 1219 460 1258 440 1242 b 471 1175 440 1206 449 1189 z m 635 -14 b 1175 485 907 -14 1175 163 b 636 986 1175 807 908 986 b 97 485 365 986 97 807 b 635 -14 97 161 365 -14 z m 671 19 b 200 482 453 19 224 169 b 197 536 199 500 197 518 b 601 953 197 814 392 953 b 1072 490 819 953 1049 803 b 1075 436 1074 472 1075 454 b 671 19 1075 158 881 19 z "},"Ő":{"ha":1272,"x_min":0,"x_max":0,"o":"m 468 1056 l 481 1056 l 668 1175 b 699 1219 690 1189 699 1204 b 657 1258 699 1240 681 1258 b 607 1231 640 1258 622 1250 z m 621 1056 l 633 1056 l 821 1175 b 851 1219 843 1189 851 1204 b 810 1258 851 1240 833 1258 b 760 1231 793 1258 775 1250 z m 635 -14 b 1175 485 907 -14 1175 163 b 636 986 1175 807 908 986 b 97 485 365 986 97 807 b 635 -14 97 161 365 -14 z m 671 19 b 200 482 453 19 224 169 b 197 536 199 500 197 518 b 601 953 197 814 392 953 b 1072 490 819 953 1049 803 b 1075 436 1074 472 1075 454 b 671 19 1075 158 881 19 z "},"Ō":{"ha":1272,"x_min":0,"x_max":0,"o":"m 426 1058 l 835 1058 l 835 1106 l 426 1106 z m 635 -14 b 1175 485 907 -14 1175 163 b 636 986 1175 807 908 986 b 97 485 365 986 97 807 b 635 -14 97 161 365 -14 z m 671 19 b 200 482 453 19 224 169 b 197 536 199 500 197 518 b 601 953 197 814 392 953 b 1072 490 819 953 1049 803 b 1075 436 1074 472 1075 454 b 671 19 1075 158 881 19 z "},"Ø":{"ha":1272,"x_min":0,"x_max":0,"o":"m 993 868 l 1101 986 l 1075 986 l 978 879 b 636 986 882 950 760 986 b 97 485 365 986 97 807 b 276 106 97 317 169 189 l 168 -14 l 193 -14 l 290 94 b 635 -14 388 22 511 -14 b 1175 485 907 -14 1175 163 b 993 868 1175 653 1103 782 z m 200 482 b 197 536 199 500 197 518 b 601 953 197 814 392 953 b 926 822 718 953 838 910 l 331 165 b 200 482 260 240 210 346 z m 671 19 b 343 151 554 19 433 63 l 940 808 b 1072 490 1013 733 1063 628 b 1075 436 1074 472 1075 454 b 671 19 1075 158 881 19 z "},"Õ":{"ha":1272,"x_min":0,"x_max":0,"o":"m 422 1054 l 433 1054 b 492 1121 435 1104 458 1121 b 747 1057 560 1121 671 1057 b 831 1168 796 1057 831 1083 l 822 1168 b 768 1117 819 1129 799 1117 b 513 1175 701 1117 590 1175 b 422 1054 460 1175 421 1147 z m 635 -14 b 1175 485 907 -14 1175 163 b 636 986 1175 807 908 986 b 97 485 365 986 97 807 b 635 -14 97 161 365 -14 z m 671 19 b 200 482 453 19 224 169 b 197 536 199 500 197 518 b 601 953 197 814 392 953 b 1072 490 819 953 1049 803 b 1075 436 1074 472 1075 454 b 671 19 1075 158 881 19 z "},"Œ":{"ha":1846,"x_min":0,"x_max":0,"o":"m 635 -14 b 1074 274 842 -14 1007 85 l 1074 178 b 972 7 1074 72 1063 28 l 972 0 l 1551 0 b 1694 -14 1656 0 1660 0 l 1711 -14 l 1776 190 l 1768 190 b 1525 29 1726 108 1661 29 l 1283 29 b 1174 178 1194 29 1174 72 l 1174 483 l 1403 483 b 1542 372 1446 483 1518 478 l 1549 372 l 1549 626 l 1542 626 b 1403 514 1518 519 1446 514 l 1174 514 l 1174 794 b 1283 943 1174 900 1194 943 l 1483 943 b 1713 783 1619 943 1671 865 l 1721 783 l 1671 986 l 1654 986 b 1510 972 1619 972 1614 972 l 972 972 l 972 965 b 1074 794 1063 944 1074 900 l 1074 665 b 613 985 1006 853 835 985 b 97 485 349 985 97 797 b 635 -14 97 161 365 -14 z m 671 19 b 200 482 453 19 224 169 b 197 536 199 500 197 518 b 601 953 197 814 392 953 b 1068 504 833 953 1044 817 b 1071 450 1069 486 1071 468 b 671 19 1071 172 881 19 z "},"P":{"ha":968,"x_min":0,"x_max":0,"o":"m 111 0 l 414 0 l 414 7 b 313 178 324 28 313 72 l 313 494 b 569 432 408 450 494 432 b 899 719 779 432 899 578 b 539 972 899 899 763 972 l 111 972 l 111 965 b 213 794 201 944 213 900 l 213 178 b 111 7 213 72 201 28 z m 540 464 b 313 515 478 464 401 479 l 313 794 b 422 943 313 900 333 943 l 539 943 b 797 731 713 943 797 874 b 540 464 797 589 721 464 z "},"Þ":{"ha":1065,"x_min":0,"x_max":0,"o":"m 111 0 l 414 0 l 414 7 b 313 178 324 28 313 72 l 313 494 b 569 432 408 450 494 432 b 899 719 779 432 899 578 b 539 972 899 899 763 972 l 318 972 b 414 1063 326 1022 351 1049 l 414 1069 l 111 1069 l 111 1063 b 213 892 201 1042 213 997 l 213 178 b 111 7 213 72 201 28 z m 540 464 b 313 515 478 464 401 479 l 313 892 b 314 943 313 911 313 928 l 539 943 b 797 731 713 943 797 874 b 540 464 797 589 721 464 z "},"Q":{"ha":1272,"x_min":0,"x_max":0,"o":"m 635 -14 b 1175 485 907 -14 1175 163 b 636 986 1175 807 908 986 b 97 485 365 986 97 807 b 635 -14 97 161 365 -14 z m 671 19 b 200 482 453 19 224 169 b 197 536 199 500 197 518 b 601 953 197 814 392 953 b 1072 490 819 953 1049 803 b 1075 436 1074 472 1075 454 b 671 19 1075 158 881 19 z m 1185 -346 b 1394 -215 1265 -346 1338 -311 l 1378 -206 b 1242 -283 1343 -261 1296 -283 b 507 -6 1044 -283 744 -6 b 261 -175 411 -6 326 -50 l 279 -181 b 457 -62 325 -94 388 -62 b 1185 -346 667 -62 958 -346 z "},"R":{"ha":1108,"x_min":0,"x_max":0,"o":"m 935 -1 b 1039 0 961 -1 994 0 l 1039 14 b 844 156 976 24 935 44 l 590 472 b 872 719 779 492 872 585 b 511 972 872 874 754 972 l 111 972 l 111 965 b 213 794 201 944 213 900 l 213 178 b 111 7 213 72 201 28 l 111 0 l 414 0 l 414 7 b 313 178 324 28 313 72 l 313 468 l 469 468 l 764 101 b 935 -1 836 11 856 -1 z m 313 497 l 313 794 b 422 943 313 900 333 943 l 511 943 b 764 725 693 943 764 868 b 511 497 764 578 696 497 z "},"Ŕ":{"ha":1108,"x_min":0,"x_max":0,"o":"m 421 1056 l 433 1056 l 621 1175 b 651 1219 643 1189 651 1204 b 610 1258 651 1240 633 1258 b 560 1231 593 1258 575 1250 z m 935 -1 b 1039 0 961 -1 994 0 l 1039 14 b 844 156 976 24 935 44 l 590 472 b 872 719 779 492 872 585 b 511 972 872 874 754 972 l 111 972 l 111 965 b 213 794 201 944 213 900 l 213 178 b 111 7 213 72 201 28 l 111 0 l 414 0 l 414 7 b 313 178 324 28 313 72 l 313 468 l 469 468 l 764 101 b 935 -1 836 11 856 -1 z m 313 497 l 313 794 b 422 943 313 900 333 943 l 511 943 b 764 725 693 943 764 868 b 511 497 764 578 696 497 z "},"Ř":{"ha":1108,"x_min":0,"x_max":0,"o":"m 522 1054 b 531 1056 525 1054 528 1054 b 571 1082 543 1057 558 1065 l 710 1257 l 697 1257 l 522 1144 l 346 1257 l 333 1257 l 472 1082 b 513 1056 485 1065 500 1057 b 522 1054 515 1054 518 1054 z m 935 -1 b 1039 0 961 -1 994 0 l 1039 14 b 844 156 976 24 935 44 l 590 472 b 872 719 779 492 872 585 b 511 972 872 874 754 972 l 111 972 l 111 965 b 213 794 201 944 213 900 l 213 178 b 111 7 213 72 201 28 l 111 0 l 414 0 l 414 7 b 313 178 324 28 313 72 l 313 468 l 469 468 l 764 101 b 935 -1 836 11 856 -1 z m 313 497 l 313 794 b 422 943 313 900 333 943 l 511 943 b 764 725 693 943 764 868 b 511 497 764 578 696 497 z "},"Ŗ":{"ha":1108,"x_min":0,"x_max":0,"o":"m 935 -1 b 1039 0 961 -1 994 0 l 1039 14 b 844 156 976 24 935 44 l 590 472 b 872 719 779 492 872 585 b 511 972 872 874 754 972 l 111 972 l 111 965 b 213 794 201 944 213 900 l 213 178 b 111 7 213 72 201 28 l 111 0 l 414 0 l 414 7 b 313 178 324 28 313 72 l 313 468 l 469 468 l 764 101 b 935 -1 836 11 856 -1 z m 313 497 l 313 794 b 422 943 313 900 333 943 l 511 943 b 764 725 693 943 764 868 b 511 497 764 578 696 497 z m 556 -324 l 560 -324 b 642 -149 596 -286 642 -206 b 633 -114 642 -135 639 -124 b 574 -74 624 -90 600 -74 b 507 -140 535 -74 507 -104 b 556 -204 507 -171 526 -196 b 581 -250 572 -211 581 -229 b 556 -324 581 -272 572 -299 z "},"S":{"ha":874,"x_min":0,"x_max":0,"o":"m 464 -15 b 790 250 639 -15 790 72 b 185 775 790 603 185 515 b 433 961 185 890 311 961 b 635 863 515 961 594 931 b 715 761 664 815 660 761 b 761 806 747 761 761 783 b 689 911 763 842 735 879 b 443 986 621 963 532 986 b 114 735 276 986 114 899 b 729 233 114 425 701 483 b 731 213 731 226 731 219 b 481 18 731 88 613 18 b 228 140 382 18 286 57 b 132 239 197 183 179 239 b 83 192 103 239 83 215 b 147 93 83 154 110 124 b 464 -15 238 19 351 -15 z "},"Ś":{"ha":874,"x_min":0,"x_max":0,"o":"m 367 1060 l 379 1060 l 567 1179 b 597 1224 589 1193 597 1208 b 556 1263 597 1244 579 1263 b 506 1235 539 1263 521 1254 z m 464 -15 b 790 250 639 -15 790 72 b 185 775 790 603 185 515 b 433 961 185 890 311 961 b 635 863 515 961 594 931 b 715 761 664 815 660 761 b 761 806 747 761 761 783 b 689 911 763 842 735 879 b 443 986 621 963 532 986 b 114 735 276 986 114 899 b 729 233 114 425 701 483 b 731 213 731 226 731 219 b 481 18 731 88 613 18 b 228 140 382 18 286 57 b 132 239 197 183 179 239 b 83 192 103 239 83 215 b 147 93 83 154 110 124 b 464 -15 238 19 351 -15 z "},"Š":{"ha":874,"x_min":0,"x_max":0,"o":"m 442 1051 b 450 1053 444 1051 447 1051 b 490 1079 463 1054 478 1063 l 629 1254 l 617 1254 l 442 1142 l 265 1254 l 253 1254 l 392 1079 b 432 1053 404 1063 419 1054 b 442 1051 435 1051 438 1051 z m 464 -15 b 790 250 639 -15 790 72 b 185 775 790 603 185 515 b 433 961 185 890 311 961 b 635 863 515 961 594 931 b 715 761 664 815 660 761 b 761 806 747 761 761 783 b 689 911 763 842 735 879 b 443 986 621 963 532 986 b 114 735 276 986 114 899 b 729 233 114 425 701 483 b 731 213 731 226 731 219 b 481 18 731 88 613 18 b 228 140 382 18 286 57 b 132 239 197 183 179 239 b 83 192 103 239 83 215 b 147 93 83 154 110 124 b 464 -15 238 19 351 -15 z "},"Ş":{"ha":874,"x_min":0,"x_max":0,"o":"m 790 250 b 185 775 790 603 185 515 b 433 961 185 890 311 961 b 635 863 515 961 594 931 b 715 761 664 815 660 761 b 761 806 747 761 761 783 b 689 911 763 842 735 879 b 443 986 621 963 532 986 b 114 735 276 986 114 899 b 729 233 114 425 701 483 b 731 213 731 226 731 219 b 481 18 731 88 613 18 b 228 140 382 18 286 57 b 132 239 197 183 179 239 b 83 192 103 239 83 215 b 147 93 83 154 110 124 b 444 -15 232 24 339 -11 l 361 -96 b 399 -90 375 -92 388 -90 b 478 -175 453 -90 478 -132 b 410 -257 478 -215 456 -254 b 306 -228 385 -258 349 -258 l 300 -233 b 429 -283 333 -267 382 -283 b 571 -167 503 -283 571 -244 b 460 -69 571 -129 531 -69 b 439 -71 453 -69 446 -69 l 467 -15 b 790 250 640 -14 790 74 z "},"Ș":{"ha":874,"x_min":0,"x_max":0,"o":"m 464 -15 b 790 250 639 -15 790 72 b 185 775 790 603 185 515 b 433 961 185 890 311 961 b 635 863 515 961 594 931 b 715 761 664 815 660 761 b 761 806 747 761 761 783 b 689 911 763 842 735 879 b 443 986 621 963 532 986 b 114 735 276 986 114 899 b 729 233 114 425 701 483 b 731 213 731 226 731 219 b 481 18 731 88 613 18 b 228 140 382 18 286 57 b 132 239 197 183 179 239 b 83 192 103 239 83 215 b 147 93 83 154 110 124 b 464 -15 238 19 351 -15 z m 440 -324 l 444 -324 b 526 -149 481 -286 526 -206 b 518 -114 526 -135 524 -124 b 458 -74 508 -90 485 -74 b 392 -140 419 -74 392 -104 b 440 -204 392 -171 411 -196 b 465 -250 457 -211 465 -229 b 440 -324 465 -272 457 -299 z "},"T":{"ha":1056,"x_min":0,"x_max":0,"o":"m 376 0 l 679 0 l 679 7 b 578 178 589 28 578 72 l 578 794 b 688 943 578 900 599 943 l 763 943 b 964 783 899 943 922 865 l 972 783 l 922 986 l 906 986 b 761 972 871 972 865 972 l 294 972 b 150 986 190 972 185 972 l 133 986 l 83 783 l 92 783 b 293 943 133 865 157 943 l 376 943 b 478 794 458 943 478 900 l 478 178 b 376 7 478 72 467 28 z "},"Ŧ":{"ha":1056,"x_min":0,"x_max":0,"o":"m 922 986 l 906 986 b 761 972 871 972 865 972 l 294 972 b 150 986 190 972 185 972 l 133 986 l 83 783 l 92 783 b 293 943 133 865 157 943 l 376 943 b 478 794 458 943 478 900 l 478 456 l 326 456 l 326 424 l 478 424 l 478 178 b 376 7 478 72 467 28 l 376 0 l 679 0 l 679 7 b 578 178 589 28 578 72 l 578 424 l 728 424 l 728 456 l 578 456 l 578 794 b 688 943 578 900 599 943 l 763 943 b 964 783 899 943 922 865 l 972 783 z "},"Ť":{"ha":1056,"x_min":0,"x_max":0,"o":"m 539 1057 b 547 1058 542 1057 544 1057 b 588 1085 560 1060 575 1068 l 726 1260 l 714 1260 l 539 1147 l 363 1260 l 350 1260 l 489 1085 b 529 1058 501 1068 517 1060 b 539 1057 532 1057 535 1057 z m 376 0 l 679 0 l 679 7 b 578 178 589 28 578 72 l 578 794 b 688 943 578 900 599 943 l 763 943 b 964 783 899 943 922 865 l 972 783 l 922 986 l 906 986 b 761 972 871 972 865 972 l 294 972 b 150 986 190 972 185 972 l 133 986 l 83 783 l 92 783 b 293 943 133 865 157 943 l 376 943 b 478 794 458 943 478 900 l 478 178 b 376 7 478 72 467 28 z "},"Ţ":{"ha":1056,"x_min":0,"x_max":0,"o":"m 922 986 l 906 986 b 761 972 871 972 865 972 l 294 972 b 150 986 190 972 185 972 l 133 986 l 83 783 l 92 783 b 293 943 133 865 157 943 l 376 943 b 478 794 458 943 478 900 l 478 178 b 376 7 478 72 467 28 l 376 0 l 533 0 l 451 -79 b 489 -74 465 -75 478 -74 b 568 -158 543 -74 568 -115 b 500 -240 568 -199 546 -237 b 396 -211 475 -242 439 -242 l 390 -217 b 519 -267 424 -250 472 -267 b 661 -150 593 -267 661 -228 b 550 -53 661 -112 621 -53 b 529 -54 543 -53 536 -53 l 557 0 l 679 0 l 679 7 b 578 178 589 28 578 72 l 578 794 b 688 943 578 900 599 943 l 763 943 b 964 783 899 943 922 865 l 972 783 z "},"Ț":{"ha":1056,"x_min":0,"x_max":0,"o":"m 376 0 l 679 0 l 679 7 b 578 178 589 28 578 72 l 578 794 b 688 943 578 900 599 943 l 763 943 b 964 783 899 943 922 865 l 972 783 l 922 986 l 906 986 b 761 972 871 972 865 972 l 294 972 b 150 986 190 972 185 972 l 133 986 l 83 783 l 92 783 b 293 943 133 865 157 943 l 376 943 b 478 794 458 943 478 900 l 478 178 b 376 7 478 72 467 28 z m 511 -329 l 515 -329 b 597 -154 551 -292 597 -211 b 589 -119 597 -140 594 -129 b 529 -79 579 -96 556 -79 b 463 -146 490 -79 463 -110 b 511 -210 463 -176 482 -201 b 536 -256 528 -217 536 -235 b 511 -329 536 -278 528 -304 z "},"U":{"ha":1094,"x_min":0,"x_max":0,"o":"m 565 -14 b 896 358 724 -14 896 85 l 896 811 b 997 965 896 914 918 949 l 997 972 l 761 972 l 761 965 b 863 811 838 949 863 914 l 863 360 b 576 19 863 132 735 19 b 299 374 404 19 299 128 l 299 794 b 400 965 299 900 310 944 l 400 972 l 97 972 l 97 965 b 199 794 188 944 199 900 l 199 375 b 565 -14 199 83 399 -14 z "},"Ú":{"ha":1094,"x_min":0,"x_max":0,"o":"m 507 1056 l 519 1056 l 707 1175 b 738 1219 729 1189 738 1204 b 696 1258 738 1240 719 1258 b 646 1231 679 1258 661 1250 z m 565 -14 b 896 358 724 -14 896 85 l 896 811 b 997 965 896 914 918 949 l 997 972 l 761 972 l 761 965 b 863 811 838 949 863 914 l 863 360 b 576 19 863 132 735 19 b 299 374 404 19 299 128 l 299 794 b 400 965 299 900 310 944 l 400 972 l 97 972 l 97 965 b 199 794 188 944 199 900 l 199 375 b 565 -14 199 83 399 -14 z "},"Û":{"ha":1094,"x_min":0,"x_max":0,"o":"m 394 1053 l 407 1053 l 583 1165 l 758 1053 l 771 1053 l 632 1228 b 592 1254 619 1244 604 1253 b 583 1256 589 1256 586 1256 b 574 1254 579 1256 576 1256 b 533 1228 561 1253 546 1244 z m 565 -14 b 896 358 724 -14 896 85 l 896 811 b 997 965 896 914 918 949 l 997 972 l 761 972 l 761 965 b 863 811 838 949 863 914 l 863 360 b 576 19 863 132 735 19 b 299 374 404 19 299 128 l 299 794 b 400 965 299 900 310 944 l 400 972 l 97 972 l 97 965 b 199 794 188 944 199 900 l 199 375 b 565 -14 199 83 399 -14 z "},"Ü":{"ha":1094,"x_min":0,"x_max":0,"o":"m 475 1054 b 543 1122 514 1054 543 1083 b 472 1190 543 1161 513 1190 b 407 1122 435 1190 407 1158 b 475 1054 407 1083 436 1054 z m 706 1054 b 774 1122 743 1054 774 1083 b 706 1189 774 1160 743 1189 b 638 1122 667 1189 638 1160 b 706 1054 638 1083 667 1054 z m 565 -14 b 896 358 724 -14 896 85 l 896 811 b 997 965 896 914 918 949 l 997 972 l 761 972 l 761 965 b 863 811 838 949 863 914 l 863 360 b 576 19 863 132 735 19 b 299 374 404 19 299 128 l 299 794 b 400 965 299 900 310 944 l 400 972 l 97 972 l 97 965 b 199 794 188 944 199 900 l 199 375 b 565 -14 199 83 399 -14 z "},"Ù":{"ha":1094,"x_min":0,"x_max":0,"o":"m 688 1057 l 700 1057 l 561 1232 b 511 1260 546 1251 528 1260 b 469 1221 489 1260 469 1243 b 500 1176 469 1207 478 1190 z m 565 -14 b 896 358 724 -14 896 85 l 896 811 b 997 965 896 914 918 949 l 997 972 l 761 972 l 761 965 b 863 811 838 949 863 914 l 863 360 b 576 19 863 132 735 19 b 299 374 404 19 299 128 l 299 794 b 400 965 299 900 310 944 l 400 972 l 97 972 l 97 965 b 199 794 188 944 199 900 l 199 375 b 565 -14 199 83 399 -14 z "},"Ű":{"ha":1094,"x_min":0,"x_max":0,"o":"m 450 1054 l 463 1054 l 650 1174 b 681 1218 672 1188 681 1203 b 639 1257 681 1239 663 1257 b 589 1229 622 1257 604 1249 z m 603 1054 l 615 1054 l 803 1174 b 833 1218 825 1188 833 1203 b 792 1257 833 1239 815 1257 b 742 1229 775 1257 757 1249 z m 565 -14 b 896 358 724 -14 896 85 l 896 811 b 997 965 896 914 918 949 l 997 972 l 761 972 l 761 965 b 863 811 838 949 863 914 l 863 360 b 576 19 863 132 735 19 b 299 374 404 19 299 128 l 299 794 b 400 965 299 900 310 944 l 400 972 l 97 972 l 97 965 b 199 794 188 944 199 900 l 199 375 b 565 -14 199 83 399 -14 z "},"Ū":{"ha":1094,"x_min":0,"x_max":0,"o":"m 367 1058 l 775 1058 l 775 1106 l 367 1106 z m 565 -14 b 896 358 724 -14 896 85 l 896 811 b 997 965 896 914 918 949 l 997 972 l 761 972 l 761 965 b 863 811 838 949 863 914 l 863 360 b 576 19 863 132 735 19 b 299 374 404 19 299 128 l 299 794 b 400 965 299 900 310 944 l 400 972 l 97 972 l 97 965 b 199 794 188 944 199 900 l 199 375 b 565 -14 199 83 399 -14 z "},"Ų":{"ha":1094,"x_min":0,"x_max":0,"o":"m 761 972 l 761 965 b 863 811 838 949 863 914 l 863 360 b 576 19 863 132 735 19 b 299 374 404 19 299 128 l 299 794 b 400 965 299 900 310 944 l 400 972 l 97 972 l 97 965 b 199 794 188 944 199 900 l 199 375 b 535 -12 199 101 375 -1 b 440 -192 467 -86 440 -147 b 535 -276 440 -246 481 -276 b 686 -206 581 -276 636 -254 l 683 -187 b 581 -239 643 -224 607 -239 b 510 -146 535 -239 510 -199 b 558 -14 510 -106 525 -57 l 565 -14 b 896 358 724 -14 896 85 l 896 811 b 997 965 896 914 918 949 l 997 972 z "},"Ů":{"ha":1094,"x_min":0,"x_max":0,"o":"m 575 1051 b 707 1183 647 1051 707 1111 b 575 1315 707 1256 647 1315 b 443 1183 503 1315 443 1256 b 575 1051 443 1111 503 1051 z m 575 1088 b 481 1183 524 1088 481 1131 b 578 1279 481 1235 525 1279 b 669 1183 628 1279 669 1233 b 575 1088 669 1131 626 1088 z m 565 -14 b 896 358 724 -14 896 85 l 896 811 b 997 965 896 914 918 949 l 997 972 l 761 972 l 761 965 b 863 811 838 949 863 914 l 863 360 b 576 19 863 132 735 19 b 299 374 404 19 299 128 l 299 794 b 400 965 299 900 310 944 l 400 972 l 97 972 l 97 965 b 199 794 188 944 199 900 l 199 375 b 565 -14 199 83 399 -14 z "},"V":{"ha":1090,"x_min":0,"x_max":0,"o":"m 508 0 l 590 0 l 893 811 b 1035 965 929 910 957 946 l 1035 972 l 799 972 l 799 965 b 878 897 851 956 878 938 b 857 811 878 875 871 847 l 583 81 l 313 794 b 286 897 297 836 286 871 b 358 965 286 933 306 956 l 358 972 l 56 972 l 56 965 b 206 794 138 944 168 893 z "},"W":{"ha":1563,"x_min":0,"x_max":0,"o":"m 494 0 l 576 0 l 800 626 l 994 0 l 1076 0 l 1365 811 b 1507 965 1400 910 1429 946 l 1507 972 l 1271 972 l 1271 965 b 1349 897 1324 956 1349 938 b 1329 811 1349 875 1343 847 l 1071 88 l 851 794 b 829 897 839 836 829 871 b 900 965 829 933 847 956 l 900 972 l 597 972 l 597 965 b 747 794 679 944 715 894 l 782 682 l 569 83 l 313 794 b 286 897 297 836 286 871 b 358 965 286 933 306 956 l 358 972 l 56 972 l 56 965 b 206 794 138 944 169 893 z "},"Ẃ":{"ha":1563,"x_min":0,"x_max":0,"o":"m 665 1056 l 678 1056 l 865 1175 b 896 1219 888 1189 896 1204 b 854 1258 896 1240 878 1258 b 804 1231 838 1258 819 1250 z m 494 0 l 576 0 l 800 626 l 994 0 l 1076 0 l 1365 811 b 1507 965 1400 910 1429 946 l 1507 972 l 1271 972 l 1271 965 b 1349 897 1324 956 1349 938 b 1329 811 1349 875 1343 847 l 1071 88 l 851 794 b 829 897 839 836 829 871 b 900 965 829 933 847 956 l 900 972 l 597 972 l 597 965 b 747 794 679 944 715 894 l 782 682 l 569 83 l 313 794 b 286 897 297 836 286 871 b 358 965 286 933 306 956 l 358 972 l 56 972 l 56 965 b 206 794 138 944 169 893 z "},"Ŵ":{"ha":1563,"x_min":0,"x_max":0,"o":"m 607 1053 l 619 1053 l 796 1165 l 971 1053 l 983 1053 l 844 1228 b 804 1254 832 1244 817 1253 b 796 1256 801 1256 799 1256 b 786 1254 792 1256 789 1256 b 746 1228 774 1253 758 1244 z m 494 0 l 576 0 l 800 626 l 994 0 l 1076 0 l 1365 811 b 1507 965 1400 910 1429 946 l 1507 972 l 1271 972 l 1271 965 b 1349 897 1324 956 1349 938 b 1329 811 1349 875 1343 847 l 1071 88 l 851 794 b 829 897 839 836 829 871 b 900 965 829 933 847 956 l 900 972 l 597 972 l 597 965 b 747 794 679 944 715 894 l 782 682 l 569 83 l 313 794 b 286 897 297 836 286 871 b 358 965 286 933 306 956 l 358 972 l 56 972 l 56 965 b 206 794 138 944 169 893 z "},"Ẅ":{"ha":1563,"x_min":0,"x_max":0,"o":"m 649 1054 b 717 1122 688 1054 717 1083 b 646 1190 717 1161 686 1190 b 581 1122 608 1190 581 1158 b 649 1054 581 1083 610 1054 z m 879 1054 b 947 1122 917 1054 947 1083 b 879 1189 947 1160 917 1189 b 811 1122 840 1189 811 1160 b 879 1054 811 1083 840 1054 z m 494 0 l 576 0 l 800 626 l 994 0 l 1076 0 l 1365 811 b 1507 965 1400 910 1429 946 l 1507 972 l 1271 972 l 1271 965 b 1349 897 1324 956 1349 938 b 1329 811 1349 875 1343 847 l 1071 88 l 851 794 b 829 897 839 836 829 871 b 900 965 829 933 847 956 l 900 972 l 597 972 l 597 965 b 747 794 679 944 715 894 l 782 682 l 569 83 l 313 794 b 286 897 297 836 286 871 b 358 965 286 933 306 956 l 358 972 l 56 972 l 56 965 b 206 794 138 944 169 893 z "},"Ẁ":{"ha":1563,"x_min":0,"x_max":0,"o":"m 875 1056 l 888 1056 l 749 1231 b 699 1258 733 1250 715 1258 b 657 1219 676 1258 657 1242 b 688 1175 657 1206 665 1189 z m 494 0 l 576 0 l 800 626 l 994 0 l 1076 0 l 1365 811 b 1507 965 1400 910 1429 946 l 1507 972 l 1271 972 l 1271 965 b 1349 897 1324 956 1349 938 b 1329 811 1349 875 1343 847 l 1071 88 l 851 794 b 829 897 839 836 829 871 b 900 965 829 933 847 956 l 900 972 l 597 972 l 597 965 b 747 794 679 944 715 894 l 782 682 l 569 83 l 313 794 b 286 897 297 836 286 871 b 358 965 286 933 306 956 l 358 972 l 56 972 l 56 965 b 206 794 138 944 169 893 z "},"X":{"ha":1097,"x_min":0,"x_max":0,"o":"m 97 0 l 331 0 l 331 7 b 278 50 293 15 278 29 b 331 154 278 75 299 110 l 526 426 l 701 151 b 746 54 722 118 746 82 b 697 7 746 33 733 15 l 697 0 l 1000 0 l 1000 7 b 788 203 896 28 856 96 l 590 515 l 796 801 b 1000 965 858 889 896 949 l 1000 972 l 767 972 l 767 965 b 819 922 804 957 819 943 b 767 818 819 897 799 863 l 571 544 l 396 821 b 351 918 375 854 351 890 b 400 965 351 939 364 957 l 400 972 l 97 972 l 97 965 b 310 769 201 944 242 878 l 507 457 l 299 167 b 97 7 239 83 201 24 z "},"Y":{"ha":1014,"x_min":0,"x_max":0,"o":"m 351 0 l 654 0 l 654 7 b 553 178 564 28 553 72 l 553 524 l 753 801 b 958 965 815 889 854 949 l 958 972 l 722 972 l 722 965 b 776 921 760 957 776 943 b 725 818 776 896 757 861 l 529 546 l 354 821 b 310 918 333 854 310 890 b 358 965 310 939 322 957 l 358 972 l 56 972 l 56 965 b 268 769 160 944 200 878 l 453 478 l 453 178 b 351 7 453 72 442 28 z "},"Ý":{"ha":1014,"x_min":0,"x_max":0,"o":"m 454 1057 l 467 1057 l 654 1176 b 685 1221 676 1190 685 1206 b 643 1260 685 1242 667 1260 b 593 1232 626 1260 608 1251 z m 351 0 l 654 0 l 654 7 b 553 178 564 28 553 72 l 553 524 l 753 801 b 958 965 815 889 854 949 l 958 972 l 722 972 l 722 965 b 776 921 760 957 776 943 b 725 818 776 896 757 861 l 529 546 l 354 821 b 310 918 333 854 310 890 b 358 965 310 939 322 957 l 358 972 l 56 972 l 56 965 b 268 769 160 944 200 878 l 453 478 l 453 178 b 351 7 453 72 442 28 z "},"Ŷ":{"ha":1014,"x_min":0,"x_max":0,"o":"m 342 1057 l 354 1057 l 531 1169 l 706 1057 l 718 1057 l 579 1232 b 539 1258 567 1249 551 1257 b 531 1260 536 1260 533 1260 b 521 1258 526 1260 524 1260 b 481 1232 508 1257 493 1249 z m 351 0 l 654 0 l 654 7 b 553 178 564 28 553 72 l 553 524 l 753 801 b 958 965 815 889 854 949 l 958 972 l 722 972 l 722 965 b 776 921 760 957 776 943 b 725 818 776 896 757 861 l 529 546 l 354 821 b 310 918 333 854 310 890 b 358 965 310 939 322 957 l 358 972 l 56 972 l 56 965 b 268 769 160 944 200 878 l 453 478 l 453 178 b 351 7 453 72 442 28 z "},"Ÿ":{"ha":1014,"x_min":0,"x_max":0,"o":"m 425 1058 b 493 1126 464 1058 493 1088 b 422 1194 493 1165 463 1194 b 357 1126 385 1194 357 1163 b 425 1058 357 1088 386 1058 z m 656 1058 b 724 1126 693 1058 724 1088 b 656 1193 724 1164 693 1193 b 588 1126 617 1193 588 1164 b 656 1058 588 1088 617 1058 z m 351 0 l 654 0 l 654 7 b 553 178 564 28 553 72 l 553 524 l 753 801 b 958 965 815 889 854 949 l 958 972 l 722 972 l 722 965 b 776 921 760 957 776 943 b 725 818 776 896 757 861 l 529 546 l 354 821 b 310 918 333 854 310 890 b 358 965 310 939 322 957 l 358 972 l 56 972 l 56 965 b 268 769 160 944 200 878 l 453 478 l 453 178 b 351 7 453 72 442 28 z "},"Ỳ":{"ha":1014,"x_min":0,"x_max":0,"o":"m 626 1056 l 639 1056 l 500 1231 b 450 1258 485 1250 467 1258 b 408 1219 428 1258 408 1242 b 439 1175 408 1206 417 1189 z m 351 0 l 654 0 l 654 7 b 553 178 564 28 553 72 l 553 524 l 753 801 b 958 965 815 889 854 949 l 958 972 l 722 972 l 722 965 b 776 921 760 957 776 943 b 725 818 776 896 757 861 l 529 546 l 354 821 b 310 918 333 854 310 890 b 358 965 310 939 322 957 l 358 972 l 56 972 l 56 965 b 268 769 160 944 200 878 l 453 478 l 453 178 b 351 7 453 72 442 28 z "},"Z":{"ha":994,"x_min":0,"x_max":0,"o":"m 801 -14 l 818 -14 l 883 228 l 875 228 b 632 29 833 146 796 29 l 250 29 l 851 972 l 322 972 b 178 986 218 972 213 972 l 161 986 l 111 783 l 119 783 b 349 943 161 865 213 943 l 717 943 l 114 0 l 658 0 b 801 -14 763 0 767 0 z "},"Ź":{"ha":994,"x_min":0,"x_max":0,"o":"m 411 1057 l 424 1057 l 611 1176 b 642 1221 633 1190 642 1206 b 600 1260 642 1242 624 1260 b 550 1232 583 1260 565 1251 z m 801 -14 l 818 -14 l 883 228 l 875 228 b 632 29 833 146 796 29 l 250 29 l 851 972 l 322 972 b 178 986 218 972 213 972 l 161 986 l 111 783 l 119 783 b 349 943 161 865 213 943 l 717 943 l 114 0 l 658 0 b 801 -14 763 0 767 0 z "},"Ž":{"ha":994,"x_min":0,"x_max":0,"o":"m 515 1054 b 524 1056 518 1054 521 1054 b 564 1082 536 1057 551 1065 l 703 1257 l 690 1257 l 515 1144 l 339 1257 l 326 1257 l 465 1082 b 506 1056 478 1065 493 1057 b 515 1054 508 1054 511 1054 z m 801 -14 l 818 -14 l 883 228 l 875 228 b 632 29 833 146 796 29 l 250 29 l 851 972 l 322 972 b 178 986 218 972 213 972 l 161 986 l 111 783 l 119 783 b 349 943 161 865 213 943 l 717 943 l 114 0 l 658 0 b 801 -14 763 0 767 0 z "},"Ż":{"ha":994,"x_min":0,"x_max":0,"o":"m 500 1054 b 568 1122 539 1054 568 1083 b 497 1190 568 1161 538 1190 b 432 1122 460 1190 432 1158 b 500 1054 432 1083 461 1054 z m 801 -14 l 818 -14 l 883 228 l 875 228 b 632 29 833 146 796 29 l 250 29 l 851 972 l 322 972 b 178 986 218 972 213 972 l 161 986 l 111 783 l 119 783 b 349 943 161 865 213 943 l 717 943 l 114 0 l 658 0 b 801 -14 763 0 767 0 z "},"":{"ha":1090,"x_min":0,"x_max":0,"o":"m 56 0 l 286 0 l 286 7 b 210 72 235 17 210 33 b 218 118 210 85 213 100 b 578 394 303 322 438 394 b 700 378 618 394 660 389 l 776 178 b 804 74 793 135 804 101 b 732 7 804 39 785 17 l 732 0 l 1035 0 l 1035 7 b 885 178 953 28 922 78 l 582 972 l 393 972 l 393 965 b 468 904 446 956 468 939 b 461 867 468 894 465 882 l 197 161 b 56 7 161 63 133 26 z m 276 279 l 504 890 l 686 414 b 586 425 654 421 619 425 b 276 279 475 425 363 385 z "},"":{"ha":996,"x_min":0,"x_max":0,"o":"m 111 0 l 546 0 b 940 285 763 0 940 96 b 653 549 940 428 849 546 b 869 743 769 569 869 600 b 511 972 869 890 751 972 l 111 972 l 111 965 b 213 794 201 944 213 900 l 213 178 b 111 7 213 72 201 28 z m 313 435 l 313 794 b 422 943 313 900 333 943 l 511 943 b 764 743 700 943 764 867 b 313 435 764 478 450 635 z m 415 28 b 313 178 332 31 313 75 l 313 375 b 450 507 338 446 389 483 b 586 529 500 522 546 529 b 832 281 751 529 832 410 b 549 29 832 129 732 31 z "},"":{"ha":1051,"x_min":0,"x_max":0,"o":"m 625 -14 b 982 110 792 -14 903 39 l 971 126 b 639 17 885 49 772 17 b 196 482 417 18 219 213 b 193 529 194 497 193 514 b 629 957 193 781 368 957 b 842 908 703 957 778 943 b 972 722 899 876 944 815 l 982 722 l 982 986 l 972 986 b 938 908 972 986 961 918 b 860 933 922 903 897 915 b 626 986 783 968 704 986 b 97 485 338 986 97 781 b 625 -14 97 193 311 -14 z "},"":{"ha":1054,"x_min":0,"x_max":0,"o":"m 658 -17 b 985 529 825 -17 985 299 b 982 575 985 546 983 560 b 454 972 954 851 718 972 l 111 972 l 111 965 b 213 794 201 944 213 900 l 213 178 b 111 7 213 72 201 28 l 111 0 l 411 0 l 411 7 b 310 178 321 28 310 72 l 310 596 b 658 -17 383 261 525 -17 z m 654 29 b 310 808 519 29 336 447 b 419 943 311 904 335 943 l 454 943 b 879 558 676 943 851 831 b 882 500 881 540 882 521 b 654 29 882 290 779 29 z "},"":{"ha":985,"x_min":0,"x_max":0,"o":"m 829 -69 l 926 263 l 918 263 b 636 29 879 181 856 29 l 422 29 b 313 178 333 29 313 72 l 313 483 l 542 483 b 733 372 585 483 665 478 l 740 372 l 635 626 l 628 626 b 632 589 631 613 632 600 b 542 514 632 518 579 514 l 313 514 l 313 794 b 422 943 313 900 333 943 l 636 943 b 885 783 772 943 828 865 l 893 783 l 774 1054 l 767 1050 b 772 1014 771 1035 772 1024 b 663 972 772 978 744 972 l 111 972 l 111 965 b 213 794 201 944 213 900 l 213 178 b 111 7 213 72 201 28 l 111 0 l 690 0 b 822 -42 778 0 822 -1 b 818 -68 822 -49 821 -58 z "},"":{"ha":929,"x_min":0,"x_max":0,"o":"m 111 0 l 414 0 l 414 7 b 313 178 324 28 313 72 l 313 794 b 422 943 313 900 333 943 l 636 943 b 865 783 772 943 824 865 l 874 783 l 824 986 l 807 986 b 663 972 772 972 767 972 l 111 972 l 111 965 b 213 794 201 944 213 900 l 213 178 b 111 7 213 72 201 28 z m 540 389 l 650 497 l 542 606 l 432 497 z "},"":{"ha":1161,"x_min":0,"x_max":0,"o":"m 625 -14 b 990 222 851 -14 981 103 l 990 263 b 1092 433 990 368 1001 413 l 1092 440 l 796 440 l 796 433 b 897 263 886 413 897 368 l 897 204 b 639 17 896 92 800 17 b 196 482 417 18 219 213 b 193 529 194 497 193 514 b 629 957 193 781 368 957 b 842 908 703 957 778 943 b 972 722 899 878 944 815 l 982 722 l 982 986 l 972 986 b 938 908 972 986 961 917 b 860 933 922 903 897 915 b 626 986 785 969 704 986 b 97 485 338 986 97 781 b 625 -14 97 193 311 -14 z "},"":{"ha":1125,"x_min":0,"x_max":0,"o":"m 111 0 l 414 0 l 414 7 b 313 178 324 28 313 72 l 313 186 b 735 528 363 425 558 528 b 813 521 761 528 788 525 l 813 178 b 711 7 813 72 801 28 l 711 0 l 1014 0 l 1014 7 b 913 178 924 28 913 72 l 913 794 b 1014 965 913 900 924 944 l 1014 972 l 711 972 l 711 965 b 813 794 801 944 813 900 l 813 551 b 736 558 788 556 763 558 b 313 283 571 558 386 472 l 313 794 b 414 965 313 900 324 944 l 414 972 l 111 972 l 111 965 b 213 794 201 944 213 900 l 213 178 b 111 7 213 72 201 28 z "},"":{"ha":525,"x_min":0,"x_max":0,"o":"m 261 1054 l 371 1163 l 263 1271 l 153 1163 z m 111 0 l 414 0 l 414 7 b 313 178 324 28 313 72 l 313 794 b 414 965 313 900 324 944 l 414 972 l 111 972 l 111 965 b 213 794 201 944 213 900 l 213 178 b 111 7 213 72 201 28 z "},"":{"ha":647,"x_min":0,"x_max":0,"o":"m 232 -15 b 463 196 338 -15 463 51 l 463 794 b 564 965 463 900 474 944 l 564 972 l 261 972 l 261 965 b 363 794 351 944 363 900 l 363 203 b 206 19 363 72 283 19 b 35 199 147 19 38 50 l 14 197 b 232 -15 17 31 151 -15 z "},"":{"ha":1057,"x_min":0,"x_max":0,"o":"m 878 -1 b 988 0 907 -1 942 0 l 988 7 b 767 156 926 18 885 29 l 450 497 b 786 813 560 583 707 640 b 844 922 804 851 819 897 b 942 965 865 943 896 958 l 942 972 l 693 972 l 693 965 b 768 922 729 956 757 946 b 774 896 772 914 774 906 b 754 821 774 871 764 843 b 313 396 649 586 417 581 l 313 794 b 414 965 313 900 324 944 l 414 972 l 111 972 l 111 965 b 213 794 201 944 213 900 l 213 178 b 111 7 213 72 201 28 l 111 0 l 414 0 l 414 7 b 313 178 324 28 313 72 l 313 292 b 378 429 325 349 347 392 l 681 101 b 878 -1 767 10 778 -1 z "},"":{"ha":540,"x_min":0,"x_max":0,"o":"m 917 -242 b 1224 -150 1001 -242 1101 -217 l 1224 -140 b 985 -187 1135 -174 1057 -187 b 378 28 715 -187 554 8 b 313 192 304 36 313 142 l 313 794 b 414 965 313 900 324 944 l 414 972 l 111 972 l 111 965 b 213 794 201 944 213 900 l 213 178 b 111 7 213 72 201 28 l 111 0 l 296 0 b 917 -242 526 10 649 -242 z "},"":{"ha":1381,"x_min":0,"x_max":0,"o":"m 111 0 l 344 0 l 344 7 b 243 161 265 24 243 58 l 243 849 l 658 0 l 694 0 b 1068 831 694 378 964 547 l 1068 178 b 967 7 1068 72 1057 28 l 967 0 l 1269 0 l 1269 7 b 1168 178 1179 28 1168 72 l 1168 794 b 1269 965 1168 900 1179 944 l 1269 972 l 1068 972 b 681 182 1015 651 757 493 l 293 972 l 111 972 l 111 965 b 213 811 188 949 213 914 l 213 161 b 111 7 213 58 188 24 z "},"":{"ha":1135,"x_min":0,"x_max":0,"o":"m 111 0 l 344 0 l 344 7 b 243 161 265 24 243 58 l 243 886 l 906 0 l 936 0 l 936 811 b 1038 965 936 914 958 949 l 1038 972 l 804 972 l 804 965 b 906 811 881 949 906 914 l 906 167 l 304 972 b -31 1178 185 1118 93 1178 b -107 1171 -54 1178 -81 1175 l -107 1163 b -81 1164 -97 1164 -89 1164 b 196 949 44 1164 121 1047 l 213 926 l 213 161 b 111 7 213 58 188 24 z "},"":{"ha":1272,"x_min":0,"x_max":0,"o":"m 635 -14 b 1175 485 907 -14 1175 163 b 636 986 1175 807 908 986 b 97 485 365 986 97 807 b 635 -14 97 161 365 -14 z m 671 19 b 200 482 453 19 224 169 b 197 536 199 500 197 518 b 601 953 197 814 392 953 b 1072 490 819 953 1049 803 b 1075 436 1074 472 1075 454 b 671 19 1075 158 881 19 z m 639 376 l 749 485 l 640 593 l 531 485 z "},"":{"ha":968,"x_min":0,"x_max":0,"o":"m 111 0 l 414 0 l 414 7 b 313 178 324 28 313 72 l 313 333 b 669 532 356 474 524 504 b 900 739 800 557 900 618 b 539 972 900 911 747 972 l 111 972 l 111 965 b 213 794 201 944 213 900 l 213 178 b 111 7 213 72 201 28 z m 313 397 l 313 794 b 422 943 313 900 333 943 l 539 943 b 799 744 703 943 799 892 b 660 564 799 663 758 592 b 313 397 550 533 399 521 z "},"":{"ha":1272,"x_min":0,"x_max":0,"o":"m 1318 -285 b 1507 -164 1390 -285 1454 -251 l 1488 -150 b 1315 -257 1439 -228 1381 -257 b 726 -7 1154 -257 947 -78 b 1175 485 964 28 1175 199 b 636 986 1175 807 908 986 b 97 485 365 986 97 807 b 611 -14 97 171 350 -4 b 1318 -285 871 -47 1125 -285 z m 671 19 b 200 482 453 19 224 169 b 197 536 199 500 197 518 b 601 953 197 814 392 953 b 1072 490 819 953 1049 803 b 1075 436 1074 472 1075 454 b 671 19 1075 158 881 19 z "},"":{"ha":1108,"x_min":0,"x_max":0,"o":"m 1021 -8 l 1021 6 b 586 518 913 10 749 111 b 642 529 604 522 622 525 b 872 735 774 556 872 615 b 511 972 872 918 715 972 l 111 972 l 111 965 b 213 794 201 944 213 900 l 213 178 b 111 7 213 72 201 28 l 111 0 l 414 0 l 414 7 b 313 178 324 28 313 72 l 313 347 b 478 493 346 431 404 469 b 1021 -8 624 167 735 -8 z m 313 406 l 313 794 b 422 943 313 900 333 943 l 511 943 b 772 735 676 943 772 890 b 632 561 772 660 739 589 b 313 406 521 533 393 525 z "},"":{"ha":874,"x_min":0,"x_max":0,"o":"m 83 -14 l 93 -14 b 128 75 93 -14 104 64 b 206 47 143 82 168 68 b 464 -14 272 10 363 -14 b 790 250 639 -14 790 72 b 185 775 790 603 185 515 b 433 961 185 890 311 961 b 750 722 582 961 701 888 l 760 722 l 760 986 l 750 986 b 715 908 750 986 739 917 b 638 936 700 903 675 918 b 443 986 571 968 526 982 b 114 735 276 986 114 899 b 729 233 114 425 701 483 b 731 213 731 226 731 219 b 589 33 731 124 671 61 b 467 14 554 21 511 14 b 197 97 369 14 261 43 b 93 289 147 139 115 204 l 83 289 z "},"":{"ha":1149,"x_min":0,"x_max":0,"o":"m 428 0 l 731 0 l 731 7 b 629 178 640 28 629 72 l 629 961 b 1083 1246 786 1101 943 1246 b 1218 1192 1131 1246 1175 1229 l 1225 1203 b 1032 1328 1164 1292 1099 1328 b 190 722 756 1328 444 722 b 172 724 185 722 178 722 b 68 836 64 738 108 819 b 56 839 64 838 60 839 b 28 815 40 839 29 825 b 196 697 25 764 101 697 b 529 872 300 697 414 775 l 529 178 b 428 7 529 72 518 28 z "},"":{"ha":1135,"x_min":0,"x_max":0,"o":"m 465 -14 b 836 215 597 -14 744 60 l 836 0 l 1024 0 l 1024 7 b 933 178 933 28 933 72 l 933 986 l 746 931 l 746 917 b 836 826 822 917 836 893 l 836 293 b 485 24 763 107 597 24 b 299 278 339 24 299 125 l 299 986 l 111 931 l 111 917 b 201 826 188 917 201 893 l 201 274 b 465 -14 201 113 254 -14 z "},"":{"ha":1007,"x_min":0,"x_max":0,"o":"m 508 0 l 599 0 l 711 293 b 946 979 857 675 946 886 b 847 1106 946 1067 892 1106 b 781 1047 807 1106 781 1076 b 783 1032 781 1042 782 1038 b 881 938 804 968 868 1018 b 882 918 882 932 882 925 b 668 278 882 826 808 640 l 588 71 l 313 794 b 286 897 297 836 286 871 b 358 965 286 933 306 956 l 358 972 l 56 972 l 56 965 b 206 794 138 944 168 893 z "},"":{"ha":1494,"x_min":0,"x_max":0,"o":"m 494 0 l 576 0 l 800 626 l 994 0 l 1078 0 l 1190 293 b 1425 979 1336 675 1425 886 b 1326 1106 1425 1067 1371 1106 b 1260 1047 1286 1106 1260 1076 b 1263 1032 1260 1042 1261 1038 b 1360 938 1283 968 1347 1018 b 1361 918 1361 932 1361 925 b 1147 278 1361 826 1288 640 l 1072 85 l 851 794 b 829 897 839 836 829 871 b 900 965 829 933 847 956 l 900 972 l 597 972 l 597 965 b 747 794 679 944 715 894 l 782 682 l 569 83 l 313 794 b 286 897 297 836 286 871 b 358 965 286 933 306 956 l 358 972 l 56 972 l 56 965 b 206 794 138 944 169 893 z "},"":{"ha":1097,"x_min":0,"x_max":0,"o":"m 256 -212 b 332 -144 300 -212 332 -181 b 203 6 332 -58 203 -93 b 204 28 203 13 203 19 b 513 449 229 188 372 322 l 701 151 b 746 54 722 118 746 82 b 697 7 746 33 733 15 l 697 0 l 1000 0 l 1000 7 b 788 203 896 28 856 96 l 589 517 b 908 894 733 643 881 763 b 917 968 914 922 917 946 b 804 1118 917 1076 853 1118 b 729 1050 761 1118 729 1088 b 858 899 729 964 858 1001 b 571 543 858 786 719 672 l 396 821 b 351 918 375 854 351 890 b 400 965 351 939 364 957 l 400 972 l 97 972 l 97 965 b 310 769 201 944 242 878 l 496 476 b 151 11 349 344 193 197 b 143 -64 146 -17 143 -42 b 256 -212 143 -171 207 -212 z "},"":{"ha":932,"x_min":0,"x_max":0,"o":"m 351 0 l 654 0 l 654 7 b 553 178 564 28 553 72 l 553 488 b 856 947 725 728 833 868 b 864 999 861 967 864 983 b 775 1103 864 1068 815 1103 b 713 1049 738 1103 713 1078 b 790 942 713 982 790 1010 b 543 524 790 875 708 757 l 354 821 b 310 918 333 854 310 890 b 358 965 310 939 322 957 l 358 972 l 56 972 l 56 965 b 268 769 160 944 200 878 l 453 478 l 453 178 b 351 7 453 72 442 28 z "},"":{"ha":989,"x_min":0,"x_max":0,"o":"m 1176 -299 b 1610 -136 1313 -299 1457 -256 l 1610 -126 b 1226 -246 1472 -214 1344 -246 b 264 51 858 -246 568 68 l 851 972 l 322 972 b 178 986 218 972 213 972 l 161 986 l 111 783 l 119 783 b 349 943 161 865 213 943 l 717 943 l 114 0 l 232 0 l 233 3 l 236 0 b 1176 -299 517 -6 821 -299 z "},"":{"ha":1197,"x_min":0,"x_max":0,"o":"m 569 -14 b 899 147 708 -14 836 49 l 899 0 l 1086 0 l 1086 7 b 996 178 996 28 996 72 l 996 826 b 1086 917 996 893 1010 917 l 1086 931 l 899 986 l 899 850 b 571 986 815 946 686 986 b 97 485 324 986 97 781 b 569 -14 97 193 311 -14 z m 588 18 b 193 529 378 18 193 257 b 574 957 193 781 354 957 b 899 794 694 957 829 908 l 899 211 b 588 18 844 82 714 18 z "},"":{"ha":992,"x_min":0,"x_max":0,"o":"m 264 -208 b 936 461 694 118 936 315 b 715 590 936 539 863 590 b 578 578 675 590 629 586 b 838 836 724 665 838 747 b 522 975 838 951 704 975 b 386 972 479 975 433 974 l 111 972 l 111 965 b 213 794 201 944 213 900 l 213 178 b 111 7 213 72 201 28 l 111 0 l 414 0 l 414 7 b 313 178 324 28 313 72 l 313 425 b 519 543 381 465 453 506 b 651 556 571 551 614 556 b 821 433 778 556 821 508 b 254 -194 821 297 646 113 z m 313 450 l 313 794 b 411 944 313 896 332 940 l 421 944 b 504 946 450 946 478 946 b 735 847 639 946 735 928 b 313 450 735 722 539 581 z "},"":{"ha":1051,"x_min":0,"x_max":0,"o":"m 625 -14 b 982 110 792 -14 903 39 l 971 126 b 639 17 885 49 772 17 b 196 482 417 18 219 213 b 193 529 194 497 193 514 b 629 957 193 781 368 957 b 857 892 729 957 800 936 b 915 768 901 851 915 804 b 911 738 915 757 914 746 b 931 726 908 729 918 726 b 1015 761 960 726 1011 743 b 953 867 1021 790 996 828 b 626 986 876 942 767 986 b 97 485 338 986 97 781 b 625 -14 97 193 311 -14 z "},"":{"ha":1008,"x_min":0,"x_max":0,"o":"m 264 -208 b 939 667 760 225 939 482 b 936 707 939 681 938 694 b 479 972 908 893 729 976 l 111 972 l 111 965 b 213 794 201 944 213 900 l 213 178 b 111 7 213 72 201 28 l 111 0 l 414 0 l 414 7 b 313 178 324 28 313 72 l 313 794 b 426 944 313 900 332 944 b 826 679 708 951 799 860 b 831 626 829 663 831 644 b 254 -194 831 451 701 208 z "},"":{"ha":1171,"x_min":0,"x_max":0,"o":"m 625 -14 b 1010 138 792 -14 931 53 l 999 154 b 639 17 913 63 772 13 b 196 482 417 18 219 213 b 194 499 196 488 194 493 l 1082 499 b 604 985 1072 831 840 985 b 97 485 353 985 97 810 b 625 -14 97 193 311 -14 z m 193 515 l 193 529 b 596 963 193 813 396 963 b 989 529 790 963 982 822 z "},"":{"ha":929,"x_min":0,"x_max":0,"o":"m 111 0 l 414 0 l 414 7 b 313 178 324 28 313 72 l 313 483 l 542 483 b 733 372 585 483 665 478 l 740 372 l 635 626 l 628 626 b 632 589 631 613 632 600 b 542 514 632 518 579 514 l 313 514 l 313 794 b 422 943 313 900 333 943 l 636 943 b 885 783 772 943 828 865 l 893 783 l 774 1054 l 767 1050 b 772 1014 771 1035 772 1024 b 663 972 772 978 744 972 l 111 972 l 111 965 b 213 794 201 944 213 900 l 213 178 b 111 7 213 72 201 28 z "},"":{"ha":1161,"x_min":0,"x_max":0,"o":"m 625 -14 b 990 222 851 -14 981 103 l 990 263 b 1092 433 990 368 1001 413 l 1092 440 l 518 440 l 518 429 b 874 372 689 426 819 436 b 897 263 896 346 897 311 l 897 204 b 639 17 896 92 800 17 b 196 482 417 18 219 213 b 194 529 194 497 194 514 b 656 956 194 764 351 971 b 831 868 740 951 796 914 b 911 771 860 831 875 779 b 928 769 917 769 924 769 b 975 817 961 769 975 793 b 649 986 975 903 819 986 b 97 485 315 986 97 765 b 625 -14 97 193 311 -14 z "},"":{"ha":1125,"x_min":0,"x_max":0,"o":"m 111 0 l 414 0 l 414 7 b 313 178 324 28 313 72 l 313 521 b 390 528 338 525 364 528 b 813 186 567 528 763 425 l 813 178 b 711 7 813 72 801 28 l 711 0 l 1014 0 l 1014 7 b 913 178 924 28 913 72 l 913 794 b 1014 965 913 900 924 944 l 1014 972 l 711 972 l 711 965 b 813 794 801 944 813 900 l 813 283 b 389 558 739 472 554 558 b 313 551 363 558 338 556 l 313 794 b 414 965 313 900 324 944 l 414 972 l 111 972 l 111 965 b 213 794 201 944 213 900 l 213 178 b 111 7 213 72 201 28 z "},"":{"ha":476,"x_min":0,"x_max":0,"o":"m -92 -293 b 104 -240 -22 -293 49 -275 b 292 165 217 -169 292 -49 l 292 794 b 393 965 292 900 303 944 l 393 972 l 90 972 l 90 965 b 192 794 181 944 192 900 l 192 135 b 79 -212 192 -44 154 -149 b -99 -268 35 -250 -33 -268 b -225 -243 -144 -268 -189 -260 b -314 -114 -301 -207 -278 -137 b -331 -108 -319 -110 -325 -108 b -360 -132 -346 -108 -358 -119 b -361 -146 -361 -136 -361 -140 b -239 -265 -361 -196 -311 -236 b -92 -293 -194 -283 -143 -293 z "},"":{"ha":1057,"x_min":0,"x_max":0,"o":"m 878 -1 b 988 0 907 -1 942 0 l 988 7 b 767 156 926 18 885 29 l 431 518 b 786 813 625 561 721 672 b 844 922 804 851 819 897 b 942 965 865 943 896 958 l 942 972 l 693 972 l 693 965 b 768 922 729 956 757 946 b 774 896 772 914 774 906 b 754 821 774 871 764 843 b 313 536 681 660 571 549 l 313 794 b 414 965 313 900 324 944 l 414 972 l 111 972 l 111 965 b 213 794 201 944 213 900 l 213 178 b 111 7 213 72 201 28 l 111 0 l 414 0 l 414 7 b 313 178 324 28 313 72 l 313 499 l 681 101 b 878 -1 767 10 778 -1 z m 313 500 l 313 501 b 328 503 318 501 322 503 z "},"":{"ha":596,"x_min":0,"x_max":0,"o":"m 1111 -319 b 1488 -233 1219 -319 1343 -296 l 1488 -224 b 1196 -278 1383 -262 1286 -278 b 378 40 814 -278 558 8 b 313 192 306 57 313 142 l 313 794 b 414 965 313 900 324 944 l 414 972 l 111 972 l 111 965 b 213 794 201 944 213 900 l 213 178 b 111 7 213 72 201 28 l 111 0 l 294 0 b 1111 -319 522 11 711 -319 z "},"":{"ha":1610,"x_min":0,"x_max":0,"o":"m 111 -1 l 411 -1 l 411 6 b 310 176 321 26 310 71 l 310 742 b 603 949 389 890 525 949 b 764 694 722 949 764 850 l 764 176 b 663 6 764 71 753 26 l 663 -1 l 963 -1 l 963 6 b 861 176 872 26 861 71 l 861 699 b 860 742 861 714 861 728 b 1153 949 939 890 1075 949 b 1314 694 1272 949 1314 850 l 1314 176 b 1213 6 1314 71 1303 26 l 1213 -1 l 1513 -1 l 1513 6 b 1411 176 1422 26 1411 71 l 1411 699 b 1175 986 1411 860 1378 986 b 856 797 1076 986 946 933 b 625 986 839 908 783 986 b 310 804 528 986 400 936 l 310 985 l 122 929 l 122 915 b 213 825 199 915 213 892 l 213 176 b 111 6 213 71 201 26 z "},"":{"ha":1135,"x_min":0,"x_max":0,"o":"m 111 0 l 344 0 l 344 7 b 243 161 265 24 243 58 l 243 813 b 906 0 399 504 819 376 l 936 0 l 936 811 b 1038 965 936 914 958 949 l 1038 972 l 804 972 l 804 965 b 906 811 881 949 906 914 l 906 257 b 304 972 765 515 365 639 l 299 971 l 299 972 l 111 972 l 111 965 b 213 811 188 949 213 914 l 213 161 b 111 7 213 58 188 24 z "},"":{"ha":1272,"x_min":0,"x_max":0,"o":"m 635 -14 b 1175 485 907 -14 1175 149 b 636 986 1175 821 908 986 b 97 485 365 986 97 821 b 635 -14 97 147 365 -14 z m 636 22 b 203 485 419 22 203 164 b 636 950 203 800 418 950 b 1069 485 856 950 1069 800 b 636 22 1069 164 856 22 z m 636 363 b 719 447 678 363 719 390 b 636 683 719 526 651 544 b 553 447 622 544 553 522 b 636 363 553 390 594 363 z "},"":{"ha":940,"x_min":0,"x_max":0,"o":"m 111 0 l 414 0 l 414 7 b 313 178 324 28 313 72 l 313 403 b 901 808 565 556 901 663 b 521 972 901 950 746 972 l 111 972 l 111 965 b 213 794 201 944 213 900 l 213 178 b 111 7 213 72 201 28 z m 313 428 l 313 794 b 422 943 313 900 333 943 l 501 943 b 793 824 678 943 793 926 b 792 807 793 818 792 813 b 313 428 776 678 550 557 z "},"":{"ha":1272,"x_min":0,"x_max":0,"o":"m 1189 -382 b 1649 -150 1418 -382 1574 -258 l 1635 -142 b 1239 -311 1565 -240 1435 -311 b 1131 -304 1206 -311 1169 -308 b 426 -171 864 -272 675 -171 b 244 -190 367 -171 306 -175 l 488 4 b 635 -14 535 -8 585 -14 b 1175 485 907 -14 1175 163 b 636 986 1175 807 908 986 b 97 485 365 986 97 807 b 457 13 97 233 258 72 l 194 -204 l 194 -231 b 385 -200 257 -210 321 -200 b 1131 -379 642 -200 904 -358 b 1189 -382 1151 -381 1171 -382 z m 671 19 b 200 482 453 19 224 169 b 197 536 199 500 197 518 b 601 953 197 814 392 953 b 1072 490 819 953 1049 803 b 1075 436 1074 472 1075 454 b 671 19 1075 158 881 19 z "},"":{"ha":1053,"x_min":0,"x_max":0,"o":"m 1011 -8 l 1011 6 b 543 558 899 10 711 117 b 838 836 706 651 838 740 b 522 975 838 951 704 975 b 386 972 479 975 433 974 l 111 972 l 111 965 b 213 794 201 944 213 900 l 213 178 b 111 7 213 72 201 28 l 111 0 l 414 0 l 414 7 b 313 178 324 28 313 72 l 313 425 b 446 501 357 451 401 476 b 1011 -8 593 171 722 -8 z m 313 450 l 313 794 b 422 943 313 900 333 943 l 417 944 b 501 946 446 946 474 946 b 735 847 638 946 735 928 b 313 450 735 722 539 581 z "},"":{"ha":874,"x_min":0,"x_max":0,"o":"m 83 -14 l 96 -14 b 125 153 96 -14 106 153 b 147 139 132 153 138 149 b 483 -14 254 25 386 -14 b 790 250 650 -14 790 75 b 185 760 790 597 206 518 b 183 786 183 769 183 778 b 376 956 183 885 260 956 b 740 764 476 956 606 900 l 763 764 l 763 986 l 750 986 b 721 826 750 986 740 826 b 701 838 715 826 710 831 b 369 986 586 946 468 986 b 114 742 221 986 114 885 b 729 233 114 424 701 485 b 731 213 731 226 731 219 b 485 14 731 90 625 14 b 131 214 346 14 193 100 b 93 308 115 242 100 274 l 83 308 z "},"":{"ha":694,"x_min":0,"x_max":0,"o":"m 196 0 l 499 0 l 499 7 b 397 178 408 28 397 72 l 397 1090 b 911 1181 583 1133 768 1181 b 1143 1092 1014 1181 1096 1157 l 1143 1101 b 864 1231 1088 1197 988 1231 b -114 1054 581 1231 169 1054 b -360 1140 -217 1054 -303 1078 b -382 1193 -376 1158 -382 1176 b -358 1286 -382 1228 -358 1260 b -361 1301 -358 1292 -358 1297 b -387 1319 -368 1314 -378 1319 b -406 1311 -394 1319 -401 1315 b -421 1254 -415 1297 -421 1278 b -371 1131 -421 1217 -406 1171 b -61 1019 -297 1049 -189 1019 b 297 1068 49 1019 172 1042 l 297 178 b 196 7 297 72 286 28 z "},"":{"ha":1132,"x_min":0,"x_max":0,"o":"m 367 -15 b 822 674 542 -15 714 239 l 822 178 b 721 7 822 72 811 28 l 721 0 l 1021 0 l 1021 7 b 919 178 931 28 919 72 l 919 986 l 732 931 l 732 917 b 822 826 808 917 822 893 b 401 29 732 315 521 29 b 285 349 303 29 285 164 l 285 986 l 97 931 l 97 917 b 188 826 174 917 188 893 l 188 304 b 367 -15 188 85 232 -15 z "},"":{"ha":1076,"x_min":0,"x_max":0,"o":"m 508 0 l 590 0 b 1129 1056 803 563 846 1057 l 1094 1185 b 585 78 836 1083 768 617 l 313 794 b 286 897 297 836 286 871 b 358 965 286 933 306 956 l 358 972 l 56 972 l 56 965 b 206 794 138 944 168 893 z "},"":{"ha":1563,"x_min":0,"x_max":0,"o":"m 494 0 l 576 0 l 800 626 l 994 0 l 1076 0 b 1615 1056 1289 563 1332 1057 l 1581 1185 b 1074 82 1322 1083 1256 619 l 851 794 b 829 897 839 836 829 871 b 900 965 829 933 847 956 l 900 972 l 597 972 l 597 965 b 747 794 679 944 715 894 l 782 682 l 569 83 l 313 794 b 286 897 297 836 286 871 b 358 965 286 933 306 956 l 358 972 l 56 972 l 56 965 b 206 794 138 944 169 893 z "},"":{"ha":1097,"x_min":0,"x_max":0,"o":"m 144 -197 l 285 -143 b 243 -26 256 -103 243 -65 b 410 282 243 63 308 156 l 526 428 l 701 151 b 746 54 722 118 746 82 b 697 7 746 33 733 15 l 697 0 l 1000 0 l 1000 7 b 788 203 896 28 856 96 l 592 511 l 731 686 b 957 1121 869 861 957 988 b 954 1165 957 1136 957 1150 l 814 1111 b 857 993 843 1071 857 1032 b 690 686 857 904 790 811 l 574 540 l 396 821 b 351 918 375 854 351 890 b 400 965 351 939 364 957 l 400 972 l 97 972 l 97 965 b 310 769 201 944 242 878 l 508 457 l 368 282 b 142 -153 228 107 142 -19 b 144 -197 142 -167 142 -182 z "},"":{"ha":972,"x_min":0,"x_max":0,"o":"m 351 0 l 654 0 l 654 7 b 553 178 564 28 553 72 l 553 510 b 1039 1069 833 938 840 1071 l 1004 1199 b 536 535 817 1124 813 968 l 354 821 b 310 918 333 854 310 890 b 358 965 310 939 322 957 l 358 972 l 56 972 l 56 965 b 268 769 160 944 200 878 l 453 478 l 453 178 b 351 7 453 72 442 28 z "},"":{"ha":989,"x_min":0,"x_max":0,"o":"m 1508 -332 b 1999 -178 1660 -332 1821 -290 l 1999 -168 b 1567 -282 1840 -250 1699 -282 b 335 51 1136 -282 810 51 b 263 49 311 51 288 50 l 851 972 l 322 972 b 178 986 218 972 213 972 l 161 986 l 111 783 l 119 783 b 349 943 161 865 213 943 l 717 943 l 114 0 l 232 0 l 233 3 l 236 0 b 1508 -332 726 -6 1083 -332 z "},"":{"ha":1111,"x_min":0,"x_max":0,"o":"m 422 -14 b 815 626 568 -14 728 160 l 815 178 b 714 7 815 72 804 28 l 714 0 l 1014 0 l 1014 7 b 913 178 924 28 913 72 l 913 826 b 1003 917 913 893 926 917 l 1003 931 l 815 986 l 815 851 b 511 986 738 940 619 986 b 97 506 271 986 97 800 b 422 -14 97 226 251 -14 z m 451 33 b 193 553 311 33 193 271 b 515 958 193 800 299 958 b 815 800 628 958 749 904 l 815 778 b 451 33 724 232 578 33 z "},"":{"ha":1051,"x_min":0,"x_max":0,"o":"m 625 -14 b 982 110 792 -14 903 39 l 971 126 b 639 17 885 49 772 17 b 196 482 417 18 219 213 b 193 529 194 497 193 514 b 496 958 193 821 322 958 b 964 681 639 958 811 864 l 982 681 l 982 986 l 969 986 b 949 776 969 986 963 831 b 936 756 946 764 942 756 b 915 772 932 756 925 761 l 917 771 b 744 907 863 828 803 871 b 488 986 660 960 571 986 b 97 485 275 986 97 815 b 625 -14 97 193 311 -14 z "},"":{"ha":1115,"x_min":0,"x_max":0,"o":"m 625 -14 b 1010 138 792 -14 931 53 l 999 154 b 639 17 913 63 772 13 b 251 279 478 18 331 121 b 926 501 336 449 746 400 b 1018 656 989 536 1018 593 b 604 985 1018 843 833 985 b 97 485 367 985 97 810 b 625 -14 97 193 311 -14 z m 238 310 b 196 482 217 363 201 421 b 193 529 194 497 193 514 b 596 963 193 813 410 963 b 933 651 797 963 933 826 b 878 531 933 604 914 561 b 238 310 740 414 349 479 z "},"":{"ha":1057,"x_min":0,"x_max":0,"o":"m 858 -1 b 988 0 889 -1 931 0 l 988 7 b 764 156 926 18 876 24 l 440 538 b 817 939 557 735 707 915 b 835 940 824 940 829 940 b 940 856 899 940 886 856 b 988 904 969 856 988 878 b 985 924 988 911 988 917 b 872 990 975 953 935 990 b 794 972 850 990 824 985 b 313 364 640 903 425 614 l 313 794 b 414 965 313 900 324 944 l 414 972 l 111 972 l 111 965 b 213 794 201 944 213 900 l 213 178 b 111 7 213 72 201 28 l 111 0 l 414 0 l 414 7 b 313 178 324 28 313 72 l 313 281 b 389 446 333 333 360 389 l 681 101 b 858 -1 757 11 775 -1 z "},"":{"ha":600,"x_min":0,"x_max":0,"o":"m 946 -254 b 1335 -131 1046 -254 1207 -232 l 1335 -121 b 986 -217 1217 -199 1082 -217 b 936 -215 968 -217 951 -217 b 313 35 661 -196 438 3 l 313 926 l 414 965 l 414 972 l 111 972 l 111 965 l 213 926 l 213 39 l 111 10 l 111 0 l 206 -8 b 946 -254 354 -33 638 -254 z "},"":{"ha":1610,"x_min":0,"x_max":0,"o":"m 111 -1 l 411 -1 l 411 6 b 310 147 329 25 313 63 b 683 942 403 674 563 942 b 764 708 757 942 764 843 l 764 176 b 663 6 764 71 753 26 l 663 -1 l 963 -1 l 963 6 b 861 154 879 25 864 64 b 1233 942 954 675 1114 942 b 1314 708 1307 942 1314 843 l 1314 176 b 1213 6 1314 71 1303 26 l 1213 -1 l 1513 -1 l 1513 6 b 1411 176 1422 26 1411 71 l 1411 718 b 1257 986 1411 882 1404 997 b 861 319 1089 974 961 738 l 861 718 b 707 986 861 882 854 997 b 310 314 538 974 410 736 l 310 985 l 122 929 l 122 915 b 213 825 199 915 213 892 l 213 176 b 111 6 213 71 201 26 z "},"":{"ha":1143,"x_min":0,"x_max":0,"o":"m 111 -1 l 411 -1 l 411 6 b 310 176 321 26 310 71 l 310 710 b 661 949 389 874 554 949 b 847 694 807 949 847 847 l 847 176 b 746 6 847 71 836 26 l 746 -1 l 1046 -1 l 1046 6 b 944 176 956 26 944 71 l 944 699 b 681 986 944 860 911 986 b 310 778 554 986 404 919 l 310 985 l 122 929 l 122 915 b 213 825 199 915 213 892 l 213 176 b 111 6 213 71 201 26 z "},"":{"ha":1108,"x_min":0,"x_max":0,"o":"m 1513 -286 b 1849 -235 1622 -286 1735 -269 l 1843 -218 b 1563 -260 1747 -247 1654 -260 b 599 472 1111 -260 735 69 b 872 719 782 494 872 586 b 511 972 872 874 754 972 l 111 972 l 111 965 b 213 794 201 944 213 900 l 213 178 b 111 7 213 72 201 28 l 111 0 l 414 0 l 414 7 b 313 178 324 28 313 72 l 313 468 l 476 468 b 1513 -286 681 -8 1069 -286 z m 313 497 l 313 794 b 422 943 313 900 333 943 l 511 943 b 764 725 693 943 764 868 b 511 497 764 578 696 497 z "},"":{"ha":942,"x_min":0,"x_max":0,"o":"m 338 0 l 640 0 l 640 7 b 539 178 550 28 539 72 l 539 413 b 785 758 643 438 785 539 l 785 811 b 886 965 785 914 807 949 l 886 972 l 650 972 l 650 965 b 751 811 726 949 751 914 l 751 760 b 504 440 751 540 607 443 b 257 761 374 436 257 513 l 257 794 b 358 965 257 900 268 944 l 358 972 l 56 972 l 56 965 b 157 794 146 944 157 900 l 157 763 b 439 410 157 510 315 426 l 439 178 b 338 7 439 72 428 28 z "},"":{"ha":1135,"x_min":0,"x_max":0,"o":"m 625 -14 b 1010 138 792 -14 931 53 l 999 154 b 639 17 913 63 772 13 b 249 285 476 18 326 122 l 1051 678 b 604 985 979 886 793 985 b 97 485 353 985 97 810 b 625 -14 97 193 311 -14 z m 244 296 b 196 482 218 351 201 414 b 193 529 194 497 193 514 b 596 963 193 813 396 963 b 969 665 757 963 917 865 z "},"":{"ha":1394,"x_min":0,"x_max":0,"o":"m 111 0 l 344 0 l 344 7 b 243 161 265 24 243 58 l 243 849 l 658 0 l 689 0 l 1082 892 l 1082 178 b 981 7 1082 72 1071 28 l 981 0 l 1283 0 l 1283 7 b 1182 178 1193 28 1182 72 l 1182 794 b 1283 965 1182 900 1193 944 l 1283 972 l 1082 972 l 708 122 l 293 972 b -29 1182 226 1104 101 1182 b -117 1171 -58 1182 -87 1179 l -117 1163 b -68 1168 -100 1167 -83 1168 b 192 949 40 1168 121 1076 l 213 908 l 213 161 b 111 7 213 58 188 24 z "},"":{"ha":1143,"x_min":0,"x_max":0,"o":"m 111 -1 l 411 -1 l 411 6 b 310 147 329 25 313 63 b 731 942 400 657 611 942 b 847 622 833 942 847 807 l 847 176 b 746 6 847 71 836 26 l 746 -1 l 1046 -1 l 1046 6 b 944 176 956 26 944 71 l 944 667 b 765 986 944 857 928 986 b 310 307 597 986 419 735 l 310 985 l 122 929 l 122 915 b 213 825 199 915 213 892 l 213 176 b 111 6 213 71 201 26 z "},"":{"ha":1053,"x_min":0,"x_max":0,"o":"m 1322 -212 b 1576 -174 1404 -212 1489 -200 l 1571 -157 b 1368 -187 1501 -178 1433 -187 b 599 472 1025 -187 746 78 b 872 719 783 494 872 586 b 511 972 872 874 754 972 l 111 972 l 111 965 b 213 794 201 944 213 900 l 213 178 b 111 7 213 72 201 28 l 111 0 l 414 0 l 414 7 b 313 178 324 28 313 72 l 313 468 l 476 468 b 1322 -212 689 4 986 -212 z m 313 497 l 313 794 b 422 943 313 900 333 943 l 511 943 b 764 725 693 943 764 868 b 511 497 764 578 696 497 z "},"":{"ha":996,"x_min":0,"x_max":0,"o":"m 371 0 l 674 0 l 674 7 b 572 178 583 28 572 72 l 572 794 b 682 943 572 900 593 943 l 711 943 b 954 790 843 943 900 869 l 958 783 l 968 783 l 849 1054 l 842 1054 b 847 1017 846 1039 847 1028 b 738 972 847 981 819 972 l 211 972 b 36 1054 107 972 79 986 l 28 1054 l 150 783 l 158 783 b 149 857 154 808 149 833 b 265 943 149 906 172 943 l 371 943 b 472 794 453 943 472 900 l 472 178 b 371 7 472 72 461 28 z "},"":{"ha":825,"x_min":0,"x_max":0,"o":"m 431 -14 b 768 308 649 -14 768 149 b 435 611 768 458 663 604 b 397 610 421 611 408 611 l 769 972 l 194 972 l 151 792 l 158 792 b 271 886 189 872 231 886 l 638 886 l 304 560 b 404 576 351 574 381 576 b 676 321 593 576 676 453 b 400 21 676 175 574 21 b 351 25 385 21 368 22 b 174 165 283 36 174 76 b 185 250 174 196 185 225 b 140 310 185 290 163 310 b 97 243 117 310 93 286 b 367 -10 111 93 233 8 b 431 -14 389 -12 410 -14 z "},"a":{"ha":793,"x_min":0,"x_max":0,"o":"m 290 -14 b 561 129 385 -14 488 33 b 667 -14 567 42 586 -14 b 779 74 728 -14 768 17 l 767 76 b 711 18 758 47 744 18 b 654 143 667 18 654 65 l 654 461 b 399 708 654 628 558 708 b 133 542 253 708 133 621 b 181 499 133 522 151 499 b 392 679 281 499 183 679 b 560 464 524 679 558 597 b 83 169 393 365 83 379 b 290 -14 83 60 169 -14 z m 325 28 b 183 185 239 28 176 93 b 560 433 197 363 394 343 l 560 171 b 325 28 493 76 406 28 z "},"á":{"ha":793,"x_min":0,"x_max":0,"o":"m 274 792 l 286 792 l 474 911 b 504 956 496 925 504 940 b 463 994 504 976 486 994 b 413 967 446 994 428 986 z m 290 -14 b 561 129 385 -14 488 33 b 667 -14 567 42 586 -14 b 779 74 728 -14 768 17 l 767 76 b 711 18 758 47 744 18 b 654 143 667 18 654 65 l 654 461 b 399 708 654 628 558 708 b 133 542 253 708 133 621 b 181 499 133 522 151 499 b 392 679 281 499 183 679 b 560 464 524 679 558 597 b 83 169 393 365 83 379 b 290 -14 83 60 169 -14 z m 325 28 b 183 185 239 28 176 93 b 560 433 197 363 394 343 l 560 171 b 325 28 493 76 406 28 z "},"ă":{"ha":793,"x_min":0,"x_max":0,"o":"m 396 793 b 600 981 496 793 596 856 l 588 981 b 396 863 582 900 489 863 b 204 981 303 863 210 900 l 192 981 b 396 793 196 856 296 793 z m 290 -14 b 561 129 385 -14 488 33 b 667 -14 567 42 586 -14 b 779 74 728 -14 768 17 l 767 76 b 711 18 758 47 744 18 b 654 143 667 18 654 65 l 654 461 b 399 708 654 628 558 708 b 133 542 253 708 133 621 b 181 499 133 522 151 499 b 392 679 281 499 183 679 b 560 464 524 679 558 597 b 83 169 393 365 83 379 b 290 -14 83 60 169 -14 z m 325 28 b 183 185 239 28 176 93 b 560 433 197 363 394 343 l 560 171 b 325 28 493 76 406 28 z "},"â":{"ha":793,"x_min":0,"x_max":0,"o":"m 206 793 l 218 793 l 394 906 l 569 793 l 582 793 l 443 968 b 403 994 431 985 415 993 b 394 996 400 996 397 996 b 385 994 390 996 388 996 b 344 968 372 993 357 985 z m 290 -14 b 561 129 385 -14 488 33 b 667 -14 567 42 586 -14 b 779 74 728 -14 768 17 l 767 76 b 711 18 758 47 744 18 b 654 143 667 18 654 65 l 654 461 b 399 708 654 628 558 708 b 133 542 253 708 133 621 b 181 499 133 522 151 499 b 392 679 281 499 183 679 b 560 464 524 679 558 597 b 83 169 393 365 83 379 b 290 -14 83 60 169 -14 z m 325 28 b 183 185 239 28 176 93 b 560 433 197 363 394 343 l 560 171 b 325 28 493 76 406 28 z "},"ä":{"ha":793,"x_min":0,"x_max":0,"o":"m 271 789 b 339 857 310 789 339 818 b 268 925 339 896 308 925 b 203 857 231 925 203 893 b 271 789 203 818 232 789 z m 501 789 b 569 857 539 789 569 818 b 501 924 569 894 539 924 b 433 857 463 924 433 894 b 501 789 433 818 463 789 z m 290 -14 b 561 129 385 -14 488 33 b 667 -14 567 42 586 -14 b 779 74 728 -14 768 17 l 767 76 b 711 18 758 47 744 18 b 654 143 667 18 654 65 l 654 461 b 399 708 654 628 558 708 b 133 542 253 708 133 621 b 181 499 133 522 151 499 b 392 679 281 499 183 679 b 560 464 524 679 558 597 b 83 169 393 365 83 379 b 290 -14 83 60 169 -14 z m 325 28 b 183 185 239 28 176 93 b 560 433 197 363 394 343 l 560 171 b 325 28 493 76 406 28 z "},"à":{"ha":793,"x_min":0,"x_max":0,"o":"m 483 792 l 496 792 l 357 967 b 307 994 342 986 324 994 b 265 956 285 994 265 978 b 296 911 265 942 274 925 z m 290 -14 b 561 129 385 -14 488 33 b 667 -14 567 42 586 -14 b 779 74 728 -14 768 17 l 767 76 b 711 18 758 47 744 18 b 654 143 667 18 654 65 l 654 461 b 399 708 654 628 558 708 b 133 542 253 708 133 621 b 181 499 133 522 151 499 b 392 679 281 499 183 679 b 560 464 524 679 558 597 b 83 169 393 365 83 379 b 290 -14 83 60 169 -14 z m 325 28 b 183 185 239 28 176 93 b 560 433 197 363 394 343 l 560 171 b 325 28 493 76 406 28 z "},"ā":{"ha":793,"x_min":0,"x_max":0,"o":"m 183 790 l 592 790 l 592 838 l 183 838 z m 290 -14 b 561 129 385 -14 488 33 b 667 -14 567 42 586 -14 b 779 74 728 -14 768 17 l 767 76 b 711 18 758 47 744 18 b 654 143 667 18 654 65 l 654 461 b 399 708 654 628 558 708 b 133 542 253 708 133 621 b 181 499 133 522 151 499 b 392 679 281 499 183 679 b 560 464 524 679 558 597 b 83 169 393 365 83 379 b 290 -14 83 60 169 -14 z m 325 28 b 183 185 239 28 176 93 b 560 433 197 363 394 343 l 560 171 b 325 28 493 76 406 28 z "},"ą":{"ha":793,"x_min":0,"x_max":0,"o":"m 814 -187 b 711 -239 774 -224 738 -239 b 640 -146 665 -239 640 -199 b 689 -12 640 -106 656 -56 b 779 74 738 -6 769 24 l 767 76 b 711 18 758 47 744 18 b 654 143 667 18 654 65 l 654 461 b 399 708 654 628 558 708 b 133 542 253 708 133 621 b 181 499 133 522 151 499 b 392 679 281 499 183 679 b 560 464 524 679 558 597 b 83 169 393 365 83 379 b 290 -14 83 60 169 -14 b 561 129 385 -14 488 33 b 664 -14 567 43 586 -12 b 571 -192 597 -87 571 -147 b 665 -276 571 -246 611 -276 b 817 -206 711 -276 767 -254 z m 560 171 b 325 28 493 76 406 28 b 183 185 239 28 176 93 b 560 433 197 363 394 343 z "},"å":{"ha":793,"x_min":0,"x_max":0,"o":"m 386 793 b 518 925 458 793 518 853 b 386 1057 518 997 458 1057 b 254 925 314 1057 254 997 b 386 793 254 853 314 793 z m 386 829 b 292 925 335 829 292 872 b 389 1021 292 976 336 1021 b 481 925 439 1021 481 975 b 386 829 481 872 438 829 z m 290 -14 b 561 129 385 -14 488 33 b 667 -14 567 42 586 -14 b 779 74 728 -14 768 17 l 767 76 b 711 18 758 47 744 18 b 654 143 667 18 654 65 l 654 461 b 399 708 654 628 558 708 b 133 542 253 708 133 621 b 181 499 133 522 151 499 b 392 679 281 499 183 679 b 560 464 524 679 558 597 b 83 169 393 365 83 379 b 290 -14 83 60 169 -14 z m 325 28 b 183 185 239 28 176 93 b 560 433 197 363 394 343 l 560 171 b 325 28 493 76 406 28 z "},"ã":{"ha":793,"x_min":0,"x_max":0,"o":"m 182 792 l 193 792 b 251 858 194 842 218 858 b 507 794 319 858 431 794 b 590 906 556 794 590 821 l 582 906 b 528 854 579 867 558 854 b 272 913 461 854 350 913 b 182 792 219 913 181 885 z m 290 -14 b 561 129 385 -14 488 33 b 667 -14 567 42 586 -14 b 779 74 728 -14 768 17 l 767 76 b 711 18 758 47 744 18 b 654 143 667 18 654 65 l 654 461 b 399 708 654 628 558 708 b 133 542 253 708 133 621 b 181 499 133 522 151 499 b 392 679 281 499 183 679 b 560 464 524 679 558 597 b 83 169 393 365 83 379 b 290 -14 83 60 169 -14 z m 325 28 b 183 185 239 28 176 93 b 560 433 197 363 394 343 l 560 171 b 325 28 493 76 406 28 z "},"æ":{"ha":1297,"x_min":0,"x_max":0,"o":"m 289 -14 b 582 158 394 -14 508 43 l 596 179 b 918 -14 658 50 788 -14 b 1208 124 1042 -14 1140 32 l 1192 133 b 947 15 1132 56 1042 15 b 654 351 815 15 671 135 b 653 371 654 358 653 364 l 1235 371 b 918 707 1240 593 1092 707 b 636 578 818 707 708 664 b 396 708 600 667 514 708 b 133 542 251 708 133 621 b 181 499 133 522 151 499 b 392 679 281 499 183 679 b 560 464 524 679 558 597 b 83 169 393 365 83 379 b 289 -14 83 60 169 -14 z m 653 401 b 906 679 658 589 783 679 b 1140 401 1033 679 1136 588 z m 325 28 b 185 185 239 28 178 93 b 560 433 199 363 394 343 l 560 351 b 583 208 560 299 568 250 l 575 193 b 325 28 507 85 411 28 z "},"b":{"ha":835,"x_min":0,"x_max":0,"o":"m 146 -14 l 154 -14 l 232 65 b 444 -14 301 7 372 -14 b 772 361 660 -14 772 176 b 460 708 772 536 671 708 b 240 628 379 708 308 683 l 240 1042 l 56 986 l 56 972 b 146 882 132 972 146 949 z m 429 22 b 240 110 376 22 299 44 l 240 581 b 438 671 303 644 372 671 b 674 321 582 671 674 490 b 429 22 674 168 601 22 z "},"c":{"ha":747,"x_min":0,"x_max":0,"o":"m 421 -14 b 711 124 544 -14 643 32 l 694 133 b 450 15 635 56 544 15 b 156 392 276 15 156 197 b 432 678 156 560 272 678 b 547 642 475 678 517 668 b 639 499 606 592 588 515 b 657 496 646 497 651 496 b 703 539 685 496 703 519 b 551 689 703 597 640 660 b 433 708 514 701 474 708 b 63 351 233 708 63 561 b 421 -14 63 108 242 -14 z "},"ć":{"ha":747,"x_min":0,"x_max":0,"o":"m 343 792 l 356 792 l 543 911 b 574 956 565 925 574 940 b 532 994 574 976 556 994 b 482 967 515 994 497 986 z m 421 -14 b 711 124 544 -14 643 32 l 694 133 b 450 15 635 56 544 15 b 156 392 276 15 156 197 b 432 678 156 560 272 678 b 547 642 475 678 517 668 b 639 499 606 592 588 515 b 657 496 646 497 651 496 b 703 539 685 496 703 519 b 551 689 703 597 640 660 b 433 708 514 701 474 708 b 63 351 233 708 63 561 b 421 -14 63 108 242 -14 z "},"č":{"ha":747,"x_min":0,"x_max":0,"o":"m 428 794 b 436 796 431 794 433 794 b 476 822 449 797 464 806 l 615 997 l 603 997 l 428 885 l 251 997 l 239 997 l 378 822 b 418 796 390 806 406 797 b 428 794 421 794 424 794 z m 421 -14 b 711 124 544 -14 643 32 l 694 133 b 450 15 635 56 544 15 b 156 392 276 15 156 197 b 432 678 156 560 272 678 b 547 642 475 678 517 668 b 639 499 606 592 588 515 b 657 496 646 497 651 496 b 703 539 685 496 703 519 b 551 689 703 597 640 660 b 433 708 514 701 474 708 b 63 351 233 708 63 561 b 421 -14 63 108 242 -14 z "},"ç":{"ha":747,"x_min":0,"x_max":0,"o":"m 711 124 l 694 133 b 450 15 635 56 544 15 b 156 392 276 15 156 197 b 432 678 156 560 272 678 b 547 642 475 678 517 668 b 639 499 606 592 588 515 b 657 496 646 497 651 496 b 703 539 685 496 703 519 b 551 689 703 597 640 660 b 433 708 514 701 474 708 b 63 351 233 708 63 561 b 410 -14 63 114 235 -8 l 325 -96 b 363 -90 339 -92 351 -90 b 442 -175 417 -90 442 -132 b 374 -257 442 -215 419 -254 b 269 -228 349 -258 313 -258 l 264 -233 b 393 -283 297 -267 346 -283 b 535 -167 467 -283 535 -244 b 424 -69 535 -129 494 -69 b 403 -71 417 -69 410 -69 l 432 -14 b 711 124 550 -11 644 35 z "},"ċ":{"ha":747,"x_min":0,"x_max":0,"o":"m 411 794 b 479 863 450 794 479 824 b 408 931 479 901 449 931 b 343 863 371 931 343 899 b 411 794 343 824 372 794 z m 421 -14 b 711 124 544 -14 643 32 l 694 133 b 450 15 635 56 544 15 b 156 392 276 15 156 197 b 432 678 156 560 272 678 b 547 642 475 678 517 668 b 639 499 606 592 588 515 b 657 496 646 497 651 496 b 703 539 685 496 703 519 b 551 689 703 597 640 660 b 433 708 514 701 474 708 b 63 351 233 708 63 561 b 421 -14 63 108 242 -14 z "},"d":{"ha":833,"x_min":0,"x_max":0,"o":"m 375 -14 b 593 121 482 -14 554 39 l 593 0 l 778 0 l 778 7 b 688 178 688 28 688 72 l 688 1042 l 503 986 l 503 972 b 593 882 579 972 593 949 l 593 638 b 397 708 536 689 467 708 b 63 358 214 708 63 586 b 375 -14 63 119 210 -14 z m 403 22 b 153 365 244 22 153 174 b 406 675 153 540 249 675 b 593 581 478 675 549 650 l 593 239 b 403 22 583 103 493 22 z "},"ð":{"ha":861,"x_min":0,"x_max":0,"o":"m 793 796 l 793 819 l 688 819 l 688 1042 l 503 986 l 503 972 b 593 882 579 972 593 949 l 593 821 l 492 821 l 492 796 l 593 796 l 593 638 b 397 708 536 689 467 708 b 63 358 214 708 63 586 b 375 -14 63 119 210 -14 b 593 121 482 -14 554 39 l 593 0 l 778 0 l 778 7 b 688 178 688 28 688 72 l 688 796 z m 593 239 b 403 22 583 103 493 22 b 153 365 244 22 153 174 b 406 675 153 540 249 675 b 593 581 478 675 549 650 z "},"ď":{"ha":833,"x_min":0,"x_max":0,"o":"m 375 -14 b 593 121 482 -14 554 39 l 593 0 l 778 0 l 778 7 b 688 178 688 28 688 72 l 688 1042 l 503 986 l 503 972 b 593 882 579 972 593 949 l 593 638 b 397 708 536 689 467 708 b 63 358 214 708 63 586 b 375 -14 63 119 210 -14 z m 811 735 l 815 735 b 897 910 851 772 897 853 b 889 944 897 924 894 935 b 829 985 879 968 856 985 b 763 918 790 985 763 954 b 811 854 763 888 782 863 b 836 808 828 847 836 831 b 811 735 836 786 828 760 z m 403 22 b 153 365 244 22 153 174 b 406 675 153 540 249 675 b 593 581 478 675 549 650 l 593 239 b 403 22 583 103 493 22 z "},"đ":{"ha":833,"x_min":0,"x_max":0,"o":"m 789 797 l 789 821 l 688 821 l 688 1042 l 503 986 l 503 972 b 593 882 579 972 593 949 l 593 822 l 488 822 l 488 797 l 593 797 l 593 638 b 397 708 536 689 467 708 b 63 358 214 708 63 586 b 375 -14 63 119 210 -14 b 593 121 482 -14 554 39 l 593 0 l 778 0 l 778 7 b 688 178 688 28 688 72 l 688 797 z m 593 239 b 403 22 583 103 493 22 b 153 365 244 22 153 174 b 406 675 153 540 249 675 b 593 581 478 675 549 650 z "},"e":{"ha":800,"x_min":0,"x_max":0,"o":"m 421 -14 b 711 124 544 -14 643 32 l 694 133 b 450 15 635 56 544 15 b 157 351 318 15 174 135 b 156 371 157 358 156 364 l 738 371 b 421 707 743 593 594 707 b 63 351 256 707 63 590 b 421 -14 63 108 242 -14 z m 156 401 b 408 679 161 589 286 679 b 643 401 536 679 639 588 z "},"é":{"ha":800,"x_min":0,"x_max":0,"o":"m 313 793 l 325 793 l 513 913 b 543 957 535 926 543 942 b 501 996 543 978 525 996 b 451 968 485 996 467 988 z m 421 -14 b 711 124 544 -14 643 32 l 694 133 b 450 15 635 56 544 15 b 157 351 318 15 174 135 b 156 371 157 358 156 364 l 738 371 b 421 707 743 593 594 707 b 63 351 256 707 63 590 b 421 -14 63 108 242 -14 z m 156 401 b 408 679 161 589 286 679 b 643 401 536 679 639 588 z "},"ě":{"ha":800,"x_min":0,"x_max":0,"o":"m 404 792 b 413 793 407 792 410 792 b 453 819 425 794 440 803 l 592 994 l 579 994 l 404 882 l 228 994 l 215 994 l 354 819 b 394 793 367 803 382 794 b 404 792 397 792 400 792 z m 421 -14 b 711 124 544 -14 643 32 l 694 133 b 450 15 635 56 544 15 b 157 351 318 15 174 135 b 156 371 157 358 156 364 l 738 371 b 421 707 743 593 594 707 b 63 351 256 707 63 590 b 421 -14 63 108 242 -14 z m 156 401 b 408 679 161 589 286 679 b 643 401 536 679 639 588 z "},"ê":{"ha":800,"x_min":0,"x_max":0,"o":"m 219 793 l 232 793 l 408 906 l 583 793 l 596 793 l 457 968 b 417 994 444 985 429 993 b 408 996 414 996 411 996 b 399 994 404 996 401 996 b 358 968 386 993 371 985 z m 421 -14 b 711 124 544 -14 643 32 l 694 133 b 450 15 635 56 544 15 b 157 351 318 15 174 135 b 156 371 157 358 156 364 l 738 371 b 421 707 743 593 594 707 b 63 351 256 707 63 590 b 421 -14 63 108 242 -14 z m 156 401 b 408 679 161 589 286 679 b 643 401 536 679 639 588 z "},"ë":{"ha":800,"x_min":0,"x_max":0,"o":"m 289 794 b 357 863 328 794 357 824 b 286 931 357 901 326 931 b 221 863 249 931 221 899 b 289 794 221 824 250 794 z m 519 794 b 588 863 557 794 588 824 b 519 929 588 900 557 929 b 451 863 481 929 451 900 b 519 794 451 824 481 794 z m 421 -14 b 711 124 544 -14 643 32 l 694 133 b 450 15 635 56 544 15 b 157 351 318 15 174 135 b 156 371 157 358 156 364 l 738 371 b 421 707 743 593 594 707 b 63 351 256 707 63 590 b 421 -14 63 108 242 -14 z m 156 401 b 408 679 161 589 286 679 b 643 401 536 679 639 588 z "},"ė":{"ha":800,"x_min":0,"x_max":0,"o":"m 417 792 b 485 860 456 792 485 821 b 414 928 485 899 454 928 b 349 860 376 928 349 896 b 417 792 349 821 378 792 z m 421 -14 b 711 124 544 -14 643 32 l 694 133 b 450 15 635 56 544 15 b 157 351 318 15 174 135 b 156 371 157 358 156 364 l 738 371 b 421 707 743 593 594 707 b 63 351 256 707 63 590 b 421 -14 63 108 242 -14 z m 156 401 b 408 679 161 589 286 679 b 643 401 536 679 639 588 z "},"è":{"ha":800,"x_min":0,"x_max":0,"o":"m 499 793 l 511 793 l 372 968 b 322 996 357 988 339 996 b 281 957 300 996 281 979 b 311 913 281 943 289 926 z m 421 -14 b 711 124 544 -14 643 32 l 694 133 b 450 15 635 56 544 15 b 157 351 318 15 174 135 b 156 371 157 358 156 364 l 738 371 b 421 707 743 593 594 707 b 63 351 256 707 63 590 b 421 -14 63 108 242 -14 z m 156 401 b 408 679 161 589 286 679 b 643 401 536 679 639 588 z "},"ē":{"ha":800,"x_min":0,"x_max":0,"o":"m 214 794 l 622 794 l 622 842 l 214 842 z m 421 -14 b 711 124 544 -14 643 32 l 694 133 b 450 15 635 56 544 15 b 157 351 318 15 174 135 b 156 371 157 358 156 364 l 738 371 b 421 707 743 593 594 707 b 63 351 256 707 63 590 b 421 -14 63 108 242 -14 z m 156 401 b 408 679 161 589 286 679 b 643 401 536 679 639 588 z "},"ę":{"ha":800,"x_min":0,"x_max":0,"o":"m 421 707 b 63 351 256 707 63 590 b 403 -14 63 117 231 -6 b 310 -192 336 -87 310 -147 b 404 -276 310 -246 350 -276 b 556 -206 450 -276 506 -254 l 553 -187 b 450 -239 513 -224 476 -239 b 379 -146 404 -239 379 -199 b 428 -14 379 -106 394 -57 b 711 124 547 -12 644 33 l 694 133 b 450 15 635 56 544 15 b 157 351 318 15 174 135 b 156 371 157 358 156 364 l 738 371 b 421 707 743 593 594 707 z m 156 401 b 408 679 161 589 286 679 b 643 401 536 679 639 588 z "},"f":{"ha":419,"x_min":0,"x_max":0,"o":"m 46 0 l 321 0 l 321 7 b 231 178 231 28 231 72 l 231 694 l 354 694 l 354 725 l 231 725 b 264 929 231 799 233 881 b 340 971 282 957 313 971 b 396 940 364 971 385 961 b 463 843 417 901 410 843 b 514 893 485 843 514 861 b 510 913 514 899 513 906 b 364 994 493 957 442 994 b 221 944 311 994 258 978 b 136 725 171 901 138 850 l 56 725 l 56 694 l 136 694 l 136 178 b 46 7 136 72 136 28 z "},"g":{"ha":754,"x_min":0,"x_max":0,"o":"m 363 -354 b 664 -242 507 -354 610 -300 b 713 -117 697 -207 713 -162 b 606 43 713 -49 676 17 b 490 60 572 54 532 60 b 435 57 472 60 454 58 l 272 43 b 203 39 251 42 226 39 b 107 113 153 39 107 51 b 236 222 107 167 160 218 b 365 199 274 207 317 199 b 665 454 556 199 665 326 b 463 696 665 557 593 661 b 747 828 596 696 744 724 l 646 828 b 401 707 644 725 529 703 b 365 708 390 708 378 708 b 65 456 172 708 65 582 b 197 240 65 372 113 288 b 75 96 118 217 75 157 b 231 -39 75 26 140 -33 b 58 -171 132 -54 58 -107 b 363 -354 58 -293 221 -354 z m 389 225 b 163 483 240 225 163 367 b 342 681 163 582 217 681 b 569 428 492 681 569 543 b 389 225 569 326 514 225 z m 388 -335 b 338 -332 372 -335 356 -333 b 154 -169 221 -321 154 -239 b 299 -39 154 -100 188 -42 l 444 -39 b 650 -154 571 -39 650 -75 b 388 -335 650 -244 556 -335 z "},"ğ":{"ha":754,"x_min":0,"x_max":0,"o":"m 361 800 b 565 988 461 800 561 863 l 553 988 b 361 869 547 907 454 869 b 169 988 268 869 175 907 l 157 988 b 361 800 161 863 261 800 z m 363 -354 b 664 -242 507 -354 610 -300 b 713 -117 697 -207 713 -162 b 606 43 713 -49 676 17 b 490 60 572 54 532 60 b 435 57 472 60 454 58 l 272 43 b 203 39 251 42 226 39 b 107 113 153 39 107 51 b 236 222 107 167 160 218 b 365 199 274 207 317 199 b 665 454 556 199 665 326 b 463 696 665 557 593 661 b 747 828 596 696 744 724 l 646 828 b 401 707 644 725 529 703 b 365 708 390 708 378 708 b 65 456 172 708 65 582 b 197 240 65 372 113 288 b 75 96 118 217 75 157 b 231 -39 75 26 140 -33 b 58 -171 132 -54 58 -107 b 363 -354 58 -293 221 -354 z m 389 225 b 163 483 240 225 163 367 b 342 681 163 582 217 681 b 569 428 492 681 569 543 b 389 225 569 326 514 225 z m 388 -335 b 338 -332 372 -335 356 -333 b 154 -169 221 -321 154 -239 b 299 -39 154 -100 188 -42 l 444 -39 b 650 -154 571 -39 650 -75 b 388 -335 650 -244 556 -335 z "},"ģ":{"ha":754,"x_min":0,"x_max":0,"o":"m 363 -354 b 664 -242 507 -354 610 -300 b 713 -117 697 -207 713 -162 b 606 43 713 -49 676 17 b 490 60 572 54 532 60 b 435 57 472 60 454 58 l 272 43 b 203 39 251 42 226 39 b 107 113 153 39 107 51 b 236 222 107 167 160 218 b 365 199 274 207 317 199 b 665 454 556 199 665 326 b 463 696 665 557 593 661 b 747 828 596 696 744 724 l 646 828 b 401 707 644 725 529 703 b 365 708 390 708 378 708 b 65 456 172 708 65 582 b 197 240 65 372 113 288 b 75 96 118 217 75 157 b 231 -39 75 26 140 -33 b 58 -171 132 -54 58 -107 b 363 -354 58 -293 221 -354 z m 389 225 b 163 483 240 225 163 367 b 342 681 163 582 217 681 b 569 428 492 681 569 543 b 389 225 569 326 514 225 z m 388 -335 b 338 -332 372 -335 356 -333 b 154 -169 221 -321 154 -239 b 299 -39 154 -100 188 -42 l 444 -39 b 650 -154 571 -39 650 -75 b 388 -335 650 -244 556 -335 z m 385 -657 l 389 -657 b 471 -482 425 -619 471 -539 b 463 -447 471 -468 468 -457 b 403 -407 453 -424 429 -407 b 336 -474 364 -407 336 -437 b 385 -537 336 -504 356 -529 b 410 -583 401 -544 410 -562 b 385 -657 410 -606 401 -632 z "},"ġ":{"ha":754,"x_min":0,"x_max":0,"o":"m 356 790 b 424 858 394 790 424 819 b 353 926 424 897 393 926 b 288 858 315 926 288 894 b 356 790 288 819 317 790 z m 363 -354 b 664 -242 507 -354 610 -300 b 713 -117 697 -207 713 -162 b 606 43 713 -49 676 17 b 490 60 572 54 532 60 b 435 57 472 60 454 58 l 272 43 b 203 39 251 42 226 39 b 107 113 153 39 107 51 b 236 222 107 167 160 218 b 365 199 274 207 317 199 b 665 454 556 199 665 326 b 463 696 665 557 593 661 b 747 828 596 696 744 724 l 646 828 b 401 707 644 725 529 703 b 365 708 390 708 378 708 b 65 456 172 708 65 582 b 197 240 65 372 113 288 b 75 96 118 217 75 157 b 231 -39 75 26 140 -33 b 58 -171 132 -54 58 -107 b 363 -354 58 -293 221 -354 z m 389 225 b 163 483 240 225 163 367 b 342 681 163 582 217 681 b 569 428 492 681 569 543 b 389 225 569 326 514 225 z m 388 -335 b 338 -332 372 -335 356 -333 b 154 -169 221 -321 154 -239 b 299 -39 154 -100 188 -42 l 444 -39 b 650 -154 571 -39 650 -75 b 388 -335 650 -244 556 -335 z "},"h":{"ha":857,"x_min":0,"x_max":0,"o":"m 56 0 l 331 0 l 331 7 b 240 178 240 28 240 72 l 240 538 b 486 672 301 618 415 672 b 617 444 588 672 617 597 l 617 178 b 526 7 617 72 617 28 l 526 0 l 801 0 l 801 7 b 711 178 711 28 711 72 l 711 449 b 517 708 711 610 689 708 b 240 586 425 708 318 658 l 240 1042 l 56 986 l 56 972 b 146 882 132 972 146 949 l 146 178 b 56 7 146 72 146 28 z "},"ħ":{"ha":857,"x_min":0,"x_max":0,"o":"m 711 178 l 711 449 b 517 708 711 610 689 708 b 240 586 425 708 318 658 l 240 794 l 340 794 l 340 824 l 240 824 l 240 1042 l 56 986 l 56 972 b 146 882 132 972 146 949 l 146 824 l 56 824 l 56 794 l 146 794 l 146 178 b 56 7 146 72 146 28 l 56 0 l 331 0 l 331 7 b 240 178 240 28 240 72 l 240 538 b 486 672 301 618 415 672 b 617 444 588 672 617 597 l 617 178 b 526 7 617 72 617 28 l 526 0 l 801 0 l 801 7 b 711 178 711 28 711 72 z "},"i":{"ha":386,"x_min":0,"x_max":0,"o":"m 188 824 b 263 899 229 824 263 857 b 188 972 263 939 229 972 b 113 899 146 972 113 939 b 188 824 113 857 146 824 z m 56 0 l 331 0 l 331 7 b 240 178 240 28 240 72 l 240 708 l 56 653 l 56 639 b 146 549 132 639 146 615 l 146 178 b 56 7 146 72 146 28 z "},"ı":{"ha":386,"x_min":0,"x_max":0,"o":"m 56 0 l 331 0 l 331 7 b 240 178 240 28 240 72 l 240 708 l 56 653 l 56 639 b 146 549 132 639 146 615 l 146 178 b 56 7 146 72 146 28 z "},"í":{"ha":386,"x_min":0,"x_max":0,"o":"m 57 782 l 69 782 l 257 901 b 288 946 279 915 288 931 b 246 985 288 967 269 985 b 196 957 229 985 211 976 z m 56 0 l 331 0 l 331 7 b 240 178 240 28 240 72 l 240 708 l 56 653 l 56 639 b 146 549 132 639 146 615 l 146 178 b 56 7 146 72 146 28 z "},"î":{"ha":386,"x_min":0,"x_max":0,"o":"m -10 788 l 3 788 l 179 900 l 354 788 l 367 788 l 228 963 b 188 989 215 979 200 988 b 179 990 185 990 182 990 b 169 989 175 990 172 990 b 129 963 157 988 142 979 z m 56 0 l 331 0 l 331 7 b 240 178 240 28 240 72 l 240 708 l 56 653 l 56 639 b 146 549 132 639 146 615 l 146 178 b 56 7 146 72 146 28 z "},"ï":{"ha":386,"x_min":0,"x_max":0,"o":"m 78 793 b 146 861 117 793 146 822 b 75 929 146 900 115 929 b 10 861 38 929 10 897 b 78 793 10 822 39 793 z m 308 793 b 376 861 346 793 376 822 b 308 928 376 899 346 928 b 240 861 269 928 240 899 b 308 793 240 822 269 793 z m 56 0 l 331 0 l 331 7 b 240 178 240 28 240 72 l 240 708 l 56 653 l 56 639 b 146 549 132 639 146 615 l 146 178 b 56 7 146 72 146 28 z "},"ì":{"ha":386,"x_min":0,"x_max":0,"o":"m 251 792 l 264 792 l 125 967 b 75 994 110 986 92 994 b 33 956 53 994 33 978 b 64 911 33 942 42 925 z m 56 0 l 331 0 l 331 7 b 240 178 240 28 240 72 l 240 708 l 56 653 l 56 639 b 146 549 132 639 146 615 l 146 178 b 56 7 146 72 146 28 z "},"ī":{"ha":386,"x_min":0,"x_max":0,"o":"m 25 799 l 331 799 l 331 846 l 25 846 z m 56 0 l 331 0 l 331 7 b 240 178 240 28 240 72 l 240 708 l 56 653 l 56 639 b 146 549 132 639 146 615 l 146 178 b 56 7 146 72 146 28 z "},"į":{"ha":386,"x_min":0,"x_max":0,"o":"m 188 824 b 263 899 229 824 263 857 b 188 972 263 939 229 972 b 113 899 146 972 113 939 b 188 824 113 857 146 824 z m 331 0 l 331 7 b 240 178 240 28 240 72 l 240 708 l 56 653 l 56 639 b 146 549 132 639 146 615 l 146 178 b 56 7 146 72 146 28 l 56 0 l 188 0 b 83 -190 113 -79 83 -143 b 178 -275 83 -244 124 -275 b 329 -204 224 -275 279 -253 l 326 -186 b 224 -237 286 -222 250 -237 b 153 -144 178 -237 153 -197 b 211 0 153 -100 171 -46 z "},"j":{"ha":349,"x_min":0,"x_max":0,"o":"m 188 824 b 263 899 229 824 263 857 b 188 972 263 939 229 972 b 113 899 146 972 113 939 b 188 824 113 857 146 824 z m 17 -269 b 240 51 179 -228 240 -106 l 240 708 l 56 653 l 56 639 b 146 549 132 639 146 615 l 146 -3 b 17 -258 146 -76 140 -217 z "},"k":{"ha":851,"x_min":0,"x_max":0,"o":"m 56 0 l 331 0 l 331 7 b 240 178 240 28 240 72 l 240 1042 l 56 986 l 56 972 b 146 882 132 972 146 949 l 146 178 b 56 7 146 72 146 28 z m 722 0 l 810 0 l 810 14 b 649 108 746 14 676 81 l 339 419 l 601 626 b 760 688 631 649 688 688 l 760 694 l 533 694 l 533 688 b 576 664 565 688 576 676 b 553 626 576 651 567 638 l 243 386 l 547 82 b 722 0 619 10 653 0 z "},"ķ":{"ha":851,"x_min":0,"x_max":0,"o":"m 56 0 l 331 0 l 331 7 b 240 178 240 28 240 72 l 240 1042 l 56 986 l 56 972 b 146 882 132 972 146 949 l 146 178 b 56 7 146 72 146 28 z m 722 0 l 810 0 l 810 14 b 649 108 746 14 676 81 l 339 419 l 601 626 b 760 688 631 649 688 688 l 760 694 l 533 694 l 533 688 b 576 664 565 688 576 676 b 553 626 576 651 567 638 l 243 386 l 547 82 b 722 0 619 10 653 0 z m 456 -339 l 460 -339 b 542 -164 496 -301 542 -221 b 533 -129 542 -150 539 -139 b 474 -89 524 -106 500 -89 b 407 -156 435 -89 407 -119 b 456 -219 407 -186 426 -211 b 481 -265 472 -226 481 -244 b 456 -339 481 -287 472 -314 z "},"l":{"ha":386,"x_min":0,"x_max":0,"o":"m 56 0 l 331 0 l 331 7 b 240 178 240 28 240 72 l 240 1042 l 56 986 l 56 972 b 146 882 132 972 146 949 l 146 178 b 56 7 146 72 146 28 z "},"ĺ":{"ha":386,"x_min":0,"x_max":0,"o":"m 43 1069 l 56 1069 l 243 1189 b 274 1233 265 1203 274 1218 b 232 1272 274 1254 256 1272 b 182 1244 215 1272 197 1264 z m 56 0 l 331 0 l 331 7 b 240 178 240 28 240 72 l 240 1042 l 56 986 l 56 972 b 146 882 132 972 146 949 l 146 178 b 56 7 146 72 146 28 z "},"ľ":{"ha":386,"x_min":0,"x_max":0,"o":"m 56 0 l 331 0 l 331 7 b 240 178 240 28 240 72 l 240 1042 l 56 986 l 56 972 b 146 882 132 972 146 949 l 146 178 b 56 7 146 72 146 28 z m 353 790 l 357 790 b 439 965 393 828 439 908 b 431 1000 439 979 436 990 b 371 1040 421 1024 397 1040 b 304 974 332 1040 304 1010 b 353 910 304 943 324 918 b 378 864 369 903 378 885 b 353 790 378 842 369 815 z "},"ļ":{"ha":386,"x_min":0,"x_max":0,"o":"m 56 0 l 331 0 l 331 7 b 240 178 240 28 240 72 l 240 1042 l 56 986 l 56 972 b 146 882 132 972 146 949 l 146 178 b 56 7 146 72 146 28 z m 183 -344 l 188 -344 b 269 -169 224 -307 269 -226 b 261 -135 269 -156 267 -144 b 201 -94 251 -111 228 -94 b 135 -161 163 -94 135 -125 b 183 -225 135 -192 154 -217 b 208 -271 200 -232 208 -250 b 183 -344 208 -293 200 -319 z "},"ł":{"ha":386,"x_min":0,"x_max":0,"o":"m 240 178 l 240 400 l 335 499 l 314 519 l 240 443 l 240 1042 l 56 986 l 56 972 b 146 882 132 972 146 949 l 146 344 l 61 256 l 82 236 l 146 303 l 146 178 b 56 7 146 72 146 28 l 56 0 l 331 0 l 331 7 b 240 178 240 28 240 72 z "},"m":{"ha":1300,"x_min":0,"x_max":0,"o":"m 56 0 l 331 0 l 331 7 b 240 178 240 28 240 72 l 240 538 b 481 672 300 614 410 672 b 603 444 581 672 603 597 l 603 178 b 513 7 603 72 603 28 l 513 0 l 788 0 l 788 7 b 697 178 697 28 697 72 l 697 449 b 693 538 697 481 696 510 l 694 533 b 938 672 754 613 865 672 b 1060 444 1038 672 1060 597 l 1060 178 b 969 7 1060 72 1060 28 l 969 0 l 1244 0 l 1244 7 b 1154 178 1154 28 1154 72 l 1154 449 b 960 708 1154 610 1132 708 b 688 576 864 708 765 654 b 503 708 669 660 624 708 b 240 586 411 708 317 658 l 240 708 l 56 653 l 56 639 b 146 549 132 639 146 615 l 146 178 b 56 7 146 72 146 28 z "},"n":{"ha":857,"x_min":0,"x_max":0,"o":"m 56 0 l 331 0 l 331 7 b 240 178 240 28 240 72 l 240 538 b 486 672 301 618 415 672 b 617 444 588 672 617 597 l 617 178 b 526 7 617 72 617 28 l 526 0 l 801 0 l 801 7 b 711 178 711 28 711 72 l 711 449 b 517 708 711 610 689 708 b 240 586 425 708 318 658 l 240 708 l 56 653 l 56 639 b 146 549 132 639 146 615 l 146 178 b 56 7 146 72 146 28 z "},"ń":{"ha":857,"x_min":0,"x_max":0,"o":"m 328 790 l 340 790 l 528 910 b 558 954 550 924 558 939 b 517 993 558 975 540 993 b 467 965 500 993 482 985 z m 56 0 l 331 0 l 331 7 b 240 178 240 28 240 72 l 240 538 b 486 672 301 618 415 672 b 617 444 588 672 617 597 l 617 178 b 526 7 617 72 617 28 l 526 0 l 801 0 l 801 7 b 711 178 711 28 711 72 l 711 449 b 517 708 711 610 689 708 b 240 586 425 708 318 658 l 240 708 l 56 653 l 56 639 b 146 549 132 639 146 615 l 146 178 b 56 7 146 72 146 28 z "},"ň":{"ha":857,"x_min":0,"x_max":0,"o":"m 429 792 b 438 793 432 792 435 792 b 478 819 450 794 465 803 l 617 994 l 604 994 l 429 882 l 253 994 l 240 994 l 379 819 b 419 793 392 803 407 794 b 429 792 422 792 425 792 z m 56 0 l 331 0 l 331 7 b 240 178 240 28 240 72 l 240 538 b 486 672 301 618 415 672 b 617 444 588 672 617 597 l 617 178 b 526 7 617 72 617 28 l 526 0 l 801 0 l 801 7 b 711 178 711 28 711 72 l 711 449 b 517 708 711 610 689 708 b 240 586 425 708 318 658 l 240 708 l 56 653 l 56 639 b 146 549 132 639 146 615 l 146 178 b 56 7 146 72 146 28 z "},"ņ":{"ha":857,"x_min":0,"x_max":0,"o":"m 56 0 l 331 0 l 331 7 b 240 178 240 28 240 72 l 240 538 b 486 672 301 618 415 672 b 617 444 588 672 617 597 l 617 178 b 526 7 617 72 617 28 l 526 0 l 801 0 l 801 7 b 711 178 711 28 711 72 l 711 449 b 517 708 711 610 689 708 b 240 586 425 708 318 658 l 240 708 l 56 653 l 56 639 b 146 549 132 639 146 615 l 146 178 b 56 7 146 72 146 28 z m 413 -344 l 417 -344 b 499 -169 453 -307 499 -226 b 490 -135 499 -156 496 -144 b 431 -94 481 -111 457 -94 b 364 -161 392 -94 364 -125 b 413 -225 364 -192 383 -217 b 438 -271 429 -232 438 -250 b 413 -344 438 -293 429 -319 z "},"ŋ":{"ha":829,"x_min":0,"x_max":0,"o":"m 493 -268 b 711 53 656 -226 711 -104 l 711 449 b 517 708 711 610 689 708 b 240 586 425 708 318 658 l 240 708 l 56 653 l 56 639 b 146 549 132 639 146 615 l 146 178 b 56 7 146 72 146 28 l 56 0 l 331 0 l 331 7 b 240 178 240 28 240 72 l 240 538 b 486 672 301 618 415 672 b 617 444 588 672 617 597 l 617 -1 b 493 -254 617 -33 617 -212 z "},"ñ":{"ha":857,"x_min":0,"x_max":0,"o":"m 229 790 l 240 790 b 299 857 242 840 265 857 b 554 793 367 857 478 793 b 638 904 603 793 638 819 l 629 904 b 575 853 626 865 606 853 b 319 911 508 853 397 911 b 229 790 267 911 228 883 z m 56 0 l 331 0 l 331 7 b 240 178 240 28 240 72 l 240 538 b 486 672 301 618 415 672 b 617 444 588 672 617 597 l 617 178 b 526 7 617 72 617 28 l 526 0 l 801 0 l 801 7 b 711 178 711 28 711 72 l 711 449 b 517 708 711 610 689 708 b 240 586 425 708 318 658 l 240 708 l 56 653 l 56 639 b 146 549 132 639 146 615 l 146 178 b 56 7 146 72 146 28 z "},"o":{"ha":842,"x_min":0,"x_max":0,"o":"m 421 -14 b 779 351 600 -14 779 108 b 421 707 779 590 600 707 b 63 351 242 707 63 590 b 421 -14 63 108 242 -14 z m 450 15 b 157 351 304 15 174 135 b 156 389 156 364 156 376 b 392 679 156 578 274 679 b 685 351 538 679 667 564 b 686 311 686 338 686 324 b 450 15 686 119 568 15 z "},"ó":{"ha":842,"x_min":0,"x_max":0,"o":"m 282 790 l 294 790 l 482 910 b 513 954 504 924 513 939 b 471 993 513 975 494 993 b 421 965 454 993 436 985 z m 421 -14 b 779 351 600 -14 779 108 b 421 707 779 590 600 707 b 63 351 242 707 63 590 b 421 -14 63 108 242 -14 z m 450 15 b 157 351 304 15 174 135 b 156 389 156 364 156 376 b 392 679 156 578 274 679 b 685 351 538 679 667 564 b 686 311 686 338 686 324 b 450 15 686 119 568 15 z "},"ô":{"ha":842,"x_min":0,"x_max":0,"o":"m 215 789 l 228 789 l 404 901 l 579 789 l 592 789 l 453 964 b 413 990 440 981 425 989 b 404 992 410 992 407 992 b 394 990 400 992 397 992 b 354 964 382 989 367 981 z m 421 -14 b 779 351 600 -14 779 108 b 421 707 779 590 600 707 b 63 351 242 707 63 590 b 421 -14 63 108 242 -14 z m 450 15 b 157 351 304 15 174 135 b 156 389 156 364 156 376 b 392 679 156 578 274 679 b 685 351 538 679 667 564 b 686 311 686 338 686 324 b 450 15 686 119 568 15 z "},"ö":{"ha":842,"x_min":0,"x_max":0,"o":"m 307 793 b 375 861 346 793 375 822 b 304 929 375 900 344 929 b 239 861 267 929 239 897 b 307 793 239 822 268 793 z m 538 793 b 606 861 575 793 606 822 b 538 928 606 899 575 928 b 469 861 499 928 469 899 b 538 793 469 822 499 793 z m 421 -14 b 779 351 600 -14 779 108 b 421 707 779 590 600 707 b 63 351 242 707 63 590 b 421 -14 63 108 242 -14 z m 450 15 b 157 351 304 15 174 135 b 156 389 156 364 156 376 b 392 679 156 578 274 679 b 685 351 538 679 667 564 b 686 311 686 338 686 324 b 450 15 686 119 568 15 z "},"ò":{"ha":842,"x_min":0,"x_max":0,"o":"m 517 790 l 529 790 l 390 965 b 340 993 375 985 357 993 b 299 954 318 993 299 976 b 329 910 299 940 307 924 z m 421 -14 b 779 351 600 -14 779 108 b 421 707 779 590 600 707 b 63 351 242 707 63 590 b 421 -14 63 108 242 -14 z m 450 15 b 157 351 304 15 174 135 b 156 389 156 364 156 376 b 392 679 156 578 274 679 b 685 351 538 679 667 564 b 686 311 686 338 686 324 b 450 15 686 119 568 15 z "},"ő":{"ha":842,"x_min":0,"x_max":0,"o":"m 300 793 l 313 793 l 500 913 b 531 957 522 926 531 942 b 489 996 531 978 513 996 b 439 968 472 996 454 988 z m 453 793 l 465 793 l 653 913 b 683 957 675 926 683 942 b 642 996 683 978 665 996 b 592 968 625 996 607 988 z m 421 -14 b 779 351 600 -14 779 108 b 421 707 779 590 600 707 b 63 351 242 707 63 590 b 421 -14 63 108 242 -14 z m 450 15 b 157 351 304 15 174 135 b 156 389 156 364 156 376 b 392 679 156 578 274 679 b 685 351 538 679 667 564 b 686 311 686 338 686 324 b 450 15 686 119 568 15 z "},"ō":{"ha":842,"x_min":0,"x_max":0,"o":"m 204 796 l 613 796 l 613 843 l 204 843 z m 421 -14 b 779 351 600 -14 779 108 b 421 707 779 590 600 707 b 63 351 242 707 63 590 b 421 -14 63 108 242 -14 z m 450 15 b 157 351 304 15 174 135 b 156 389 156 364 156 376 b 392 679 156 578 274 679 b 685 351 538 679 667 564 b 686 311 686 338 686 324 b 450 15 686 119 568 15 z "},"ø":{"ha":842,"x_min":0,"x_max":0,"o":"m 688 600 l 772 694 l 732 694 l 665 621 b 421 707 599 678 510 707 b 63 351 242 707 63 590 b 175 76 63 229 107 138 l 83 -25 l 122 -25 l 197 58 b 421 -14 261 10 342 -14 b 779 351 600 -14 779 108 b 688 600 779 458 743 542 z m 157 351 b 156 389 156 364 156 376 b 392 679 156 578 274 679 b 613 563 478 679 558 639 l 228 136 b 157 351 190 190 164 263 z m 450 15 b 246 113 372 15 300 49 l 629 536 b 685 351 658 488 678 425 b 686 311 686 338 686 324 b 450 15 686 119 568 15 z "},"õ":{"ha":842,"x_min":0,"x_max":0,"o":"m 210 786 l 221 786 b 279 853 222 836 246 853 b 535 789 347 853 458 789 b 618 900 583 789 618 815 l 610 900 b 556 849 607 861 586 849 b 300 907 489 849 378 907 b 210 786 247 907 208 879 z m 421 -14 b 779 351 600 -14 779 108 b 421 707 779 590 600 707 b 63 351 242 707 63 590 b 421 -14 63 108 242 -14 z m 450 15 b 157 351 304 15 174 135 b 156 389 156 364 156 376 b 392 679 156 578 274 679 b 685 351 538 679 667 564 b 686 311 686 338 686 324 b 450 15 686 119 568 15 z "},"œ":{"ha":1424,"x_min":0,"x_max":0,"o":"m 421 -14 b 733 160 544 -14 668 44 b 1044 -14 797 44 921 -14 b 1335 124 1168 -14 1267 32 l 1318 133 b 1074 15 1258 56 1168 15 b 781 351 942 15 797 135 b 779 371 781 358 779 364 l 1361 371 b 1044 707 1367 593 1218 707 b 733 536 929 707 801 651 b 421 707 669 651 546 707 b 63 351 242 707 63 590 b 421 -14 63 108 242 -14 z m 450 15 b 157 351 304 15 174 135 b 156 389 156 364 156 376 b 392 679 156 578 274 679 b 685 351 538 679 667 564 b 686 311 686 338 686 324 b 450 15 686 119 568 15 z m 779 401 b 1032 679 785 589 910 679 b 1267 401 1160 679 1263 588 z "},"p":{"ha":851,"x_min":0,"x_max":0,"o":"m 56 -343 l 331 -343 l 331 -336 b 240 -165 240 -315 240 -271 l 240 74 b 461 -14 311 10 385 -14 b 789 361 676 -14 789 176 b 476 708 789 536 688 708 b 240 613 390 708 314 679 l 240 708 l 56 653 l 56 639 b 146 549 132 639 146 615 l 146 -165 b 56 -336 146 -271 146 -315 z m 446 22 b 240 129 389 22 300 49 l 240 564 b 454 672 307 642 383 672 b 690 321 599 672 690 492 b 446 22 690 168 618 22 z "},"þ":{"ha":851,"x_min":0,"x_max":0,"o":"m 56 -343 l 331 -343 l 331 -336 b 240 -165 240 -315 240 -271 l 240 74 b 461 -14 311 10 385 -14 b 789 361 676 -14 789 176 b 476 708 789 536 688 708 b 240 613 390 708 314 679 l 240 1042 l 56 986 l 56 972 b 146 882 132 972 146 949 l 146 -165 b 56 -336 146 -271 146 -315 z m 446 22 b 240 129 389 22 300 49 l 240 564 b 454 672 307 642 383 672 b 690 321 599 672 690 492 b 446 22 690 168 618 22 z "},"q":{"ha":833,"x_min":0,"x_max":0,"o":"m 503 -343 l 778 -343 l 778 -336 b 688 -165 688 -315 688 -271 l 688 708 l 679 708 l 601 629 b 397 708 543 686 471 708 b 63 358 214 708 63 586 b 375 -14 63 119 210 -14 b 593 108 481 -14 553 38 l 593 -165 b 503 -336 593 -271 593 -315 z m 403 22 b 153 365 244 22 153 174 b 406 675 153 540 249 675 b 593 581 478 675 549 650 l 593 200 b 403 22 578 97 490 22 z "},"r":{"ha":685,"x_min":0,"x_max":0,"o":"m 56 0 l 331 0 l 331 7 b 240 178 240 28 240 72 l 240 476 b 475 671 278 557 392 671 b 589 553 561 671 533 572 b 607 550 594 551 601 550 b 657 607 635 550 657 575 b 517 708 657 646 613 708 b 469 704 503 708 486 707 b 240 533 379 686 288 601 l 240 708 l 56 653 l 56 639 b 146 549 132 639 146 615 l 146 178 b 56 7 146 72 146 28 z "},"ŕ":{"ha":685,"x_min":0,"x_max":0,"o":"m 258 794 l 271 794 l 458 914 b 489 958 481 928 489 943 b 447 997 489 979 471 997 b 397 969 431 997 413 989 z m 56 0 l 331 0 l 331 7 b 240 178 240 28 240 72 l 240 476 b 475 671 278 557 392 671 b 589 553 561 671 533 572 b 607 550 594 551 601 550 b 657 607 635 550 657 575 b 517 708 657 646 613 708 b 469 704 503 708 486 707 b 240 533 379 686 288 601 l 240 708 l 56 653 l 56 639 b 146 549 132 639 146 615 l 146 178 b 56 7 146 72 146 28 z "},"ř":{"ha":685,"x_min":0,"x_max":0,"o":"m 347 790 b 356 792 350 790 353 790 b 396 818 368 793 383 801 l 535 993 l 522 993 l 347 881 l 171 993 l 158 993 l 297 818 b 338 792 310 801 325 793 b 347 790 340 790 343 790 z m 56 0 l 331 0 l 331 7 b 240 178 240 28 240 72 l 240 476 b 475 671 278 557 392 671 b 589 553 561 671 533 572 b 607 550 594 551 601 550 b 657 607 635 550 657 575 b 517 708 657 646 613 708 b 469 704 503 708 486 707 b 240 533 379 686 288 601 l 240 708 l 56 653 l 56 639 b 146 549 132 639 146 615 l 146 178 b 56 7 146 72 146 28 z "},"ŗ":{"ha":685,"x_min":0,"x_max":0,"o":"m 56 0 l 331 0 l 331 7 b 240 178 240 28 240 72 l 240 476 b 475 671 278 557 392 671 b 589 553 561 671 533 572 b 607 550 594 551 601 550 b 657 607 635 550 657 575 b 517 708 657 646 613 708 b 469 704 503 708 486 707 b 240 533 379 686 288 601 l 240 708 l 56 653 l 56 639 b 146 549 132 639 146 615 l 146 178 b 56 7 146 72 146 28 z m 178 -335 l 182 -335 b 264 -160 218 -297 264 -217 b 256 -125 264 -146 261 -135 b 196 -85 246 -101 222 -85 b 129 -151 157 -85 129 -115 b 178 -215 129 -182 149 -207 b 203 -261 194 -222 203 -240 b 178 -335 203 -283 194 -310 z "},"s":{"ha":633,"x_min":0,"x_max":0,"o":"m 317 -12 b 578 188 467 -12 578 60 b 135 531 578 442 157 354 b 133 551 133 536 133 546 b 189 647 133 596 156 626 b 321 681 222 668 274 681 b 417 657 358 681 394 672 b 490 532 465 624 453 560 b 522 521 499 525 510 521 b 564 563 543 521 564 535 b 326 707 564 631 472 707 b 63 510 189 707 63 639 b 504 160 63 267 501 347 b 460 54 504 111 489 76 b 317 17 429 29 372 17 b 200 43 271 17 226 25 b 132 165 156 74 175 122 b 100 179 122 175 111 179 b 56 133 78 179 56 161 b 317 -12 56 64 161 -12 z "},"ś":{"ha":633,"x_min":0,"x_max":0,"o":"m 219 790 l 232 790 l 419 910 b 450 954 442 924 450 939 b 408 993 450 975 432 993 b 358 965 392 993 374 985 z m 317 -12 b 578 188 467 -12 578 60 b 135 531 578 442 157 354 b 133 551 133 536 133 546 b 189 647 133 596 156 626 b 321 681 222 668 274 681 b 417 657 358 681 394 672 b 490 532 465 624 453 560 b 522 521 499 525 510 521 b 564 563 543 521 564 535 b 326 707 564 631 472 707 b 63 510 189 707 63 639 b 504 160 63 267 501 347 b 460 54 504 111 489 76 b 317 17 429 29 372 17 b 200 43 271 17 226 25 b 132 165 156 74 175 122 b 100 179 122 175 111 179 b 56 133 78 179 56 161 b 317 -12 56 64 161 -12 z "},"š":{"ha":633,"x_min":0,"x_max":0,"o":"m 311 789 b 319 790 314 789 317 789 b 360 817 332 792 347 800 l 499 992 l 486 992 l 311 879 l 135 992 l 122 992 l 261 817 b 301 790 274 800 289 792 b 311 789 304 789 307 789 z m 317 -12 b 578 188 467 -12 578 60 b 135 531 578 442 157 354 b 133 551 133 536 133 546 b 189 647 133 596 156 626 b 321 681 222 668 274 681 b 417 657 358 681 394 672 b 490 532 465 624 453 560 b 522 521 499 525 510 521 b 564 563 543 521 564 535 b 326 707 564 631 472 707 b 63 510 189 707 63 639 b 504 160 63 267 501 347 b 460 54 504 111 489 76 b 317 17 429 29 372 17 b 200 43 271 17 226 25 b 132 165 156 74 175 122 b 100 179 122 175 111 179 b 56 133 78 179 56 161 b 317 -12 56 64 161 -12 z "},"ş":{"ha":633,"x_min":0,"x_max":0,"o":"m 578 188 b 135 531 578 442 157 354 b 133 551 133 536 133 546 b 189 647 133 596 156 626 b 321 681 222 668 274 681 b 417 657 358 681 394 672 b 490 532 465 624 453 560 b 522 521 499 525 510 521 b 564 563 543 521 564 535 b 326 707 564 631 472 707 b 63 510 189 707 63 639 b 504 160 63 267 501 347 b 460 54 504 111 489 76 b 317 17 429 29 372 17 b 200 43 271 17 226 25 b 132 165 156 74 175 122 b 100 179 122 175 111 179 b 56 133 78 179 56 161 b 317 -12 56 64 161 -12 l 333 -12 l 247 -96 b 285 -90 261 -92 274 -90 b 364 -175 339 -90 364 -132 b 296 -257 364 -215 342 -254 b 192 -228 271 -258 235 -258 l 186 -233 b 315 -283 219 -267 268 -283 b 457 -167 389 -283 457 -244 b 346 -69 457 -129 417 -69 b 325 -71 339 -69 332 -69 l 356 -11 b 578 188 486 1 578 71 z "},"ș":{"ha":633,"x_min":0,"x_max":0,"o":"m 317 -12 b 578 188 467 -12 578 60 b 135 531 578 442 157 354 b 133 551 133 536 133 546 b 189 647 133 596 156 626 b 321 681 222 668 274 681 b 417 657 358 681 394 672 b 490 532 465 624 453 560 b 522 521 499 525 510 521 b 564 563 543 521 564 535 b 326 707 564 631 472 707 b 63 510 189 707 63 639 b 504 160 63 267 501 347 b 460 54 504 111 489 76 b 317 17 429 29 372 17 b 200 43 271 17 226 25 b 132 165 156 74 175 122 b 100 179 122 175 111 179 b 56 133 78 179 56 161 b 317 -12 56 64 161 -12 z m 282 -335 l 286 -335 b 368 -160 322 -297 368 -217 b 360 -125 368 -146 365 -135 b 300 -85 350 -101 326 -85 b 233 -151 261 -85 233 -115 b 282 -215 233 -182 253 -207 b 307 -261 299 -222 307 -240 b 282 -335 307 -283 299 -310 z "},"ß":{"ha":843,"x_min":0,"x_max":0,"o":"m 554 -12 b 801 188 690 -12 801 60 b 429 569 801 440 475 400 b 615 813 606 753 615 758 b 404 988 615 896 529 988 b 136 725 244 988 140 881 l 56 725 l 56 694 l 136 694 l 136 178 b 46 7 136 72 136 28 l 46 0 l 321 0 l 321 7 b 231 178 231 28 231 72 l 231 717 b 411 963 231 840 269 963 b 588 806 513 963 588 890 b 360 538 588 761 571 747 b 728 154 394 329 728 339 b 683 53 728 108 711 75 b 558 17 653 29 606 17 b 454 43 519 17 481 25 b 386 165 410 74 429 122 b 354 179 376 175 365 179 b 310 133 332 179 310 161 b 554 -12 310 64 415 -12 z "},"t":{"ha":475,"x_min":0,"x_max":0,"o":"m 293 -14 b 447 76 383 -14 429 33 l 431 83 b 319 18 414 40 365 18 b 225 164 235 18 225 92 l 225 694 l 388 694 l 388 725 l 225 718 l 225 826 l 211 826 b 56 708 183 757 114 708 l 56 694 l 131 694 l 131 169 b 293 -14 131 63 171 -14 z "},"ŧ":{"ha":475,"x_min":0,"x_max":0,"o":"m 431 83 b 319 18 414 40 365 18 b 225 164 235 18 225 92 l 225 428 l 371 428 l 371 451 l 225 451 l 225 694 l 388 694 l 388 725 l 225 718 l 225 826 l 211 826 b 56 708 183 757 114 708 l 56 694 l 131 694 l 131 451 l 61 451 l 61 428 l 131 428 l 131 169 b 293 -14 131 63 171 -14 b 447 76 383 -14 429 33 z "},"ť":{"ha":475,"x_min":0,"x_max":0,"o":"m 342 789 l 346 789 b 428 964 382 826 428 907 b 419 999 428 978 425 989 b 360 1039 410 1022 386 1039 b 293 972 321 1039 293 1008 b 342 908 293 942 313 917 b 367 863 358 901 367 883 b 342 789 367 840 358 814 z m 293 -14 b 447 76 383 -14 429 33 l 431 83 b 319 18 414 40 365 18 b 225 164 235 18 225 92 l 225 694 l 388 694 l 388 725 l 225 718 l 225 826 l 211 826 b 56 708 183 757 114 708 l 56 694 l 131 694 l 131 169 b 293 -14 131 63 171 -14 z "},"ţ":{"ha":475,"x_min":0,"x_max":0,"o":"m 447 76 l 431 83 b 319 18 414 40 365 18 b 225 164 235 18 225 92 l 225 694 l 388 694 l 388 725 l 225 718 l 225 826 l 211 826 b 56 708 183 757 114 708 l 56 694 l 131 694 l 131 169 b 283 -14 131 65 168 -10 l 196 -99 b 233 -93 210 -94 222 -93 b 313 -178 288 -93 313 -135 b 244 -260 313 -218 290 -257 b 140 -231 219 -261 183 -261 l 135 -236 b 264 -286 168 -269 217 -286 b 406 -169 338 -286 406 -247 b 294 -72 406 -132 365 -72 b 274 -74 288 -72 281 -72 l 304 -14 b 447 76 388 -10 431 35 z "},"ț":{"ha":475,"x_min":0,"x_max":0,"o":"m 293 -14 b 447 76 383 -14 429 33 l 431 83 b 319 18 414 40 365 18 b 225 164 235 18 225 92 l 225 694 l 388 694 l 388 725 l 225 718 l 225 826 l 211 826 b 56 708 183 757 114 708 l 56 694 l 131 694 l 131 169 b 293 -14 131 63 171 -14 z m 283 -333 l 288 -333 b 369 -158 324 -296 369 -215 b 361 -124 369 -144 367 -133 b 301 -83 351 -100 328 -83 b 235 -150 263 -83 235 -114 b 283 -214 235 -181 254 -206 b 308 -260 300 -221 308 -239 b 283 -333 308 -282 300 -308 z "},"u":{"ha":836,"x_min":0,"x_max":0,"o":"m 319 -14 b 596 108 411 -14 518 36 l 596 0 l 781 0 l 781 7 b 690 178 690 28 690 72 l 690 708 l 506 653 l 506 639 b 596 549 582 639 596 615 l 596 157 b 350 22 535 76 421 22 b 219 250 249 22 219 97 l 219 708 l 35 653 l 35 639 b 125 549 111 639 125 615 l 125 246 b 319 -14 125 85 147 -14 z "},"ú":{"ha":836,"x_min":0,"x_max":0,"o":"m 324 793 l 336 793 l 524 913 b 554 957 546 926 554 942 b 513 996 554 978 536 996 b 463 968 496 996 478 988 z m 319 -14 b 596 108 411 -14 518 36 l 596 0 l 781 0 l 781 7 b 690 178 690 28 690 72 l 690 708 l 506 653 l 506 639 b 596 549 582 639 596 615 l 596 157 b 350 22 535 76 421 22 b 219 250 249 22 219 97 l 219 708 l 35 653 l 35 639 b 125 549 111 639 125 615 l 125 246 b 319 -14 125 85 147 -14 z "},"û":{"ha":836,"x_min":0,"x_max":0,"o":"m 204 793 l 217 793 l 393 906 l 568 793 l 581 793 l 442 968 b 401 994 429 985 414 993 b 393 996 399 996 396 996 b 383 994 389 996 386 996 b 343 968 371 993 356 985 z m 319 -14 b 596 108 411 -14 518 36 l 596 0 l 781 0 l 781 7 b 690 178 690 28 690 72 l 690 708 l 506 653 l 506 639 b 596 549 582 639 596 615 l 596 157 b 350 22 535 76 421 22 b 219 250 249 22 219 97 l 219 708 l 35 653 l 35 639 b 125 549 111 639 125 615 l 125 246 b 319 -14 125 85 147 -14 z "},"ü":{"ha":836,"x_min":0,"x_max":0,"o":"m 290 790 b 358 858 329 790 358 819 b 288 926 358 897 328 926 b 222 858 250 926 222 894 b 290 790 222 819 251 790 z m 521 790 b 589 858 558 790 589 819 b 521 925 589 896 558 925 b 453 858 482 925 453 896 b 521 790 453 819 482 790 z m 319 -14 b 596 108 411 -14 518 36 l 596 0 l 781 0 l 781 7 b 690 178 690 28 690 72 l 690 708 l 506 653 l 506 639 b 596 549 582 639 596 615 l 596 157 b 350 22 535 76 421 22 b 219 250 249 22 219 97 l 219 708 l 35 653 l 35 639 b 125 549 111 639 125 615 l 125 246 b 319 -14 125 85 147 -14 z "},"ù":{"ha":836,"x_min":0,"x_max":0,"o":"m 450 793 l 463 793 l 324 968 b 274 996 308 988 290 996 b 232 957 251 996 232 979 b 263 913 232 943 240 926 z m 319 -14 b 596 108 411 -14 518 36 l 596 0 l 781 0 l 781 7 b 690 178 690 28 690 72 l 690 708 l 506 653 l 506 639 b 596 549 582 639 596 615 l 596 157 b 350 22 535 76 421 22 b 219 250 249 22 219 97 l 219 708 l 35 653 l 35 639 b 125 549 111 639 125 615 l 125 246 b 319 -14 125 85 147 -14 z "},"ű":{"ha":836,"x_min":0,"x_max":0,"o":"m 238 794 l 250 794 l 438 914 b 468 958 460 928 468 943 b 426 997 468 979 450 997 b 376 969 410 997 392 989 z m 390 794 l 403 794 l 590 914 b 621 958 613 928 621 943 b 579 997 621 979 603 997 b 529 969 563 997 544 989 z m 319 -14 b 596 108 411 -14 518 36 l 596 0 l 781 0 l 781 7 b 690 178 690 28 690 72 l 690 708 l 506 653 l 506 639 b 596 549 582 639 596 615 l 596 157 b 350 22 535 76 421 22 b 219 250 249 22 219 97 l 219 708 l 35 653 l 35 639 b 125 549 111 639 125 615 l 125 246 b 319 -14 125 85 147 -14 z "},"ū":{"ha":836,"x_min":0,"x_max":0,"o":"m 185 792 l 593 792 l 593 839 l 185 839 z m 319 -14 b 596 108 411 -14 518 36 l 596 0 l 781 0 l 781 7 b 690 178 690 28 690 72 l 690 708 l 506 653 l 506 639 b 596 549 582 639 596 615 l 596 157 b 350 22 535 76 421 22 b 219 250 249 22 219 97 l 219 708 l 35 653 l 35 639 b 125 549 111 639 125 615 l 125 246 b 319 -14 125 85 147 -14 z "},"ų":{"ha":836,"x_min":0,"x_max":0,"o":"m 796 -176 b 693 -228 756 -212 719 -228 b 622 -135 647 -228 622 -187 b 672 0 622 -93 638 -43 l 781 0 l 781 7 b 690 178 690 28 690 72 l 690 708 l 506 653 l 506 639 b 596 549 582 639 596 615 l 596 157 b 350 22 535 76 421 22 b 219 250 249 22 219 97 l 219 708 l 35 653 l 35 639 b 125 549 111 639 125 615 l 125 246 b 319 -14 125 85 147 -14 b 596 108 411 -14 518 36 l 596 0 l 649 0 b 553 -181 581 -75 553 -136 b 647 -265 553 -235 593 -265 b 799 -194 693 -265 749 -243 z "},"ů":{"ha":836,"x_min":0,"x_max":0,"o":"m 411 790 b 543 922 483 790 543 850 b 411 1054 543 994 483 1054 b 279 922 339 1054 279 994 b 411 790 279 850 339 790 z m 411 826 b 317 922 360 826 317 869 b 414 1018 317 974 361 1018 b 506 922 464 1018 506 972 b 411 826 506 869 463 826 z m 319 -14 b 596 108 411 -14 518 36 l 596 0 l 781 0 l 781 7 b 690 178 690 28 690 72 l 690 708 l 506 653 l 506 639 b 596 549 582 639 596 615 l 596 157 b 350 22 535 76 421 22 b 219 250 249 22 219 97 l 219 708 l 35 653 l 35 639 b 125 549 111 639 125 615 l 125 246 b 319 -14 125 85 147 -14 z "},"v":{"ha":804,"x_min":0,"x_max":0,"o":"m 371 0 l 429 0 l 632 518 b 776 688 671 617 686 667 l 776 694 l 568 694 l 568 688 b 632 631 615 676 632 660 b 600 524 632 606 618 571 l 433 99 l 271 524 b 239 631 253 571 239 606 b 303 688 239 660 256 676 l 303 694 l 28 694 l 28 688 b 172 518 118 667 135 617 z "},"w":{"ha":1179,"x_min":0,"x_max":0,"o":"m 371 0 l 429 0 l 597 431 l 746 0 l 804 0 l 1007 518 b 1151 688 1046 617 1061 667 l 1151 694 l 943 694 l 943 688 b 1007 631 990 676 1007 660 b 975 524 1007 606 993 571 l 808 100 l 667 524 b 636 633 650 572 636 608 b 699 688 636 661 653 676 l 699 694 l 424 694 l 424 688 b 568 518 514 667 533 619 l 582 478 l 433 99 l 271 524 b 239 631 253 571 239 606 b 303 688 239 660 256 676 l 303 694 l 28 694 l 28 688 b 172 518 118 667 135 617 z "},"ẃ":{"ha":1179,"x_min":0,"x_max":0,"o":"m 442 794 l 454 794 l 642 914 b 672 958 664 928 672 943 b 631 997 672 979 654 997 b 581 969 614 997 596 989 z m 371 0 l 429 0 l 597 431 l 746 0 l 804 0 l 1007 518 b 1151 688 1046 617 1061 667 l 1151 694 l 943 694 l 943 688 b 1007 631 990 676 1007 660 b 975 524 1007 606 993 571 l 808 100 l 667 524 b 636 633 650 572 636 608 b 699 688 636 661 653 676 l 699 694 l 424 694 l 424 688 b 568 518 514 667 533 619 l 582 478 l 433 99 l 271 524 b 239 631 253 571 239 606 b 303 688 239 660 256 676 l 303 694 l 28 694 l 28 688 b 172 518 118 667 135 617 z "},"ŵ":{"ha":1179,"x_min":0,"x_max":0,"o":"m 414 794 l 426 794 l 603 907 l 778 794 l 790 794 l 651 969 b 611 996 639 986 624 994 b 603 997 608 997 606 997 b 593 996 599 997 596 997 b 553 969 581 994 565 986 z m 371 0 l 429 0 l 597 431 l 746 0 l 804 0 l 1007 518 b 1151 688 1046 617 1061 667 l 1151 694 l 943 694 l 943 688 b 1007 631 990 676 1007 660 b 975 524 1007 606 993 571 l 808 100 l 667 524 b 636 633 650 572 636 608 b 699 688 636 661 653 676 l 699 694 l 424 694 l 424 688 b 568 518 514 667 533 619 l 582 478 l 433 99 l 271 524 b 239 631 253 571 239 606 b 303 688 239 660 256 676 l 303 694 l 28 694 l 28 688 b 172 518 118 667 135 617 z "},"ẅ":{"ha":1179,"x_min":0,"x_max":0,"o":"m 496 793 b 564 861 535 793 564 822 b 493 929 564 900 533 929 b 428 861 456 929 428 897 b 496 793 428 822 457 793 z m 726 793 b 794 861 764 793 794 822 b 726 928 794 899 764 928 b 658 861 688 928 658 899 b 726 793 658 822 688 793 z m 371 0 l 429 0 l 597 431 l 746 0 l 804 0 l 1007 518 b 1151 688 1046 617 1061 667 l 1151 694 l 943 694 l 943 688 b 1007 631 990 676 1007 660 b 975 524 1007 606 993 571 l 808 100 l 667 524 b 636 633 650 572 636 608 b 699 688 636 661 653 676 l 699 694 l 424 694 l 424 688 b 568 518 514 667 533 619 l 582 478 l 433 99 l 271 524 b 239 631 253 571 239 606 b 303 688 239 660 256 676 l 303 694 l 28 694 l 28 688 b 172 518 118 667 135 617 z "},"ẁ":{"ha":1179,"x_min":0,"x_max":0,"o":"m 693 794 l 706 794 l 567 969 b 517 997 551 989 533 997 b 475 958 494 997 475 981 b 506 914 475 944 483 928 z m 371 0 l 429 0 l 597 431 l 746 0 l 804 0 l 1007 518 b 1151 688 1046 617 1061 667 l 1151 694 l 943 694 l 943 688 b 1007 631 990 676 1007 660 b 975 524 1007 606 993 571 l 808 100 l 667 524 b 636 633 650 572 636 608 b 699 688 636 661 653 676 l 699 694 l 424 694 l 424 688 b 568 518 514 667 533 619 l 582 478 l 433 99 l 271 524 b 239 631 253 571 239 606 b 303 688 239 660 256 676 l 303 694 l 28 694 l 28 688 b 172 518 118 667 135 617 z "},"x":{"ha":831,"x_min":0,"x_max":0,"o":"m 56 0 l 256 0 l 256 7 b 221 44 231 14 221 28 b 297 178 221 78 256 125 l 394 301 l 479 178 b 549 47 515 124 549 78 b 508 7 549 28 538 15 l 508 0 l 775 0 l 775 7 b 589 178 689 28 647 93 l 453 376 l 564 517 b 775 688 626 597 689 667 l 775 694 l 575 694 l 575 688 b 604 653 596 681 604 669 b 525 517 604 621 568 572 l 435 403 l 357 517 b 285 650 319 572 285 618 b 322 688 285 667 294 681 l 322 694 l 56 694 l 56 688 b 246 517 142 667 188 601 l 376 328 l 258 178 b 56 7 196 97 142 28 z "},"y":{"ha":804,"x_min":0,"x_max":0,"o":"m 133 -362 b 247 -322 165 -362 203 -351 b 394 -89 325 -271 367 -161 l 632 518 b 776 688 671 617 686 667 l 776 694 l 568 694 l 568 688 b 632 631 615 676 632 660 b 600 524 632 606 618 571 l 433 100 l 271 524 b 239 631 253 571 239 606 b 303 688 239 660 256 676 l 303 694 l 28 694 l 28 688 b 172 518 118 667 135 617 l 383 -29 l 371 -60 b 244 -271 350 -114 307 -239 b 199 -283 226 -281 211 -283 b 99 -235 153 -283 139 -235 b 42 -289 64 -235 42 -261 b 51 -322 42 -300 44 -311 b 133 -362 65 -343 93 -362 z "},"ý":{"ha":804,"x_min":0,"x_max":0,"o":"m 356 789 l 368 789 l 556 908 b 586 953 578 922 586 938 b 544 992 586 974 568 992 b 494 964 528 992 510 983 z m 133 -362 b 247 -322 165 -362 203 -351 b 394 -89 325 -271 367 -161 l 632 518 b 776 688 671 617 686 667 l 776 694 l 568 694 l 568 688 b 632 631 615 676 632 660 b 600 524 632 606 618 571 l 433 100 l 271 524 b 239 631 253 571 239 606 b 303 688 239 660 256 676 l 303 694 l 28 694 l 28 688 b 172 518 118 667 135 617 l 383 -29 l 371 -60 b 244 -271 350 -114 307 -239 b 199 -283 226 -281 211 -283 b 99 -235 153 -283 139 -235 b 42 -289 64 -235 42 -261 b 51 -322 42 -300 44 -311 b 133 -362 65 -343 93 -362 z "},"ŷ":{"ha":804,"x_min":0,"x_max":0,"o":"m 246 790 l 258 790 l 435 903 l 610 790 l 622 790 l 483 965 b 443 992 471 982 456 990 b 435 993 440 993 438 993 b 425 992 431 993 428 993 b 385 965 413 990 397 982 z m 133 -362 b 247 -322 165 -362 203 -351 b 394 -89 325 -271 367 -161 l 632 518 b 776 688 671 617 686 667 l 776 694 l 568 694 l 568 688 b 632 631 615 676 632 660 b 600 524 632 606 618 571 l 433 100 l 271 524 b 239 631 253 571 239 606 b 303 688 239 660 256 676 l 303 694 l 28 694 l 28 688 b 172 518 118 667 135 617 l 383 -29 l 371 -60 b 244 -271 350 -114 307 -239 b 199 -283 226 -281 211 -283 b 99 -235 153 -283 139 -235 b 42 -289 64 -235 42 -261 b 51 -322 42 -300 44 -311 b 133 -362 65 -343 93 -362 z "},"ÿ":{"ha":804,"x_min":0,"x_max":0,"o":"m 318 792 b 386 860 357 792 386 821 b 315 928 386 899 356 928 b 250 860 278 928 250 896 b 318 792 250 821 279 792 z m 549 792 b 617 860 586 792 617 821 b 549 926 617 897 586 926 b 481 860 510 926 481 897 b 549 792 481 821 510 792 z m 133 -362 b 247 -322 165 -362 203 -351 b 394 -89 325 -271 367 -161 l 632 518 b 776 688 671 617 686 667 l 776 694 l 568 694 l 568 688 b 632 631 615 676 632 660 b 600 524 632 606 618 571 l 433 100 l 271 524 b 239 631 253 571 239 606 b 303 688 239 660 256 676 l 303 694 l 28 694 l 28 688 b 172 518 118 667 135 617 l 383 -29 l 371 -60 b 244 -271 350 -114 307 -239 b 199 -283 226 -281 211 -283 b 99 -235 153 -283 139 -235 b 42 -289 64 -235 42 -261 b 51 -322 42 -300 44 -311 b 133 -362 65 -343 93 -362 z "},"ỳ":{"ha":804,"x_min":0,"x_max":0,"o":"m 543 792 l 556 792 l 417 967 b 367 994 401 986 383 994 b 325 956 344 994 325 978 b 356 911 325 942 333 925 z m 133 -362 b 247 -322 165 -362 203 -351 b 394 -89 325 -271 367 -161 l 632 518 b 776 688 671 617 686 667 l 776 694 l 568 694 l 568 688 b 632 631 615 676 632 660 b 600 524 632 606 618 571 l 433 100 l 271 524 b 239 631 253 571 239 606 b 303 688 239 660 256 676 l 303 694 l 28 694 l 28 688 b 172 518 118 667 135 617 l 383 -29 l 371 -60 b 244 -271 350 -114 307 -239 b 199 -283 226 -281 211 -283 b 99 -235 153 -283 139 -235 b 42 -289 64 -235 42 -261 b 51 -322 42 -300 44 -311 b 133 -362 65 -343 93 -362 z "},"z":{"ha":703,"x_min":0,"x_max":0,"o":"m 596 -14 l 611 -14 l 661 192 l 649 192 b 438 31 611 85 569 31 l 192 31 l 644 694 l 154 694 b 128 708 136 694 133 699 l 113 708 l 63 503 l 75 503 b 286 664 113 610 154 664 l 508 664 l 56 0 l 569 0 b 596 -14 588 0 590 -4 z "},"ź":{"ha":703,"x_min":0,"x_max":0,"o":"m 286 792 l 299 792 l 486 911 b 517 956 508 925 517 940 b 475 994 517 976 499 994 b 425 967 458 994 440 986 z m 596 -14 l 611 -14 l 661 192 l 649 192 b 438 31 611 85 569 31 l 192 31 l 644 694 l 154 694 b 128 708 136 694 133 699 l 113 708 l 63 503 l 75 503 b 286 664 113 610 154 664 l 508 664 l 56 0 l 569 0 b 596 -14 588 0 590 -4 z "},"ž":{"ha":703,"x_min":0,"x_max":0,"o":"m 389 792 b 397 793 392 792 394 792 b 438 819 410 794 425 803 l 576 994 l 564 994 l 389 882 l 213 994 l 200 994 l 339 819 b 379 793 351 803 367 794 b 389 792 382 792 385 792 z m 596 -14 l 611 -14 l 661 192 l 649 192 b 438 31 611 85 569 31 l 192 31 l 644 694 l 154 694 b 128 708 136 694 133 699 l 113 708 l 63 503 l 75 503 b 286 664 113 610 154 664 l 508 664 l 56 0 l 569 0 b 596 -14 588 0 590 -4 z "},"ż":{"ha":703,"x_min":0,"x_max":0,"o":"m 378 790 b 446 858 417 790 446 819 b 375 926 446 897 415 926 b 310 858 338 926 310 894 b 378 790 310 819 339 790 z m 596 -14 l 611 -14 l 661 192 l 649 192 b 438 31 611 85 569 31 l 192 31 l 644 694 l 154 694 b 128 708 136 694 133 699 l 113 708 l 63 503 l 75 503 b 286 664 113 610 154 664 l 508 664 l 56 0 l 569 0 b 596 -14 588 0 590 -4 z "},"":{"ha":833,"x_min":0,"x_max":0,"o":"m 375 -14 b 593 121 482 -14 554 39 l 593 0 l 778 0 l 778 7 b 688 178 688 28 688 72 l 688 549 b 778 639 688 615 701 639 l 778 653 l 593 708 l 593 638 b 397 708 536 689 467 708 b 63 358 214 708 63 586 b 375 -14 63 119 210 -14 z m 403 22 b 153 365 244 22 153 174 b 406 675 153 540 249 675 b 593 581 478 675 549 650 l 593 239 b 403 22 583 103 493 22 z "},"":{"ha":822,"x_min":0,"x_max":0,"o":"m 444 -14 b 760 364 650 -14 760 178 b 460 708 760 539 663 708 b 240 628 379 708 308 683 l 240 1051 l 56 996 l 56 982 b 146 892 132 982 146 958 l 146 178 b 56 7 146 72 146 28 l 56 0 l 240 0 l 240 97 b 403 -11 267 42 319 -1 b 444 -14 417 -12 431 -14 z m 433 19 b 392 22 419 19 406 19 b 240 196 292 38 246 115 l 240 581 b 438 671 303 644 372 671 b 658 322 575 671 658 493 b 433 19 658 168 589 19 z "},"":{"ha":747,"x_min":0,"x_max":0,"o":"m 421 -14 b 711 124 544 -14 643 32 l 694 133 b 450 15 635 56 544 15 b 157 351 318 15 176 135 b 156 392 156 365 156 379 b 318 654 156 536 231 615 b 440 678 353 669 397 678 b 690 492 533 678 646 640 l 703 492 l 703 708 l 690 708 b 661 644 690 708 681 643 b 442 708 632 647 563 706 b 304 686 394 708 349 701 b 63 351 178 642 63 532 b 421 -14 63 108 242 -14 z "},"":{"ha":833,"x_min":0,"x_max":0,"o":"m 375 -14 b 594 124 483 -14 556 39 b 700 -14 599 40 618 -14 b 813 74 761 -14 801 17 l 800 76 b 744 18 792 47 778 18 b 688 143 700 18 688 65 l 688 1042 l 503 986 l 503 972 b 593 882 579 972 593 949 l 593 638 b 397 708 536 689 467 708 b 63 358 214 708 63 586 b 375 -14 63 119 210 -14 z m 403 22 b 153 365 244 22 153 174 b 406 675 153 540 249 675 b 593 581 478 675 549 650 l 593 239 b 403 22 583 103 493 22 z "},"":{"ha":800,"x_min":0,"x_max":0,"o":"m 421 -14 b 711 124 544 -14 643 32 l 694 133 b 450 15 635 56 544 15 b 181 236 343 15 229 93 b 719 461 243 408 700 214 b 421 707 731 600 589 707 b 63 351 256 707 63 590 b 421 -14 63 108 242 -14 z m 171 268 b 157 351 164 294 160 322 b 156 392 156 365 156 379 b 413 681 156 588 279 681 b 629 489 544 681 629 593 b 171 268 629 263 263 411 z "},"":{"ha":410,"x_min":0,"x_max":0,"o":"m 46 0 l 321 0 l 321 7 b 231 178 231 28 231 72 l 231 694 l 396 694 l 396 704 b 108 883 196 703 108 804 b 213 978 108 935 146 978 b 358 929 251 978 300 964 l 396 1022 b 256 1058 344 1047 297 1058 b 72 896 143 1058 72 981 b 257 711 72 822 128 744 l 42 729 l 42 694 l 136 694 l 136 178 b 46 7 136 72 136 28 z "},"":{"ha":750,"x_min":0,"x_max":0,"o":"m 385 -344 b 697 -107 542 -344 697 -276 b 482 58 697 3 615 58 b 444 57 471 58 457 58 l 282 44 b 232 42 267 43 250 42 b 103 110 174 42 113 54 b 101 122 103 114 101 118 b 179 250 101 161 132 203 b 361 199 226 218 288 199 b 657 454 551 199 657 326 b 594 614 657 511 636 568 b 715 828 651 679 696 750 l 614 828 b 565 643 614 758 596 697 b 361 708 515 683 447 708 b 65 456 168 708 65 582 b 161 263 65 385 99 313 b 71 106 107 213 71 163 b 197 -33 71 42 115 -15 b 68 -171 117 -56 68 -111 b 385 -344 68 -275 226 -344 z m 215 311 b 158 483 179 361 158 425 b 338 681 158 582 213 681 b 521 578 422 681 483 638 b 215 311 438 471 313 389 z m 385 225 b 229 294 318 225 267 253 b 536 551 318 369 436 454 b 565 428 556 511 565 468 b 385 225 565 326 510 225 z m 382 -322 b 88 -169 239 -322 88 -265 b 289 -39 88 -87 175 -42 l 453 -39 b 636 -171 572 -39 636 -101 b 635 -192 636 -178 636 -185 b 382 -322 618 -282 503 -322 z "},"":{"ha":857,"x_min":0,"x_max":0,"o":"m 726 -14 b 836 74 786 -14 825 18 l 824 76 b 768 18 815 47 801 18 b 711 143 724 18 711 65 l 711 449 b 517 708 711 610 689 708 b 240 586 425 708 318 658 l 240 1042 l 56 986 l 56 972 b 146 882 132 972 146 949 l 146 178 b 56 7 146 72 146 28 l 56 0 l 331 0 l 331 7 b 240 178 240 28 240 72 l 240 538 b 486 672 301 618 415 672 b 617 444 588 672 617 597 l 617 190 b 726 -14 617 72 621 -14 z "},"":{"ha":386,"x_min":0,"x_max":0,"o":"m 188 824 b 263 899 229 824 263 857 b 188 972 263 939 229 972 b 113 899 146 972 113 939 b 188 824 113 857 146 824 z m 253 -14 b 365 74 315 -14 354 17 l 353 76 b 297 18 344 47 331 18 b 240 143 253 18 240 65 l 240 708 l 56 653 l 56 639 b 146 549 132 639 146 615 l 146 190 b 253 -14 146 72 150 -14 z "},"":{"ha":349,"x_min":0,"x_max":0,"o":"m 188 824 b 263 899 229 824 263 857 b 188 972 263 939 229 972 b 113 899 146 972 113 939 b 188 824 113 857 146 824 z m -147 -599 b 164 -433 -28 -599 93 -544 b 240 51 235 -321 240 -139 l 240 708 l 56 653 l 56 639 b 146 549 132 639 146 615 l 146 -62 b 114 -392 146 -189 147 -308 b -164 -582 63 -521 -51 -582 b -385 -485 -246 -582 -329 -549 b -440 -367 -425 -440 -440 -406 b -397 -256 -440 -317 -406 -299 b -429 -212 -393 -233 -410 -212 b -457 -225 -439 -212 -447 -215 b -485 -306 -475 -243 -485 -271 b -393 -501 -485 -362 -457 -436 b -147 -599 -329 -567 -239 -599 z "},"":{"ha":851,"x_min":0,"x_max":0,"o":"m 56 0 l 331 0 l 331 7 b 240 178 240 28 240 72 l 240 390 b 513 675 328 592 435 675 b 615 517 578 675 622 615 b 278 351 603 339 389 404 l 547 82 b 722 0 619 10 653 0 l 810 0 l 810 14 b 650 108 746 14 678 81 l 403 356 b 707 544 538 369 707 365 b 547 713 707 646 638 713 b 240 453 451 713 329 638 l 240 1042 l 56 986 l 56 972 b 146 882 132 972 146 949 l 146 178 b 56 7 146 72 146 28 z "},"":{"ha":386,"x_min":0,"x_max":0,"o":"m 253 -14 b 365 74 315 -14 354 17 l 353 76 b 297 18 344 47 331 18 b 240 143 253 18 240 65 l 240 1042 l 56 986 l 56 972 b 146 882 132 972 146 949 l 146 190 b 253 -14 146 72 150 -14 z "},"":{"ha":1300,"x_min":0,"x_max":0,"o":"m 1167 -14 b 1279 74 1229 -14 1268 17 l 1267 76 b 1211 18 1258 47 1244 18 b 1154 143 1167 18 1154 65 l 1154 449 b 960 708 1154 610 1132 708 b 688 576 864 708 765 654 b 503 708 669 660 624 708 b 240 586 411 708 317 658 l 240 708 l 56 653 l 56 639 b 146 549 132 639 146 615 l 146 178 b 56 7 146 72 146 28 l 56 0 l 331 0 l 331 7 b 240 178 240 28 240 72 l 240 538 b 481 672 300 614 410 672 b 603 444 581 672 603 597 l 603 178 b 513 7 603 72 603 28 l 513 0 l 788 0 l 788 7 b 697 178 697 28 697 72 l 697 449 b 693 538 697 481 696 510 l 694 533 b 938 672 754 613 865 672 b 1060 444 1038 672 1060 597 l 1060 190 b 1167 -14 1060 72 1064 -14 z "},"":{"ha":857,"x_min":0,"x_max":0,"o":"m 726 -14 b 836 74 786 -14 825 18 l 824 76 b 768 18 815 47 801 18 b 711 143 724 18 711 65 l 711 449 b 517 708 711 610 689 708 b 240 586 425 708 318 658 l 240 708 l 56 653 l 56 639 b 146 549 132 639 146 615 l 146 178 b 56 7 146 72 146 28 l 56 0 l 331 0 l 331 7 b 240 178 240 28 240 72 l 240 538 b 486 672 301 618 415 672 b 617 444 588 672 617 597 l 617 190 b 726 -14 617 72 621 -14 z "},"":{"ha":842,"x_min":0,"x_max":0,"o":"m 421 -14 b 779 351 600 -14 779 108 b 421 707 779 590 600 707 b 63 351 242 707 63 590 b 421 -14 63 108 242 -14 z m 450 15 b 157 351 304 15 174 135 b 156 389 156 364 156 376 b 392 679 156 578 274 679 b 685 351 538 679 667 564 b 686 311 686 338 686 324 b 450 15 686 119 568 15 z m 422 249 l 532 357 l 424 465 l 314 357 z "},"":{"ha":851,"x_min":0,"x_max":0,"o":"m 174 -715 b 364 -667 229 -715 294 -701 l 317 -547 b 115 -615 236 -596 169 -615 b -31 -489 21 -615 -31 -556 b 240 -303 -31 -403 53 -306 l 240 74 b 461 -14 311 10 385 -14 b 789 361 676 -14 789 176 b 476 708 789 536 688 708 b 240 613 390 708 314 679 l 240 708 l 56 653 l 56 639 b 146 549 132 639 146 615 l 146 -300 b -75 -504 -8 -328 -75 -417 b 174 -715 -75 -610 21 -715 z m 446 22 b 240 129 389 22 300 49 l 240 564 b 454 672 307 642 383 672 b 690 321 599 672 690 492 b 446 22 690 168 618 22 z "},"":{"ha":833,"x_min":0,"x_max":0,"o":"m 799 -753 b 1044 -467 972 -690 1044 -572 b 835 -253 1044 -353 961 -253 b 688 -293 790 -253 740 -265 l 688 708 l 679 708 l 601 629 b 397 708 543 686 471 708 b 63 358 214 708 63 586 b 375 -14 63 119 210 -14 b 593 108 481 -14 553 38 l 593 -383 l 613 -365 b 826 -274 692 -300 765 -274 b 989 -418 924 -274 989 -340 b 746 -636 989 -499 919 -590 z m 403 22 b 153 365 244 22 153 174 b 406 675 153 540 249 675 b 593 581 478 675 549 650 l 593 200 b 403 22 578 97 490 22 z "},"":{"ha":629,"x_min":0,"x_max":0,"o":"m 56 0 l 331 0 l 331 7 b 240 178 240 28 240 72 l 240 476 b 421 636 278 558 340 636 b 547 600 476 636 503 600 b 604 651 583 600 604 625 b 524 708 604 679 579 708 b 240 532 426 708 310 646 l 240 708 l 56 653 l 56 639 b 146 549 132 639 146 615 l 146 178 b 56 7 146 72 146 28 z "},"":{"ha":633,"x_min":0,"x_max":0,"o":"m 63 -14 l 74 -14 l 79 29 b 96 57 82 49 88 57 b 142 35 106 57 119 47 b 317 -14 174 17 231 -14 b 578 188 467 -14 578 60 b 149 499 578 425 224 368 b 136 550 140 514 136 532 b 307 683 136 638 214 683 b 513 517 383 683 475 661 l 522 517 l 522 708 l 513 708 b 489 657 513 708 504 656 b 301 708 464 660 414 708 b 67 518 174 708 67 639 b 504 160 67 269 501 349 b 317 11 504 57 422 11 b 74 185 190 13 89 72 l 63 185 z "},"":{"ha":475,"x_min":0,"x_max":0,"o":"m 293 -14 b 447 76 383 -14 429 33 l 431 83 b 319 14 414 40 365 14 b 225 164 235 14 225 92 l 225 694 l 407 694 l 407 731 l 96 706 b 256 888 179 735 256 814 b 235 949 256 908 249 929 l 111 949 b 160 842 143 922 160 882 b 42 703 160 774 118 706 l 42 694 l 131 694 l 131 169 b 293 -14 131 63 171 -14 z "},"":{"ha":836,"x_min":0,"x_max":0,"o":"m 319 -14 b 599 111 413 -14 521 38 b 703 -14 604 36 625 -14 b 815 74 764 -14 804 17 l 803 76 b 747 18 794 47 781 18 b 690 143 703 18 690 65 l 690 708 l 506 653 l 506 639 b 596 549 582 639 596 615 l 596 157 b 350 22 536 76 421 22 b 219 250 249 22 219 97 l 219 708 l 35 653 l 35 639 b 125 549 111 639 125 615 l 125 246 b 319 -14 125 85 147 -14 z "},"":{"ha":763,"x_min":0,"x_max":0,"o":"m 371 0 l 429 0 b 719 672 599 371 710 575 b 721 694 721 681 721 688 b 629 811 721 776 671 811 b 564 754 589 811 564 783 b 565 743 564 750 564 747 b 656 632 581 675 656 726 b 438 86 656 550 581 393 l 271 524 b 239 631 253 571 239 606 b 303 688 239 660 256 676 l 303 694 l 28 694 l 28 688 b 172 518 118 667 135 617 z "},"":{"ha":1138,"x_min":0,"x_max":0,"o":"m 371 0 l 429 0 l 597 431 l 746 0 l 804 0 b 1094 672 974 371 1085 575 b 1096 694 1096 681 1096 688 b 1004 811 1096 776 1046 811 b 939 754 964 811 939 783 b 940 743 939 750 939 747 b 1031 632 956 675 1031 726 b 813 88 1031 550 956 393 l 667 524 b 636 633 650 572 636 608 b 699 688 636 661 653 676 l 699 694 l 424 694 l 424 688 b 568 518 514 667 533 619 l 582 478 l 433 99 l 271 524 b 239 631 253 571 239 606 b 303 688 239 660 256 676 l 303 694 l 28 694 l 28 688 b 172 518 118 667 135 617 z "},"":{"ha":831,"x_min":0,"x_max":0,"o":"m 203 -194 b 260 -139 235 -194 260 -171 b 171 -18 260 -74 171 -94 b 174 4 171 -11 172 -4 b 385 315 194 125 285 224 l 479 178 b 549 47 515 124 549 78 b 508 7 549 28 538 15 l 508 0 l 775 0 l 775 7 b 589 178 689 28 647 93 l 454 375 b 711 683 571 476 685 572 b 719 751 717 708 719 731 b 632 871 719 839 667 871 b 578 817 600 871 578 847 b 667 694 578 749 667 769 b 436 400 667 596 557 506 l 357 517 b 285 650 319 572 285 618 b 322 688 285 667 294 681 l 322 694 l 56 694 l 56 688 b 246 517 142 667 188 601 l 368 339 b 126 -8 263 243 161 132 b 117 -76 119 -33 117 -57 b 203 -194 117 -162 169 -194 z "},"":{"ha":763,"x_min":0,"x_max":0,"o":"m 378 -531 b 442 -474 415 -531 442 -504 b 433 -444 442 -464 439 -454 b 297 -354 401 -389 315 -456 b 294 -328 296 -346 294 -337 b 390 -53 294 -233 368 -101 l 415 0 b 438 49 422 17 431 32 l 513 210 b 706 672 626 451 697 596 b 707 700 707 682 707 692 b 657 814 707 760 688 800 b 569 732 632 825 544 743 b 642 642 606 719 636 711 b 524 300 646 583 606 482 l 424 89 l 257 524 b 225 631 239 571 225 606 b 289 688 225 660 242 676 l 289 694 l 14 694 l 14 688 b 158 518 104 667 121 617 l 368 -28 l 356 -54 b 257 -361 325 -119 257 -249 b 378 -531 257 -489 331 -531 z "},"":{"ha":699,"x_min":0,"x_max":0,"o":"m 472 -15 b 657 178 557 -15 626 25 l 644 178 b 506 75 608 97 561 75 b 269 110 436 75 356 110 b 160 86 233 110 197 103 l 619 665 b 654 708 631 678 643 692 l 626 685 b 535 660 599 667 568 660 b 258 708 447 660 346 708 b 69 507 178 708 107 667 l 82 507 b 219 618 119 594 167 618 b 444 581 286 618 364 581 b 531 599 472 581 501 586 l 53 0 b 42 -14 49 -4 46 -8 l 67 7 b 169 35 97 28 132 35 b 472 -15 267 35 378 -15 z "},"":{"ha":793,"x_min":0,"x_max":0,"o":"m 292 -14 b 560 138 394 -14 472 32 b 667 -14 564 46 582 -14 b 779 74 728 -14 768 17 l 767 76 b 711 18 758 47 744 18 b 654 143 667 18 654 65 l 654 296 l 567 179 b 325 28 476 69 410 28 b 185 185 239 28 178 93 b 569 439 199 367 403 342 l 653 485 b 399 708 643 635 550 708 b 133 542 253 708 133 621 b 181 499 133 522 151 499 b 392 679 281 499 183 679 b 560 460 525 679 558 594 b 83 169 393 361 83 381 b 292 -14 83 60 169 -14 z "},"":{"ha":835,"x_min":0,"x_max":0,"o":"m 146 -14 l 154 -14 l 232 65 b 444 -14 301 7 372 -14 b 772 361 660 -14 772 176 b 460 708 772 536 671 708 b 240 628 379 708 308 683 l 240 1042 l 56 986 b -242 919 -87 943 -182 919 b -333 1033 -315 919 -336 956 l -457 1010 b -297 894 -443 926 -387 894 b 25 960 -217 894 -107 921 b 97 974 57 969 81 974 b 146 882 151 974 146 932 z m 429 22 b 240 110 376 22 299 44 l 240 581 b 438 671 303 644 372 671 b 674 321 582 671 674 490 b 429 22 674 168 601 22 z "},"":{"ha":747,"x_min":0,"x_max":0,"o":"m 421 -14 b 711 124 544 -14 643 32 l 694 133 b 450 15 635 56 544 15 b 157 351 318 15 176 135 b 156 388 156 364 156 375 b 432 678 156 556 267 678 b 608 475 547 678 581 582 b 628 456 613 461 619 456 b 710 563 658 456 710 519 b 704 582 710 569 707 576 b 439 708 663 650 572 708 b 304 686 393 708 347 701 b 63 351 178 642 63 532 b 421 -14 63 108 242 -14 z "},"":{"ha":833,"x_min":0,"x_max":0,"o":"m 375 -14 b 593 121 482 -14 554 39 l 593 0 l 778 0 l 778 7 b 688 178 688 28 688 72 l 688 978 b 1206 1200 1049 999 1206 1069 b 1193 1269 1206 1222 1201 1244 l 1094 1233 b 1117 1161 1108 1207 1117 1183 b 503 986 1117 1061 957 1000 l 503 972 b 593 882 579 972 593 949 l 593 638 b 397 708 536 689 467 708 b 63 358 214 708 63 586 b 375 -14 63 119 210 -14 z m 403 22 b 153 365 244 22 153 174 b 406 675 153 540 249 675 b 593 581 478 675 549 650 l 593 239 b 403 22 583 103 493 22 z "},"":{"ha":800,"x_min":0,"x_max":0,"o":"m 450 -14 l 450 0 b 157 351 304 3 174 135 b 156 371 157 358 156 364 l 738 371 b 421 707 743 593 594 707 b 63 351 256 707 63 590 b 450 -14 63 108 257 -14 z m 156 385 b 408 679 153 585 282 679 b 643 407 535 679 636 589 z "},"":{"ha":419,"x_min":0,"x_max":0,"o":"m 46 0 l 321 0 l 321 7 b 231 178 231 28 231 72 l 231 694 l 354 694 l 354 700 b 128 857 239 742 128 788 b 313 1036 128 903 179 961 l 250 1110 b 78 888 132 1026 78 951 b 325 701 78 804 171 740 l 14 725 l 14 694 l 136 694 l 136 178 b 46 7 136 72 136 28 z "},"":{"ha":754,"x_min":0,"x_max":0,"o":"m 183 -568 b 742 -162 469 -568 742 -437 b 517 50 742 10 640 50 b 207 21 413 50 292 21 b 96 82 147 21 104 35 b 94 96 94 86 94 92 b 243 219 94 150 156 192 b 365 199 279 206 319 199 b 665 454 556 199 665 326 b 463 696 665 557 593 661 b 719 828 592 696 717 724 l 618 828 b 401 707 617 725 525 703 b 365 708 390 708 378 708 b 65 456 172 708 65 582 b 210 233 65 368 117 281 b 64 90 135 207 64 156 b 281 -37 64 -25 164 -37 b 389 -36 315 -37 353 -36 b 661 -187 517 -36 639 -51 b 665 -231 664 -203 665 -217 b 175 -549 665 -431 422 -549 b -347 -126 -83 -549 -346 -422 l -462 -126 b 183 -568 -456 -414 -128 -568 z m 389 225 b 163 483 240 225 163 367 b 342 681 163 582 217 681 b 569 428 492 681 569 543 b 389 225 569 326 514 225 z "},"":{"ha":857,"x_min":0,"x_max":0,"o":"m 56 0 l 331 0 l 331 7 b 240 178 240 28 240 72 l 240 538 b 486 672 301 618 415 672 b 617 444 588 672 617 597 l 617 178 b 526 7 617 72 617 28 l 526 0 l 801 0 l 801 7 b 711 178 711 28 711 72 l 711 449 b 517 708 711 610 689 708 b 240 586 425 708 318 658 l 240 1042 l 56 986 b -242 919 -87 943 -182 919 b -333 1033 -315 919 -336 956 l -457 1010 b -297 894 -443 926 -387 894 b 25 960 -217 894 -107 921 b 97 974 57 969 81 974 b 146 882 151 974 146 932 l 146 178 b 56 7 146 72 146 28 z "},"":{"ha":386,"x_min":0,"x_max":0,"o":"m 188 792 l 297 900 l 189 1008 l 79 900 z m 56 0 l 331 0 l 331 7 b 240 178 240 28 240 72 l 240 708 l 56 653 l 56 639 b 146 549 132 639 146 615 l 146 178 b 56 7 146 72 146 28 z "},"":{"ha":349,"x_min":0,"x_max":0,"o":"m 188 792 l 297 900 l 189 1008 l 79 900 z m 17 -269 b 240 51 179 -228 240 -106 l 240 708 l 56 653 l 56 639 b 146 549 132 639 146 615 l 146 -3 b 17 -258 146 -76 140 -217 z "},"":{"ha":851,"x_min":0,"x_max":0,"o":"m 56 0 l 331 0 l 331 7 b 240 178 240 28 240 72 l 240 1042 l 56 986 b -242 919 -87 943 -182 919 b -333 1033 -315 919 -336 956 l -457 1010 b -297 894 -443 926 -387 894 b 25 960 -217 894 -107 921 b 97 974 57 969 81 974 b 146 882 151 974 146 932 l 146 178 b 56 7 146 72 146 28 z m 722 0 l 810 0 l 810 14 b 649 108 746 14 676 81 l 339 419 l 601 626 b 760 688 631 649 688 688 l 760 694 l 533 694 l 533 688 b 576 664 565 688 576 676 b 553 626 576 651 567 638 l 243 386 l 547 82 b 722 0 619 10 653 0 z "},"":{"ha":386,"x_min":0,"x_max":0,"o":"m 56 0 l 331 0 l 331 7 b 240 178 240 28 240 72 l 240 1042 l 56 986 b -242 919 -87 943 -182 919 b -333 1033 -315 919 -336 956 l -457 1010 b -297 894 -443 926 -387 894 b 25 960 -217 894 -107 921 b 97 974 57 969 81 974 b 146 882 151 974 146 932 l 146 178 b 56 7 146 72 146 28 z "},"":{"ha":1300,"x_min":0,"x_max":0,"o":"m 56 0 l 331 0 l 331 7 b 240 178 240 28 240 72 l 240 365 b 603 561 389 451 507 515 l 603 178 b 513 7 603 72 603 28 l 513 0 l 788 0 l 788 7 b 697 178 697 28 697 72 l 697 604 b 936 672 824 658 896 672 b 1060 444 1038 672 1060 597 l 1060 178 b 969 7 1060 72 1060 28 l 969 0 l 1244 0 l 1244 7 b 1154 178 1154 28 1154 72 l 1154 449 b 960 708 1154 610 1132 708 b 240 394 863 708 701 664 l 240 708 l 56 653 l 56 639 b 146 549 132 639 146 615 l 146 178 b 56 7 146 72 146 28 z "},"":{"ha":857,"x_min":0,"x_max":0,"o":"m 56 0 l 331 0 l 331 7 b 240 178 240 28 240 72 l 240 211 b 567 631 404 488 510 631 b 617 472 600 631 617 579 l 617 178 b 526 7 617 72 617 28 l 526 0 l 801 0 l 801 7 b 711 178 711 28 711 72 l 711 439 b 619 708 711 621 679 708 b 240 264 540 708 411 554 l 240 708 l 56 653 l 56 639 b 146 549 132 639 146 615 l 146 178 b 56 7 146 72 146 28 z "},"":{"ha":842,"x_min":0,"x_max":0,"o":"m 453 -14 b 781 311 622 -14 781 94 b 389 707 781 578 578 707 b 61 390 219 707 61 603 b 453 -14 61 121 264 -14 z m 479 15 b 157 351 333 15 192 135 b 150 428 153 378 150 404 b 363 679 150 592 253 679 b 685 351 508 679 647 564 b 692 274 689 324 692 299 b 479 15 692 107 589 15 z "},"":{"ha":851,"x_min":0,"x_max":0,"o":"m 56 -343 l 331 -343 l 331 -336 b 240 -165 240 -315 240 -271 l 240 367 b 565 -11 307 114 444 -11 b 789 361 685 -11 789 114 b 476 708 789 536 688 708 b 240 613 390 708 314 679 l 240 708 l 56 653 l 56 639 b 146 549 132 639 146 615 l 146 -165 b 56 -336 146 -271 146 -315 z m 540 25 b 240 563 422 25 272 218 l 240 564 b 454 672 307 642 383 672 b 690 321 599 672 690 492 b 540 25 690 118 624 25 z "},"":{"ha":819,"x_min":0,"x_max":0,"o":"m 489 -343 l 764 -343 l 764 -336 b 674 -165 674 -315 674 -271 l 674 708 l 665 708 l 588 629 b 378 708 528 688 453 708 b 63 379 211 708 63 599 b 317 -15 63 138 217 -15 b 579 417 436 -15 515 136 l 579 -165 b 489 -336 579 -271 579 -315 z m 338 25 b 153 386 250 25 153 157 b 383 675 153 563 239 675 b 579 581 460 675 533 650 l 579 579 b 338 25 517 229 436 25 z "},"":{"ha":674,"x_min":0,"x_max":0,"o":"m 56 0 l 331 0 l 331 7 b 240 132 254 25 243 58 b 496 672 293 479 401 672 b 578 553 571 672 525 578 b 597 549 585 550 590 549 b 646 607 625 549 646 576 b 526 710 646 658 594 710 b 240 272 396 710 301 567 l 240 708 l 56 653 l 56 639 b 146 549 132 639 146 615 l 146 178 b 56 7 146 72 146 28 z "},"":{"ha":633,"x_min":0,"x_max":0,"o":"m 313 -14 b 532 65 397 -14 483 11 b 578 188 561 97 578 139 b 135 531 578 442 157 354 b 133 551 133 536 133 546 b 321 682 133 636 218 682 b 468 500 444 682 446 589 b 483 485 471 489 476 485 b 553 583 508 485 553 546 b 549 600 553 590 551 596 b 326 708 511 657 439 708 b 63 510 189 708 63 639 b 504 160 63 267 501 347 b 478 69 504 122 494 92 b 318 11 447 32 382 11 b 172 72 257 11 196 31 b 136 204 151 108 149 156 b 121 219 133 215 128 219 b 51 121 96 219 51 158 b 56 104 51 114 53 108 b 124 35 75 74 99 51 b 313 -14 171 3 242 -14 z "},"":{"ha":511,"x_min":0,"x_max":0,"o":"m 239 -14 b 325 13 264 -14 293 -6 b 497 124 385 47 429 78 l 490 135 b 308 25 422 89 360 50 b 276 17 296 19 286 17 b 225 254 222 17 225 125 l 225 694 l 471 694 b 497 715 489 694 497 706 b 475 735 497 725 490 735 l 471 735 l 225 710 l 225 826 l 211 826 b 56 708 183 757 114 708 l 56 694 l 131 694 l 131 194 b 151 40 131 138 129 81 b 239 -14 168 7 199 -14 z "},"":{"ha":836,"x_min":0,"x_max":0,"o":"m 217 -17 b 596 428 296 -17 425 138 l 596 0 l 781 0 l 781 7 b 690 178 690 28 690 72 l 690 708 l 506 653 l 506 639 b 596 549 582 639 596 615 l 596 481 b 269 61 432 204 326 61 b 219 219 236 61 219 113 l 219 708 l 35 653 l 35 639 b 125 549 111 639 125 615 l 125 253 b 217 -17 125 71 157 -17 z "},"":{"ha":763,"x_min":0,"x_max":0,"o":"m 371 0 l 433 0 b 818 794 597 467 576 796 l 783 924 b 433 101 583 825 560 524 l 271 524 b 239 631 253 571 239 606 b 303 688 239 660 256 676 l 303 694 l 28 694 l 28 688 b 172 518 118 667 135 617 z "},"":{"ha":1174,"x_min":0,"x_max":0,"o":"m 371 0 l 429 0 l 597 431 l 746 0 l 803 0 b 1229 794 994 522 988 796 l 1194 924 b 808 100 999 824 963 567 l 667 524 b 636 633 650 572 636 608 b 699 688 636 661 653 676 l 699 694 l 424 694 l 424 688 b 568 518 514 667 533 619 l 582 478 l 433 99 l 271 524 b 239 631 253 571 239 606 b 303 688 239 660 256 676 l 303 694 l 28 694 l 28 688 b 172 518 118 667 135 617 z "},"":{"ha":831,"x_min":0,"x_max":0,"o":"m 82 -225 l 207 -179 b 169 -72 182 -143 169 -108 b 297 178 169 -1 218 76 l 394 301 l 479 178 b 549 47 515 124 549 78 b 508 7 549 28 538 15 l 508 0 l 775 0 l 775 7 b 589 178 689 28 647 93 l 453 376 l 564 517 b 743 879 678 661 743 768 b 740 919 743 892 742 906 l 615 874 b 653 767 640 838 653 803 b 525 517 653 696 604 618 l 435 403 l 357 517 b 285 650 319 572 285 618 b 322 688 285 667 294 681 l 322 694 l 56 694 l 56 688 b 246 517 142 667 188 601 l 376 328 l 258 178 b 79 -185 144 33 79 -74 b 82 -225 79 -197 81 -211 z "},"":{"ha":804,"x_min":0,"x_max":0,"o":"m 133 -362 b 247 -322 165 -362 203 -351 b 394 -89 325 -271 367 -161 l 453 60 b 897 793 631 469 685 793 b 919 792 904 793 911 793 l 897 924 b 514 301 724 857 636 619 l 433 99 l 271 524 b 239 631 253 571 239 606 b 303 688 239 660 256 676 l 303 694 l 28 694 l 28 688 b 172 518 118 667 135 617 l 383 -29 l 371 -60 b 244 -271 350 -114 307 -239 b 199 -283 226 -281 211 -283 b 99 -235 153 -283 139 -235 b 42 -289 64 -235 42 -261 b 51 -322 42 -300 44 -311 b 133 -362 65 -343 93 -362 z "},"":{"ha":703,"x_min":0,"x_max":0,"o":"m 1046 -257 b 1428 -108 1164 -257 1289 -218 l 1428 -100 b 1103 -214 1313 -183 1206 -214 b 254 51 804 -214 549 51 b 204 49 238 51 221 50 l 644 694 l 154 694 b 128 708 136 694 133 699 l 113 708 l 63 503 l 75 503 b 286 664 113 610 154 664 l 508 664 l 46 -14 b 193 10 96 3 146 10 b 1046 -257 485 10 739 -257 z "},"":{"ha":793,"x_min":0,"x_max":0,"o":"m 261 -14 b 560 403 411 -14 499 214 l 560 203 b 667 -14 560 72 565 -14 b 779 74 729 -14 768 17 l 767 76 b 711 18 758 47 744 18 b 654 143 667 18 654 65 l 654 461 b 399 708 654 628 558 708 b 117 557 251 708 151 636 b 172 460 108 538 151 460 b 181 468 175 460 179 463 b 393 679 211 560 242 679 b 558 496 514 679 551 610 b 83 185 419 317 97 378 b 261 -14 75 67 164 -14 z m 283 28 b 185 167 229 28 185 85 b 557 469 185 365 413 290 b 283 28 500 282 413 28 z "},"":{"ha":838,"x_min":0,"x_max":0,"o":"m 557 -11 b 775 361 674 -11 775 114 b 476 708 775 536 674 708 b 240 613 390 708 314 679 l 240 1042 l 56 986 l 56 972 b 146 882 132 972 146 949 l 146 178 b 56 7 146 72 146 28 l 56 0 l 331 0 l 331 7 b 240 178 240 28 240 72 l 240 365 b 557 -11 307 113 440 -11 z m 533 25 b 240 563 419 25 274 218 l 240 564 b 446 672 304 639 378 672 b 676 321 581 672 676 496 b 533 25 676 118 613 25 z "},"":{"ha":747,"x_min":0,"x_max":0,"o":"m 421 -14 l 442 -14 b 661 50 563 -11 632 47 b 690 -14 681 51 690 -14 l 703 -14 l 703 203 l 690 203 b 435 15 672 51 557 10 b 157 351 307 21 175 143 b 156 392 156 365 156 379 b 318 654 156 536 231 615 b 440 678 353 669 397 678 b 690 492 533 678 646 640 l 703 492 l 703 708 l 690 708 b 661 644 690 708 681 643 b 442 708 632 647 563 706 b 304 686 394 708 349 701 b 63 351 178 642 63 532 b 421 -14 63 108 242 -14 z "},"":{"ha":813,"x_min":0,"x_max":0,"o":"m 281 -15 b 572 382 379 -15 510 122 l 572 0 l 757 0 l 757 7 b 667 178 667 28 667 72 l 667 1042 l 482 986 l 482 972 b 572 882 558 972 572 949 l 572 633 b 356 710 501 688 431 710 b 63 361 160 710 58 543 b 281 -15 68 111 171 -15 z m 310 32 b 164 358 204 32 164 224 b 378 674 164 554 242 674 b 572 586 440 674 507 649 b 310 32 544 244 401 32 z "},"":{"ha":800,"x_min":0,"x_max":0,"o":"m 421 -14 b 721 126 551 -14 653 35 l 704 136 b 450 15 644 58 551 15 b 197 197 354 15 251 79 b 599 304 244 314 461 269 b 713 447 676 324 713 382 b 413 708 713 565 599 708 b 63 351 242 708 63 581 b 421 -14 63 108 242 -14 z m 183 228 b 156 383 167 272 156 325 b 432 679 156 572 294 679 b 683 447 589 679 683 550 b 596 331 683 393 656 346 b 183 228 471 299 251 340 z "},"":{"ha":419,"x_min":0,"x_max":0,"o":"m 46 0 l 321 0 l 321 7 b 231 178 231 28 231 72 l 231 694 l 354 694 l 354 725 l 231 725 b 342 971 231 840 231 963 b 436 922 379 974 418 957 l 453 931 b 338 988 426 971 381 988 b 136 725 197 988 139 876 l 56 725 l 56 694 l 136 694 l 136 178 b 46 7 136 72 136 28 z "},"":{"ha":754,"x_min":0,"x_max":0,"o":"m 393 -367 b 774 -136 646 -367 774 -244 b 542 31 774 -51 710 31 b 497 29 528 31 513 31 b 231 -15 386 21 303 -15 b 103 78 153 -15 103 28 b 246 218 103 126 144 182 b 365 199 281 206 321 199 b 665 454 556 199 665 326 b 464 696 665 557 593 661 l 467 696 b 719 828 593 696 717 725 l 618 828 b 424 707 617 732 536 707 l 397 707 b 365 708 388 708 376 708 b 65 456 172 708 65 582 b 222 228 65 365 121 274 b 35 58 97 167 35 133 b 183 -43 35 -15 104 -43 b 483 0 311 -43 353 0 b 650 -136 596 0 650 -51 b 357 -332 650 -256 518 -332 b 13 -165 163 -332 54 -258 l -12 -165 b 393 -367 39 -287 179 -367 z m 389 225 b 163 483 240 225 163 367 b 342 681 163 582 217 681 b 569 428 492 681 569 543 b 389 225 569 326 514 225 z "},"":{"ha":857,"x_min":0,"x_max":0,"o":"m 56 0 l 331 0 l 331 7 b 240 178 240 28 240 72 l 240 211 b 567 631 404 488 510 631 b 617 472 600 631 617 579 l 617 178 b 526 7 617 72 617 28 l 526 0 l 801 0 l 801 7 b 711 178 711 28 711 72 l 711 439 b 619 708 711 621 679 708 b 240 264 540 708 411 554 l 240 1042 l 56 986 l 56 972 b 146 882 132 972 146 949 l 146 178 b 56 7 146 72 146 28 z "},"":{"ha":851,"x_min":0,"x_max":0,"o":"m 56 0 l 331 0 l 331 7 b 240 178 240 28 240 72 l 240 1042 l 56 986 l 56 972 b 146 882 132 972 146 949 l 146 178 b 56 7 146 72 146 28 z m 1179 -275 b 1317 -262 1224 -275 1269 -271 l 1317 -251 b 1224 -258 1285 -257 1254 -258 b 529 185 943 -258 717 -47 l 338 419 l 601 626 b 760 688 631 649 688 688 l 760 694 l 533 694 l 533 688 b 576 664 565 688 576 676 b 553 626 576 651 567 638 l 243 386 l 251 378 l 414 188 b 1179 -275 589 -18 828 -275 z "},"":{"ha":1300,"x_min":0,"x_max":0,"o":"m 56 0 l 331 0 l 331 7 b 240 178 240 28 240 72 l 240 235 b 553 631 396 496 497 631 b 603 472 586 631 603 579 l 603 178 b 513 7 603 72 603 28 l 513 0 l 788 0 l 788 7 b 697 178 697 28 697 72 l 697 235 b 1010 631 853 496 954 631 b 1060 472 1043 631 1060 579 l 1060 178 b 969 7 1060 72 1060 28 l 969 0 l 1244 0 l 1244 7 b 1154 178 1154 28 1154 72 l 1154 439 b 1063 708 1154 621 1122 708 b 697 288 986 708 861 563 l 697 439 b 606 708 697 621 665 708 b 240 288 529 708 404 563 l 240 708 l 56 653 l 56 639 b 146 549 132 639 146 615 l 146 178 b 56 7 146 72 146 28 z "},"":{"ha":865,"x_min":0,"x_max":0,"o":"m 56 0 l 331 0 l 331 7 b 240 178 240 28 240 72 l 240 538 b 436 672 294 628 379 672 b 585 444 538 672 560 592 l 631 178 b 642 92 636 143 642 115 b 563 7 642 46 622 21 l 563 0 l 838 0 l 838 7 b 725 178 747 28 743 74 l 678 449 b 469 708 650 604 615 708 b 240 589 389 708 311 669 l 240 708 l 56 653 l 56 639 b 146 549 132 639 146 615 l 146 178 b 56 7 146 72 146 28 z "},"":{"ha":842,"x_min":0,"x_max":0,"o":"m 421 118 b 779 417 600 118 779 218 b 421 707 779 611 600 707 b 63 417 242 707 63 611 b 421 118 63 218 242 118 z m 450 143 b 157 417 304 143 174 240 b 156 447 156 428 156 438 b 392 685 156 601 274 685 b 685 417 538 685 667 590 b 686 383 686 406 686 394 b 450 143 686 228 568 143 z m 421 -194 l 531 -86 l 422 22 l 313 -86 z "},"":{"ha":468,"x_min":0,"x_max":0,"o":"m 56 0 l 331 0 l 331 7 b 240 178 240 28 240 72 l 240 486 b 553 886 325 681 461 857 b 583 892 565 890 575 892 b 617 856 606 892 617 879 b 675 793 617 813 646 793 b 736 849 706 793 736 814 b 628 936 736 900 690 936 b 240 550 465 936 331 724 l 240 708 l 56 653 l 56 639 b 146 549 132 639 146 615 l 146 178 b 56 7 146 72 146 28 z "},"":{"ha":813,"x_min":0,"x_max":0,"o":"m 281 -15 b 572 382 379 -15 510 122 l 572 0 l 757 0 l 757 7 b 667 178 667 28 667 72 l 667 549 b 757 639 667 615 681 639 l 757 653 l 572 708 l 572 633 b 356 710 501 688 431 710 b 63 361 160 710 58 543 b 281 -15 68 111 171 -15 z m 310 32 b 164 358 204 32 164 224 b 378 674 164 554 242 674 b 572 586 440 674 507 649 b 310 32 544 244 401 32 z "},"":{"ha":747,"x_min":0,"x_max":0,"o":"m 421 -14 b 711 124 544 -14 643 32 l 694 133 b 450 15 635 56 544 15 b 156 388 278 15 156 196 b 356 676 156 572 233 676 b 690 486 447 676 564 617 l 713 486 l 713 708 l 700 708 b 671 547 700 708 690 547 b 646 558 665 547 657 550 b 340 706 542 660 435 706 b 63 351 182 706 63 575 b 421 -14 63 108 242 -14 z "},"":{"ha":800,"x_min":0,"x_max":0,"o":"m 421 -14 b 721 126 551 -14 653 35 l 704 136 b 450 15 644 58 551 15 b 157 351 318 15 176 135 b 156 371 157 358 156 364 l 742 371 b 322 708 608 606 451 708 b 63 351 175 708 63 575 b 421 -14 63 108 242 -14 z m 154 388 b 340 678 149 569 226 678 b 689 401 440 678 568 594 z "},"":{"ha":865,"x_min":0,"x_max":0,"o":"m 56 0 l 331 0 l 331 7 b 240 178 240 28 240 72 l 240 538 b 436 672 294 628 379 672 b 585 444 538 672 560 592 l 631 178 b 642 92 636 143 642 115 b 563 7 642 46 622 21 l 563 0 l 838 0 l 838 7 b 725 178 747 28 743 74 l 678 449 b 469 708 650 604 615 708 b 240 589 389 708 311 669 l 240 1042 l 56 986 l 56 972 b 146 882 132 972 146 949 l 146 178 b 56 7 146 72 146 28 z "},"":{"ha":851,"x_min":0,"x_max":0,"o":"m 1128 -225 b 1325 -199 1190 -225 1256 -217 l 1325 -187 b 1183 -204 1276 -199 1229 -204 b 535 189 926 -204 710 -32 l 401 356 b 707 544 536 369 707 364 b 547 713 707 646 638 713 b 240 453 451 713 329 638 l 240 1042 l 56 986 l 56 972 b 146 882 132 972 146 949 l 146 178 b 56 7 146 72 146 28 l 56 0 l 331 0 l 331 7 b 240 178 240 28 240 72 l 240 390 b 513 675 328 592 435 675 b 615 517 578 675 622 615 b 278 351 603 339 389 404 l 289 340 l 419 182 b 1128 -225 582 -14 813 -225 z "},"":{"ha":1265,"x_min":0,"x_max":0,"o":"m 56 0 l 331 0 l 331 7 b 240 178 240 28 240 72 l 240 578 b 408 672 293 640 360 672 b 557 444 510 672 535 593 l 596 178 b 606 92 601 143 606 114 b 528 7 606 46 588 21 l 528 0 l 803 0 l 803 7 b 690 178 713 28 706 72 l 650 449 b 635 529 646 478 640 504 l 638 533 b 836 672 692 626 778 672 b 985 444 938 672 960 592 l 1031 178 b 1042 92 1036 143 1042 115 b 963 7 1042 46 1022 21 l 963 0 l 1238 0 l 1238 7 b 1125 178 1147 28 1143 74 l 1078 449 b 872 708 1050 603 1015 708 b 628 574 785 708 701 665 l 624 569 b 444 708 596 656 547 708 b 240 618 372 708 303 679 l 240 708 l 56 653 l 56 639 b 146 549 132 639 146 615 l 146 178 b 56 7 146 72 146 28 z "},"":{"ha":800,"x_min":0,"x_max":0,"o":"m 421 -14 b 721 126 551 -14 653 35 l 704 136 b 450 15 644 58 551 15 b 157 351 318 15 176 135 b 156 371 157 358 156 364 l 738 371 b 414 707 715 604 567 707 b 63 351 240 707 63 574 b 421 -14 63 108 242 -14 z m 156 388 b 436 676 157 568 297 676 b 704 401 557 676 678 593 z "},"":{"ha":794,"x_min":0,"x_max":0,"o":"m 46 0 l 321 0 l 321 7 b 231 178 231 28 231 72 l 231 694 l 511 694 l 511 178 b 421 7 511 72 511 28 l 421 0 l 696 0 l 696 7 b 606 178 606 28 606 72 l 606 694 l 729 694 l 729 725 l 606 725 b 639 929 606 799 608 881 b 715 971 657 957 688 971 b 771 940 739 971 760 961 b 839 843 792 901 785 843 b 889 893 861 843 889 863 b 885 913 889 899 888 906 b 743 994 868 957 819 994 b 596 944 689 994 633 978 b 558 906 582 932 569 921 b 365 986 513 947 438 986 b 221 936 313 986 257 969 b 136 725 174 892 139 843 l 56 725 l 56 694 l 136 694 l 136 178 b 46 7 136 72 136 28 z m 231 725 b 263 917 231 796 232 871 b 360 964 285 950 321 964 b 546 885 424 964 493 935 b 511 725 525 849 513 800 z "},"":{"ha":1125,"x_min":0,"x_max":0,"o":"m 46 0 l 321 0 l 321 7 b 231 178 231 28 231 72 l 231 694 l 511 694 l 511 178 b 421 7 511 72 511 28 l 421 0 l 696 0 l 696 7 b 606 178 606 28 606 72 l 606 694 l 885 694 l 885 178 b 794 7 885 72 885 28 l 794 0 l 1069 0 l 1069 7 b 979 178 979 28 979 72 l 979 708 l 606 715 b 760 969 606 854 626 969 b 856 929 807 969 840 949 b 911 822 886 890 876 843 b 944 813 922 815 933 813 b 1003 871 976 813 1003 839 b 997 893 1003 878 1000 886 b 781 989 969 956 875 989 b 569 897 689 989 615 956 b 365 986 524 942 443 986 b 221 936 313 986 257 969 b 136 724 172 892 139 843 l 56 725 l 56 694 l 136 694 l 136 178 b 46 7 136 72 136 28 z m 511 718 l 231 722 b 263 917 231 794 231 869 b 360 964 285 950 321 964 b 554 876 428 964 501 932 b 511 718 526 833 511 779 z "},"":{"ha":750,"x_min":0,"x_max":0,"o":"m 46 0 l 321 0 l 321 7 b 231 178 231 28 231 72 l 231 694 l 510 694 l 510 178 b 419 7 510 72 510 28 l 419 0 l 694 0 l 694 7 b 604 178 604 28 604 72 l 604 708 l 231 719 b 385 969 231 857 253 969 b 481 929 432 969 465 949 b 536 822 511 890 501 843 b 569 813 547 815 558 813 b 628 871 601 813 628 839 b 622 893 628 878 625 886 b 406 989 594 956 500 989 b 136 722 243 989 139 883 l 56 725 l 56 694 l 136 694 l 136 178 b 46 7 136 72 136 28 z "},"":{"ha":711,"x_min":0,"x_max":0,"o":"m 381 -269 b 604 51 543 -228 604 -106 l 604 708 l 231 719 b 385 969 231 857 253 969 b 481 929 432 969 465 949 b 536 822 511 890 501 843 b 569 813 547 815 558 813 b 628 871 601 813 628 839 b 622 893 628 878 625 886 b 406 989 594 956 500 989 b 136 722 243 989 139 883 l 56 725 l 56 694 l 136 694 l 136 178 b 46 7 136 72 136 28 l 46 0 l 321 0 l 321 7 b 231 178 231 28 231 72 l 231 694 l 510 694 l 510 -3 b 381 -258 510 -76 504 -217 z "},"":{"ha":844,"x_min":0,"x_max":0,"o":"m 424 190 b 747 515 531 504 536 407 b 424 840 536 624 531 526 b 97 515 314 526 308 624 b 424 190 308 407 314 504 z "},"":{"ha":1400,"x_min":0,"x_max":0,"o":"m 701 -87 b 721 219 717 39 721 140 b 703 483 721 374 703 449 b 731 511 703 504 710 511 b 986 494 767 511 840 494 b 1303 515 1067 494 1171 499 b 988 536 1172 531 1069 536 b 732 519 842 536 767 519 b 703 547 710 519 703 526 b 722 814 703 582 722 658 b 701 1118 722 893 717 993 b 681 808 686 990 681 889 b 699 547 681 657 699 582 b 669 519 699 526 692 519 b 414 536 633 519 560 536 b 97 515 333 536 229 532 b 418 493 231 499 336 493 b 669 510 563 493 635 510 b 699 482 692 510 699 504 b 681 224 699 447 681 374 b 701 -87 681 143 685 42 z "},"":{"ha":1167,"x_min":0,"x_max":0,"o":"m 585 0 b 1069 486 671 478 564 399 b 585 972 564 572 671 494 b 97 486 497 494 604 572 b 585 0 604 399 497 478 z "},"":{"ha":328,"x_min":0,"x_max":0,"o":"m 163 0 l 165 0 b 228 972 176 740 214 899 b 231 996 229 981 231 989 b 164 1068 231 1044 197 1068 b 97 996 131 1068 97 1043 b 100 972 97 989 99 981 b 163 0 115 899 151 740 z "},"":{"ha":514,"x_min":0,"x_max":0,"o":"m 256 242 l 417 400 l 258 558 l 97 400 z "},"":{"ha":608,"x_min":0,"x_max":0,"o":"m 304 -157 b 539 176 431 -157 539 -46 b 306 511 539 400 432 511 b 69 176 178 511 69 399 b 304 -157 69 -46 178 -157 z m 304 -133 b 144 176 215 -133 144 -31 b 304 489 144 385 215 489 b 464 176 394 489 464 385 b 304 -133 464 -31 394 -133 z "},"":{"ha":331,"x_min":0,"x_max":0,"o":"m 78 -137 l 261 -137 l 261 -132 b 201 -18 201 -118 201 -89 l 201 521 l 69 428 l 69 418 b 90 419 78 418 83 419 b 139 358 142 419 139 399 l 139 -18 b 78 -132 139 -89 139 -118 z "},"":{"ha":568,"x_min":0,"x_max":0,"o":"m 69 -139 l 453 -139 l 499 -8 l 490 -8 b 386 -72 472 -44 457 -72 l 169 -72 b 435 178 210 -31 357 67 b 489 338 472 232 489 288 b 294 519 489 439 418 519 b 93 400 218 519 149 489 l 108 394 b 268 494 156 472 221 494 b 415 333 342 494 415 450 b 69 -139 415 122 131 -72 z "},"":{"ha":564,"x_min":0,"x_max":0,"o":"m 261 -154 b 494 58 404 -154 494 -50 b 350 236 494 133 450 206 b 439 367 411 268 439 318 b 268 513 439 440 376 513 b 89 393 192 513 131 474 l 106 388 b 256 494 139 461 199 494 b 376 368 335 494 376 431 b 246 211 376 306 333 239 b 425 51 360 208 425 153 b 261 -133 425 -39 367 -133 b 181 -111 225 -133 200 -128 b 131 -31 153 -87 151 -51 b 100 -17 121 -21 110 -17 b 69 -49 83 -17 69 -31 b 85 -85 69 -60 74 -72 b 261 -154 121 -125 175 -154 z "},"":{"ha":554,"x_min":0,"x_max":0,"o":"m 301 -139 l 485 -139 l 485 -133 b 425 -19 425 -119 425 -90 l 425 47 l 465 47 l 465 68 l 425 68 l 425 519 l 390 519 l 69 47 l 363 47 l 363 -19 b 301 -133 363 -90 363 -119 z m 383 469 l 385 474 l 385 471 z m 110 68 l 363 440 l 363 68 z "},"":{"ha":568,"x_min":0,"x_max":0,"o":"m 261 -146 b 499 76 388 -146 499 -65 b 257 290 499 210 388 290 b 111 256 208 290 158 279 l 111 454 l 436 454 l 474 557 l 469 557 b 406 511 450 521 431 511 l 83 511 l 83 200 b 246 257 136 239 193 257 b 428 61 346 257 428 189 b 263 -125 428 -29 369 -121 b 182 -103 226 -125 201 -119 b 132 -24 154 -79 153 -43 b 99 -8 121 -14 110 -8 b 69 -40 82 -8 69 -22 b 86 -76 69 -51 75 -64 b 261 -146 122 -115 176 -146 z "},"":{"ha":564,"x_min":0,"x_max":0,"o":"m 292 -157 b 494 69 422 -157 494 -33 b 303 279 494 203 399 279 b 147 192 246 279 186 251 b 376 500 171 353 268 492 l 376 513 b 69 117 257 504 69 365 b 292 -157 69 -14 135 -157 z m 292 -143 b 142 125 197 -143 139 -32 b 143 147 142 132 142 140 b 288 260 178 222 233 260 b 428 69 360 260 428 193 b 292 -143 428 -57 371 -143 z "},"":{"ha":532,"x_min":0,"x_max":0,"o":"m 179 -142 l 264 -142 b 463 506 293 74 360 290 l 99 506 l 69 386 l 74 386 b 149 449 94 439 122 449 l 414 449 b 179 -142 300 251 221 56 z "},"":{"ha":569,"x_min":0,"x_max":0,"o":"m 276 -150 b 500 14 386 -150 500 -96 b 332 213 500 92 411 154 b 460 385 413 261 460 314 b 293 517 460 472 378 517 b 110 361 203 517 110 467 b 229 204 110 304 165 253 b 69 -4 131 143 69 79 b 276 -150 69 -101 171 -150 z m 314 225 b 161 386 240 279 161 322 b 289 494 161 457 225 494 b 414 382 351 494 414 458 b 314 225 414 317 371 264 z m 282 -125 b 119 1 200 -125 119 -86 b 250 189 119 85 179 151 b 292 157 264 178 278 167 b 447 -12 367 100 447 50 b 282 -125 447 -85 364 -125 z "},"":{"ha":564,"x_min":0,"x_max":0,"o":"m 188 -146 b 494 250 307 -137 494 0 b 272 521 494 381 429 521 b 69 297 142 521 69 400 b 261 88 69 164 165 88 b 417 175 319 88 378 115 b 188 -132 393 14 296 -124 z m 276 107 b 136 297 204 107 136 174 b 272 507 136 424 193 507 b 422 242 367 507 425 397 b 421 219 422 235 422 226 b 276 107 386 144 331 107 z "},"":{"ha":608,"x_min":0,"x_max":0,"o":"m 304 415 b 539 749 431 415 539 526 b 306 1083 539 972 432 1083 b 69 749 178 1083 69 971 b 304 415 69 526 178 415 z m 304 439 b 144 749 215 439 144 542 b 304 1061 144 957 215 1061 b 464 749 394 1061 464 957 b 304 439 464 542 394 439 z "},"":{"ha":331,"x_min":0,"x_max":0,"o":"m 78 425 l 261 425 l 261 431 b 201 544 201 444 201 474 l 201 1083 l 69 990 l 69 981 b 90 982 78 981 83 982 b 139 921 142 982 139 961 l 139 544 b 78 431 139 474 139 444 z "},"":{"ha":568,"x_min":0,"x_max":0,"o":"m 69 424 l 453 424 l 499 554 l 490 554 b 386 490 472 518 457 490 l 169 490 b 435 740 210 532 357 629 b 489 900 472 794 489 850 b 294 1082 489 1001 418 1082 b 93 963 218 1082 149 1051 l 108 957 b 268 1057 156 1035 221 1057 b 415 896 342 1057 415 1013 b 69 424 415 685 131 490 z "},"":{"ha":564,"x_min":0,"x_max":0,"o":"m 261 417 b 494 629 404 417 494 521 b 350 807 494 704 450 776 b 439 938 411 839 439 889 b 268 1083 439 1011 376 1083 b 89 964 192 1083 131 1044 l 106 958 b 256 1065 139 1032 199 1065 b 376 939 335 1065 376 1001 b 246 782 376 876 333 810 b 425 622 360 779 425 724 b 261 438 425 532 367 438 b 181 460 225 438 200 443 b 131 540 153 483 151 519 b 100 554 121 550 110 554 b 69 522 83 554 69 540 b 85 486 69 511 74 499 b 261 417 121 446 175 417 z "},"":{"ha":554,"x_min":0,"x_max":0,"o":"m 301 422 l 485 422 l 485 428 b 425 542 425 442 425 471 l 425 608 l 465 608 l 465 629 l 425 629 l 425 1081 l 390 1081 l 69 608 l 363 608 l 363 542 b 301 428 363 471 363 442 z m 383 1031 l 385 1035 l 385 1032 z m 110 629 l 363 1001 l 363 629 z "},"":{"ha":568,"x_min":0,"x_max":0,"o":"m 261 403 b 499 625 388 403 499 483 b 257 839 499 758 388 839 b 111 804 208 839 158 828 l 111 1003 l 436 1003 l 474 1106 l 469 1106 b 406 1060 450 1069 431 1060 l 83 1060 l 83 749 b 246 806 136 788 193 806 b 428 610 346 806 428 738 b 263 424 428 519 369 428 b 182 446 226 424 201 429 b 132 525 154 469 153 506 b 99 540 121 535 110 540 b 69 508 82 540 69 526 b 86 472 69 497 75 485 b 261 403 122 433 176 403 z "},"":{"ha":564,"x_min":0,"x_max":0,"o":"m 292 414 b 494 640 422 414 494 538 b 303 850 494 774 399 850 b 147 763 246 850 186 822 b 376 1071 171 924 268 1063 l 376 1083 b 69 688 257 1075 69 936 b 292 414 69 557 135 414 z m 292 428 b 142 696 197 428 139 539 b 143 718 142 703 142 711 b 288 831 178 793 233 831 b 428 640 360 831 428 764 b 292 428 428 514 371 428 z "},"":{"ha":532,"x_min":0,"x_max":0,"o":"m 179 436 l 264 436 b 463 1083 293 651 360 868 l 99 1083 l 69 964 l 74 964 b 149 1026 94 1017 122 1026 l 414 1026 b 179 436 300 829 221 633 z "},"":{"ha":569,"x_min":0,"x_max":0,"o":"m 276 415 b 500 579 386 415 500 469 b 332 778 500 657 411 719 b 460 950 413 826 460 879 b 293 1082 460 1038 378 1082 b 110 926 203 1082 110 1032 b 229 769 110 869 165 818 b 69 561 131 708 69 644 b 276 415 69 464 171 415 z m 314 790 b 161 951 240 844 161 888 b 289 1060 161 1022 225 1060 b 414 947 351 1060 414 1024 b 314 790 414 882 371 829 z m 282 440 b 119 567 200 440 119 479 b 250 754 119 650 179 717 b 292 722 264 743 278 732 b 447 553 367 665 447 615 b 282 440 447 481 364 440 z "},"":{"ha":564,"x_min":0,"x_max":0,"o":"m 188 422 b 494 818 307 431 494 568 b 272 1089 494 949 429 1089 b 69 865 142 1089 69 968 b 261 656 69 732 165 656 b 417 743 319 656 378 683 b 188 436 393 582 296 444 z m 276 675 b 136 865 204 675 136 742 b 272 1075 136 992 193 1075 b 422 810 367 1075 425 965 b 421 788 422 803 422 794 b 276 675 386 713 331 675 z "},"⁄":{"ha":1033,"x_min":0,"x_max":0,"o":"m 111 -192 l 157 -192 l 936 1069 l 890 1069 z "},"½":{"ha":1189,"x_min":0,"x_max":0,"o":"m 129 425 l 313 425 l 313 431 b 253 544 253 444 253 474 l 253 1083 l 121 990 l 121 981 b 142 982 129 981 135 982 b 190 921 193 982 190 961 l 190 544 b 129 431 190 474 190 444 z m 97 -192 l 139 -192 l 918 1069 l 876 1069 z m 663 -139 l 1046 -139 l 1092 -8 l 1083 -8 b 979 -72 1065 -44 1050 -72 l 763 -72 b 1028 178 803 -31 950 67 b 1082 338 1065 232 1082 288 b 888 519 1082 439 1011 519 b 686 400 811 519 742 489 l 701 394 b 861 494 749 472 814 494 b 1008 333 935 494 1008 450 b 663 -139 1008 122 724 -72 z "},"¼":{"ha":1038,"x_min":0,"x_max":0,"o":"m 129 425 l 313 425 l 313 431 b 253 544 253 444 253 474 l 253 1083 l 121 990 l 121 981 b 142 982 129 981 135 982 b 190 921 193 982 190 961 l 190 544 b 129 431 190 474 190 444 z m 97 -192 l 139 -192 l 918 1069 l 876 1069 z m 757 -135 l 940 -135 l 940 -129 b 881 -15 881 -115 881 -86 l 881 51 l 921 51 l 921 72 l 881 72 l 881 524 l 846 524 l 525 51 l 818 51 l 818 -15 b 757 -129 818 -86 818 -115 z m 839 474 l 840 478 l 840 475 z m 565 72 l 818 444 l 818 72 z "},"¾":{"ha":1196,"x_min":0,"x_max":0,"o":"m 289 417 b 522 629 432 417 522 521 b 378 807 522 704 478 776 b 467 938 439 839 467 889 b 296 1083 467 1011 404 1083 b 117 964 219 1083 158 1044 l 133 958 b 283 1065 167 1032 226 1065 b 404 939 363 1065 404 1001 b 274 782 404 876 361 810 b 453 622 388 779 453 724 b 289 438 453 532 394 438 b 208 460 253 438 228 443 b 158 540 181 483 179 519 b 128 554 149 550 138 554 b 97 522 111 554 97 540 b 113 486 97 511 101 499 b 289 417 149 446 203 417 z m 257 -192 l 299 -192 l 1078 1069 l 1036 1069 z m 915 -135 l 1099 -135 l 1099 -129 b 1039 -15 1039 -115 1039 -86 l 1039 51 l 1079 51 l 1079 72 l 1039 72 l 1039 524 l 1004 524 l 683 51 l 976 51 l 976 -15 b 915 -129 976 -86 976 -115 z m 997 474 l 999 478 l 999 475 z m 724 72 l 976 444 l 976 72 z "},"⅛":{"ha":1183,"x_min":0,"x_max":0,"o":"m 129 425 l 313 425 l 313 431 b 253 544 253 444 253 474 l 253 1083 l 121 990 l 121 981 b 142 982 129 981 135 982 b 190 921 193 982 190 961 l 190 544 b 129 431 190 474 190 444 z m 97 -192 l 139 -192 l 918 1069 l 876 1069 z m 863 -153 b 1086 11 972 -153 1086 -99 b 918 210 1086 89 997 151 b 1046 382 999 258 1046 311 b 879 514 1046 469 964 514 b 696 358 789 514 696 464 b 815 201 696 301 751 250 b 656 -7 717 140 656 76 b 863 -153 656 -104 757 -153 z m 900 222 b 747 383 826 276 747 319 b 875 492 747 454 811 492 b 1000 379 938 492 1000 456 b 900 222 1000 314 957 261 z m 868 -128 b 706 -1 786 -128 706 -89 b 836 186 706 82 765 149 b 878 154 850 175 864 164 b 1033 -15 953 97 1033 47 b 868 -128 1033 -87 950 -128 z "},"⅜":{"ha":1332,"x_min":0,"x_max":0,"o":"m 289 417 b 522 629 432 417 522 521 b 378 807 522 704 478 776 b 467 938 439 839 467 889 b 296 1083 467 1011 404 1083 b 117 964 219 1083 158 1044 l 133 958 b 283 1065 167 1032 226 1065 b 404 939 363 1065 404 1001 b 274 782 404 876 361 810 b 453 622 388 779 453 724 b 289 438 453 532 394 438 b 208 460 253 438 228 443 b 158 540 181 483 179 519 b 128 554 149 550 138 554 b 97 522 111 554 97 540 b 113 486 97 511 101 499 b 289 417 149 446 203 417 z m 239 -192 l 281 -192 l 1060 1069 l 1018 1069 z m 1011 -147 b 1235 17 1121 -147 1235 -93 b 1067 215 1235 94 1146 157 b 1194 388 1147 264 1194 317 b 1028 519 1194 475 1113 519 b 844 364 938 519 844 469 b 964 207 844 307 900 256 b 804 -1 865 146 804 82 b 1011 -147 804 -99 906 -147 z m 1049 228 b 896 389 975 282 896 325 b 1024 497 896 460 960 497 b 1149 385 1086 497 1149 461 b 1049 228 1149 319 1106 267 z m 1017 -122 b 854 4 935 -122 854 -83 b 985 192 854 88 914 154 b 1026 160 999 181 1013 169 b 1182 -10 1101 103 1182 53 b 1017 -122 1182 -82 1099 -122 z "},"⅝":{"ha":1339,"x_min":0,"x_max":0,"o":"m 289 431 b 526 653 415 431 526 511 b 285 867 526 786 415 867 b 139 832 236 867 186 856 l 139 1031 l 464 1031 l 501 1133 l 497 1133 b 433 1088 478 1097 458 1088 l 111 1088 l 111 776 b 274 833 164 815 221 833 b 456 638 374 833 456 765 b 290 451 456 547 397 456 b 210 474 254 451 229 457 b 160 553 182 497 181 533 b 126 568 149 563 138 568 b 97 536 110 568 97 554 b 114 500 97 525 103 513 b 289 431 150 461 204 431 z m 238 -192 l 279 -192 l 1058 1069 l 1017 1069 z m 1018 -147 b 1242 17 1128 -147 1242 -93 b 1074 215 1242 94 1153 157 b 1201 388 1154 264 1201 317 b 1035 519 1201 475 1119 519 b 851 364 944 519 851 469 b 971 207 851 307 907 256 b 811 -1 872 146 811 82 b 1018 -147 811 -99 913 -147 z m 1056 228 b 903 389 982 282 903 325 b 1031 497 903 460 967 497 b 1156 385 1093 497 1156 461 b 1056 228 1156 319 1113 267 z m 1024 -122 b 861 4 942 -122 861 -83 b 992 192 861 88 921 154 b 1033 160 1006 181 1019 169 b 1189 -10 1108 103 1189 53 b 1024 -122 1189 -82 1106 -122 z "},"⅞":{"ha":1188,"x_min":0,"x_max":0,"o":"m 217 436 l 301 436 b 500 1083 331 651 397 868 l 136 1083 l 107 964 l 111 964 b 186 1026 132 1017 160 1026 l 451 1026 b 217 436 338 829 258 633 z m 97 -192 l 139 -192 l 918 1069 l 876 1069 z m 867 -147 b 1090 17 976 -147 1090 -93 b 922 215 1090 94 1001 157 b 1050 388 1003 264 1050 317 b 883 519 1050 475 968 519 b 700 364 793 519 700 469 b 819 207 700 307 756 256 b 660 -1 721 146 660 82 b 867 -147 660 -99 761 -147 z m 904 228 b 751 389 831 282 751 325 b 879 497 751 460 815 497 b 1004 385 942 497 1004 461 b 904 228 1004 319 961 267 z m 872 -122 b 710 4 790 -122 710 -83 b 840 192 710 88 769 154 b 882 160 854 181 868 169 b 1038 -10 957 103 1038 53 b 872 -122 1038 -82 954 -122 z "},".":{"ha":300,"x_min":0,"x_max":0,"o":"m 178 0 b 244 67 214 0 244 29 b 178 132 244 103 214 132 b 111 67 142 132 111 103 b 178 0 111 29 142 0 z "},",":{"ha":301,"x_min":0,"x_max":0,"o":"m 160 -118 l 164 -118 b 246 57 200 -81 246 0 b 238 92 246 71 243 82 b 178 132 228 115 204 132 b 111 65 139 132 111 101 b 160 1 111 35 131 10 b 185 -44 176 -6 185 -24 b 160 -118 185 -67 176 -93 z "},":":{"ha":299,"x_min":0,"x_max":0,"o":"m 178 493 b 243 560 214 493 243 522 b 178 625 243 597 214 625 b 111 560 140 625 111 597 b 178 493 111 522 140 493 z m 178 0 b 243 67 214 0 243 28 b 178 132 243 103 214 132 b 111 67 140 132 111 103 b 178 0 111 28 140 0 z "},";":{"ha":303,"x_min":0,"x_max":0,"o":"m 178 493 b 243 560 214 493 243 522 b 178 625 243 597 214 625 b 111 560 140 625 111 597 b 178 493 111 522 140 493 z m 161 -118 l 165 -118 b 247 57 201 -81 247 0 b 239 92 247 71 244 82 b 179 132 229 115 206 132 b 113 65 140 132 113 101 b 161 1 113 35 132 10 b 186 -44 178 -6 186 -24 b 161 -118 186 -67 178 -93 z "},"…":{"ha":821,"x_min":0,"x_max":0,"o":"m 178 0 b 244 67 214 0 244 29 b 178 132 244 103 214 132 b 111 67 140 132 111 103 b 178 0 111 29 140 0 z m 439 0 b 504 67 475 0 504 29 b 439 132 504 103 475 132 b 372 67 401 132 372 103 b 439 0 372 29 401 0 z m 700 0 b 765 67 738 0 765 29 b 700 132 765 103 738 132 b 633 67 663 132 633 103 b 700 0 633 29 663 0 z "},"!":{"ha":300,"x_min":0,"x_max":0,"o":"m 167 224 l 186 224 l 243 1006 b 178 1083 244 1057 211 1083 b 111 1006 143 1083 108 1057 z m 178 0 b 244 67 214 0 244 29 b 178 132 244 103 214 132 b 111 67 140 132 111 103 b 178 0 111 29 140 0 z "},"¡":{"ha":300,"x_min":0,"x_max":0,"o":"m 178 635 b 244 700 214 635 244 664 b 178 767 244 738 214 767 b 111 700 140 767 111 738 b 178 635 111 664 140 635 z m 178 -317 b 243 -239 211 -317 244 -290 l 186 543 l 167 543 l 111 -239 b 178 -317 108 -290 143 -317 z "},"?":{"ha":744,"x_min":0,"x_max":0,"o":"m 333 210 l 361 210 b 689 811 361 413 689 579 b 404 1101 689 967 588 1101 b 111 804 226 1101 111 981 b 113 775 111 794 111 785 l 129 775 b 128 800 129 783 128 792 b 383 1057 128 958 243 1057 b 592 814 526 1057 592 935 b 333 210 592 582 332 408 z m 349 0 b 415 67 385 0 415 29 b 349 132 415 103 385 132 b 282 67 313 132 282 103 b 349 0 282 29 313 0 z "},"¿":{"ha":744,"x_min":0,"x_max":0,"o":"m 451 635 b 518 700 488 635 518 664 b 451 767 518 738 488 767 b 385 700 415 767 385 738 b 451 635 385 664 415 635 z m 396 -335 b 689 -37 574 -335 689 -214 b 688 -8 689 -28 689 -18 l 671 -8 b 672 -33 671 -17 672 -25 b 417 -290 672 -192 557 -290 b 208 -47 274 -290 208 -168 b 467 557 208 185 468 358 l 439 557 b 111 -44 439 354 111 188 b 396 -335 111 -200 213 -335 z "},"·":{"ha":299,"x_min":0,"x_max":0,"o":"m 178 283 b 243 350 214 283 243 313 b 178 415 243 386 214 415 b 111 350 140 415 111 386 b 178 283 111 313 140 283 z "},"•":{"ha":432,"x_min":0,"x_max":0,"o":"m 244 221 b 376 354 318 221 376 281 b 244 486 376 428 318 486 b 111 354 171 486 111 428 b 244 221 111 281 171 221 z "},"*":{"ha":526,"x_min":0,"x_max":0,"o":"m 292 918 l 294 919 l 447 992 b 471 1021 464 1000 471 1011 b 447 1042 471 1032 461 1042 b 421 1032 439 1042 431 1039 l 296 922 l 318 1090 b 294 1129 322 1117 308 1129 b 271 1090 281 1129 268 1117 l 294 921 z m 135 793 b 160 804 142 793 150 796 l 292 918 l 161 1032 b 135 1043 151 1039 143 1043 b 111 1021 121 1043 111 1032 b 135 992 111 1011 118 1000 l 290 918 l 135 844 b 111 815 118 838 111 825 b 135 793 111 803 121 793 z m 294 708 b 318 747 308 708 322 722 l 296 914 l 422 804 b 447 793 431 796 440 793 b 471 815 461 793 471 804 b 447 844 471 825 464 836 l 294 917 l 292 918 l 293 915 l 271 747 b 294 708 268 722 281 708 z "},"#":{"ha":1044,"x_min":0,"x_max":0,"o":"m 251 -11 l 293 -11 l 389 279 l 611 278 l 515 -11 l 557 -11 l 653 278 l 901 278 l 917 315 l 665 315 l 738 531 l 972 531 l 989 567 l 750 567 l 842 844 l 800 844 l 708 567 l 486 568 l 578 844 l 536 844 l 444 568 l 197 568 l 179 531 l 432 531 l 360 317 l 125 317 l 111 279 l 347 279 z m 624 315 l 401 317 l 474 531 l 696 531 z "},"/":{"ha":718,"x_min":0,"x_max":0,"o":"m 111 -174 l 153 -174 l 663 997 l 621 997 z "},"\\":{"ha":649,"x_min":0,"x_max":0,"o":"m 550 -174 l 593 -174 l 154 997 l 111 997 z "},"(":{"ha":415,"x_min":0,"x_max":0,"o":"m 332 -174 l 360 -174 b 207 406 258 19 207 213 b 360 983 207 599 258 792 l 332 983 b 111 406 185 792 111 599 b 332 -174 111 213 185 19 z "},")":{"ha":415,"x_min":0,"x_max":0,"o":"m 111 -174 l 139 -174 b 360 406 286 19 360 213 b 139 983 360 599 286 792 l 111 983 b 264 406 214 792 264 599 b 111 -174 264 213 214 19 z "},"{":{"ha":425,"x_min":0,"x_max":0,"o":"m 369 -174 l 369 -157 b 281 -35 317 -153 281 -111 l 281 107 b 282 293 282 179 282 257 b 214 404 282 343 258 381 b 281 515 258 428 281 465 b 282 703 281 551 281 631 l 282 844 b 369 964 282 919 317 960 l 369 983 b 185 844 260 982 185 926 l 185 503 b 111 404 185 458 169 428 b 185 306 167 383 185 354 l 185 -35 b 369 -174 185 -117 260 -171 z "},"}":{"ha":425,"x_min":0,"x_max":0,"o":"m 111 -174 b 296 -35 221 -171 296 -117 l 296 306 b 369 404 296 354 314 383 b 296 503 311 428 296 458 l 296 844 b 111 983 296 926 221 982 l 111 964 b 199 844 164 960 199 919 l 199 703 b 200 515 200 631 200 551 b 267 404 200 465 222 428 b 199 293 222 381 199 343 b 200 107 199 257 199 179 l 200 -35 b 111 -157 200 -111 164 -153 z "},"[":{"ha":386,"x_min":0,"x_max":0,"o":"m 111 -174 l 331 -174 l 331 -147 l 207 -147 l 207 957 l 331 957 l 331 983 l 111 983 z "},"]":{"ha":386,"x_min":0,"x_max":0,"o":"m 111 -174 l 331 -174 l 331 983 l 111 983 l 111 957 l 235 957 l 235 -147 l 111 -147 z "},"-":{"ha":647,"x_min":0,"x_max":0,"o":"m 111 415 l 592 415 l 592 456 l 111 456 z "},"–":{"ha":856,"x_min":0,"x_max":0,"o":"m 111 415 l 800 415 l 800 456 l 111 456 z "},"—":{"ha":1340,"x_min":0,"x_max":0,"o":"m 111 415 l 1285 415 l 1285 456 l 111 456 z "},"_":{"ha":854,"x_min":0,"x_max":0,"o":"m 111 -96 l 799 -96 l 799 -56 l 111 -56 z "},"‚":{"ha":301,"x_min":0,"x_max":0,"o":"m 160 -118 l 164 -118 b 246 57 200 -81 246 0 b 238 92 246 71 243 82 b 178 132 228 115 204 132 b 111 65 139 132 111 101 b 160 1 111 35 131 10 b 185 -44 176 -6 185 -24 b 160 -118 185 -67 176 -93 z "}}}
